<mxfile host="app.diagrams.net" modified="2021-09-22T03:05:24.781Z" agent="5.0 (Windows NT 10.0; Win64; x64) AppleWebKit/537.36 (KHTML, like Gecko) Chrome/93.0.4577.82 Safari/537.36" etag="NLE4Q9c4sWGRKEl7iie9" version="15.2.9" type="github">
  <diagram id="R2lEEEUBdFMjLlhIrx00" name="Page-1">
    <mxGraphModel dx="1831" dy="574" grid="1" gridSize="10" guides="1" tooltips="1" connect="1" arrows="1" fold="1" page="1" pageScale="1" pageWidth="850" pageHeight="1100" math="0" shadow="0" extFonts="Permanent Marker^https://fonts.googleapis.com/css?family=Permanent+Marker">
      <root>
        <mxCell id="0" />
        <mxCell id="1" parent="0" />
        <mxCell id="Uyzg28V6n4aqCo-Vc_xZ-1" value="" style="shape=image;verticalLabelPosition=bottom;labelBackgroundColor=#ffffff;verticalAlign=top;aspect=fixed;imageAspect=0;image=data:image/png,iVBORw0KGgoAAAANSUhEUgAABD4AAAKQCAYAAAB3kbpxAAAgAElEQVR4Aey9PbI0tbZufVtzurGbQSPoAy24QQuwb9AAzG1jYuLh4uHi8sXgi7HP3JMpVVat+lu5HqNCmZLm/5AyS6te+D//8z//81c+yUEYCANhIAyEgTAQBsJAGAgDYSAMhIEwcEYG/s8Zg0pMWaxhIAyEgTAQBsJAGAgDYSAMhIEwEAbCAAzk4CO/eMkvfsJAGAgDYSAMhIEwEAbCQBgIA2EgDJyWgRx8BO7Twp3T3ZzuhoEwEAbCQBgIA2EgDISBMBAGwkAOPnLwkYOPMBAGwkAYCANhIAyEgTAQBsJAGAgDp2UgBx+B+7Rw52Q3J7thIAyEgTAQBsJAGAgDYSAMhIEwkIOPHHzk4CMMhIEwEAbCQBgIA2EgDISBMBAGwsBpGcjBR+A+Ldw52c3JbhgIA2EgDISBMBAGwkAYCANhIAzk4CMHHzn4CANhIAyEgTAQBsJAGAgDYSAMhIEwcFoGcvARuE8Ld052c7IbBsJAGAgDYSAMhIEwEAbCQBgIAzn4yMFHDj7CQBgIA2EgDISBMBAGwkAYCANhIAycloEcfATu08Kdk92c7IaBMBAGwkAYCANhIAyEgTAQBsJADj5y8JGDjzAQBsJAGAgDYSAMhIEwEAbCQBgIA6dlIAcfgfu0cOdkNye7YSAMhIEwEAbCQBgIA2EgDISBMJCDjxx85OAjDISBMBAGwkAYCANhIAyEgTAQBsLAaRnIwUfgPi3cOdnNyW4YCANhIAyEgTAQBsJAGAgDYSAMvN3Bxy+//PLXn3/++ffnm2++yZfyHMyEgTAQBsJAGAgDYSAMhIEwEAbCQBgIAzcz8HYHH//617/++u233/4++Pj1118vBsYcD0q+++67i/Nz2pfTvjAQBsJAGAgDYSAMhIEwEAbCQBgIA1+HgbsefPz+++//OYTwMGJqOaz44YcflocU/NLjjz/++FvXbh6g3uPg4/vvv/+PvcD/deBPrVPrMBAGwkAYCANhIAyEgTAQBsLA+Rm468EHwPhrDQ88hIhfcnCI4YEG47tfdHz77bd/z2U+surp7UcOPtBb/2kNPnX9uT//IkiNU+MwEAbCQBgIA2EgDISBMBAGwsB5Gbj7wUc9iJgOEn766af/+lUIBxwrwBhD3yP+Wx8//vjjfx3C9IOalU/pP+9iSG1T2zAQBsJAGAgDYSAMhIEwEAbCwPkYePrBB/8dDg8ZaDmAeCZYHKJwmMIvSfi1R/0FynRQ80zfYut8Cyw1TU3DQBgIA2EgDISBMBAGwkAYCAOvZeDlBx/9P0jKrzz+/e9//9c/meG/HUJf/ycv/dCCX5NcAgp79Vckl36hcklfxl8LcPKf/IeBMBAGwkAYCANhIAyEgTAQBsLAjoGnH3xwgOEvPvjvgeic/6yFMfo55OBT/5shyDqflvF6+HHk4KPKc52DjyyQzkTuw0QYCANhIAyEgTAQBsJAGAgDYeA8DDzt4INDCv5ZSz30oE+Y6n/7o/53P/g/rijDIYfzbevBRQ4+zgOm9U2bmoaBMBAGwkAYCANhIAyEgTAQBsLARxh4+MGHhxa15b+t0Z2uBx91rP83QeoY1zn4yALoTOQ+TISBMBAGwkAYCANhIAyEgTAQBsKADDz84END/Lqj/u9s+Scs9ZcdzuttDj4Ca2ci92EiDISBMBAGwkAYCANhIAyEgTAQBo4y8LSDDx2q/9yFf7pS/7kLc/i/rjCHX3LwHzWtvxThWj22+cVHYJeFtGEhDISBMBAGwkAYCANhIAyEgTAQBjoDTz/44GCjHmb4v7PlAMT/8CkHIvzTF+bmFx+BtkOb+zARBsJAGAgDYSAMhIEwEAbCQBgIA0cZePrBB47Vgw//g6Q///zzf/o9DGFuDj4C81GYMy+shIEwEAbCQBgIA2EgDISBMBAGwkBn4OkHH/0XHx581MMQDjt0tP5fXfJPXQKwXKQNC2EgDISBMBAGwkAYCANhIAyEgTBwhIGnH3zwHzithxwchOBo7ePXH/Qxxn8EtY71/yZI/hsfAf0I6JkTTsJAGAgDYSAMhIEwEAbCQBgIA1+TgbsffPSDCsHq/1cXDjM4BHG8HmDUgw7m1DF+AaIMOuvc6X+T69ze8n+Uqf+XGfXw3xmpvzjpcrn/mgsldU/dw0AYCANhIAyEgTAQBsJAGAgDn5OBux58TP8XFg8UbJnDLzr64QKHGPTzHzZlLgcoHnJ0vf5vcJ2rblp/LbIDss7fXXcfdzoz9jkXQOqWuoWBMBAGwkAYCANhIAyEgTAQBs7NwF0PPgLLuWFJfVPfMBAGwkAYCANhIAyEgTAQBsJAGPhsDNzt4GP3y4nPPPbZChp/swmFgTAQBsJAGAgDYSAMhIEwEAbCQBj4XwZy8PHnn//13wnphzSB5X9hSS6SizAQBsJAGAgDYSAMhIEwEAbCQBj4bAzc7eDjswUef7NYw0AYCANhIAyEgTAQBsJAGAgDYSAMnJ+BHHz8z/mLnIWcGoeBMBAGwkAYCANhIAyEgTAQBsLAV2UgBx85+PjP/x74qy6CxJ0HQBgIA2EgDISBMBAGwkAYCANh4LwM5OAjBx85+AgDYSAMhIEwEAbCQBgIA2EgDISBMHBaBnLwEbhPC3dObM97YpvaprZhIAyEgTAQBsJAGAgDYSAMHGUgBx85+MjBRxgIA2EgDISBMBAGwkAYCANhIAyEgdMykIOPwH1auI+e/mVeTorDQBgIA2EgDISBMBAGwkAYCAPnZSAHHzn4yMFHGAgDYSAMhIEwEAbCQBgIA2EgDISB0zKQg4/AfVq4c2J73hPb1Da1DQNhIAyEgTAQBsJAGAgDYeAoAzn4yMFHDj7CQBgIA2EgDISBMBAGwkAYCANhIAycloEcfATu08J99PQv83JSHAbCQBgIA2EgDISBMBAGwkAYOC8DOfjIwUcOPsJAGAgDYSAMhIEwEAbCQBgIA2EgDJyWgRx8BO7Twp0T2/Oe2Ka2qW0YCANhIAyEgTAQBsJAGAgDRxnIwUcOPnLwEQbCQBgIA2EgDISBMBAGwkAYCANh4LQM5OAjcJ8W7qOnf5mXk+IwEAbCQBgIA2EgDISBMBAGwsB5GcjBRw4+cvARBsJAGAgDYSAMhIEwEAbCQBgIA2HgtAzk4CNwnxbunNie98Q2tU1tw0AYCANhIAyEgTAQBsJAGDjKQA4+cvCRg48wEAbCQBgIA2EgDISBMBAGwkAYCAOnZSAHH4H7tHAfPf3LvJwUh4EwEAbCQBgIA2EgDISBMBAGzstADj5y8JGDjzAQBsJAGAgDYSAMhIEwEAbCQBgIA6dlIAcfgfvTw/3HH3/89eeff/71r3/969PHklPm854yp7afv7a//PLL33vN77///te3336b/SbPzzAQBk7JAPsb71W//fbbKePL8/jzP49Tw9TwFgZy8JGH9qd/qPmA/umnnz59LLcs4sh8ns2fw7l///vff79QcmD3448/htlPtAd7wMqXgXeqHXvgr7/+mkOZT8RS9u333re///77vzjgZM2ztr7iH1bY44j/u+++y3Mqe0sYCAOnYODTHHzwpfbep898AfHXAjzYbnkR4eGIX+i514PRF1j0vuOX+UfEfEvuqwwPaGugf7y03Ksm1dY9rvmiIntc30PnNTr88g1jt7J/jb3M/f9f8nmBlEt/PXCv3PBlnHo+et+4x/6kr6/a337++ef/5GrHP/uH69SXf9Yr/r/T3kIMrGl8erf6++UJv+7FetXzww8//OcL6q025IE1WXV/lutvvvnmH5x+Ft/xkxpOewFMM/aKWGCJdwnfJ1z/j/RFW77LPNLWUd2sCfdI3xteuU58drzbPjflU18ntqf5z+rzGUYO+TyD7WfFFjvvfaD8DvW568EHi9uXRBaTm+Uq0PpSyXw2CR7gfb4PA/Qxj823z7n1vuq+VodfXvGbuC/Fe41+X8SevWFib1e7R8Z8TX6mueSMlyRqwYOZ9p6sTDZv6YN7mPHjF+FbdH1Ehlztav0R3ZG9/PCB13vz+ax9Y2cHpvisXqaUdT9fzXs0Q5f2OuzjI/sIa9V1avto/27R78HHo3NqDS89n3y+wsMjv8Dy3iB31+bNfdCY3umXPMRCLXex+TyRU1r6rs3DR+a7lvWztqwd9jneHVY24IR11cfp28n1+Y+4x7dn5PRd361gifr2dUJeHpHvIzpdq5f2nyO6dnN2dmR8tdcq69pYzdvZf/QY64s43tG3R8ce/ZffUc+ao7sefJAkN0c3hekgw2TWudNDj3n+JYNNpOq/16brSwWbk34daX3Z4KHOtQ+te23EvpTfS9+RmJij3Skfj475qI+7eR4m4CuMvOOmzqGM3JjTV/wF5Vb2d/nP2LGHCWzKwD1z5vpd7Rt8AWFNsN8yB/7gAF+u8WNnx71/eplyz6fFHvv6M75UTLFd4p8Y8Y29nTyRs3sfVE1+faSPfJrbj+i5JLurv7I+E82h/Y9q5e4a/fiInDmTT/qv0fPIuXKKn5Md15Ccspan5/cke88+7OIjbKiXdUNO/YK1Wz/I+56HHNeviEPfafEDHx7NA3aInw/X2GPd1FxWv5593d/DqeOr9m1iv7T/5Dl37D0Etlmz07P62YzF3rGaJU8fz9PdDz58SPsQ3P31hDk+EFcPOOR9GFpwHqS9zzEXsveXWv1d2V/JT19ceFhdq2el/9LGvpL7aD8POHIyPegfHfM9fCf/vDioC1Z2L1vOe1ZLfruPvlwx9iw/sHMr+8/08ay22PemNfbReHf7BuvXfZPawyEvPbf4srODbj51HRoXez5r0ntafMK32veIa3kn5ulDTNUu+ak1cn+f4qpyr7rGP/L7DPu7+mv/2fmypto/0vJs6Dy+2zMD3lxTPSaeGX39vup54n7S1xE+45PvhO5BPRbm8AcA68g8+vq8j967D0x+dt28fz7j/eHd363qs8McPWvf1l5td/tP9ZVay2VfJ1Xf6npnxzU5MfrK59wqlqnf3BDLNJ6+j3/JTg7fL4cPO/hww2CzmQrPSxEPOB4stCzAad61fT40j8r5ELyX/aN2L80zf7SX5mb8/RbWZ6jJu7L/GXL3rj4+a994lp1H5jn8375vvmP9r332P5Ktr6jbL1GrdxbXG3Xi+lU5ekd2X5WLz2r3WTV8lp1X1cE1+8r1+KrYY/f25/9nz93DDj5YSBx68JDjkKMnitNiTkV9GN7j4EFd2Oz2VvfK3MP+ysYt/WffcG/JSWTuu1G9K/up8+11fta+8Sw7j2Qh/L8/Z9fUPwcft9fzmjyv5volir1hNefSrz5WcvfsP+LnPe1F1/25fNbz51l2XsWIa4Fn4at8iN37r4/kdJ/Thx58+O/s+k8F+WkY/z6Qn5Reevnkp5wckniIwssNi3X6eSo6ffmpLfNXIHT7/uQQefTh+/RTNvThgw9y5nPdH/rmgHH94FcuxkOLze5f33C5Nz7sTIdJVQd5q74hW+3gu/pouZ98rTofHXO3Ve/x3U3a2nJPLp1Hnbiv84it16TGji7k4cB8TTLaqK010p/qS80l/FY57PsfX1WWOZUz7h3r/lRfmYOtqn+6xqbxIQN3/qxYLpHrMVVddUwZ1w/+fiSvU32N3xZb1Z9+Tf7ww7VV4+z/jAhfOyfI1nna7XbqPeuw19Lc1nlcT3sZNcEX55pjWvumlliZU2NFlzFVefuIx7qps44pQ8vc6pfzbZ2jDP3kovoz1cscwDQ2aMlf3c+Qq3q0ScuYHPdY6rx+TSzKYdcaTTlRFluuEWVgpK5T506tNap2uSZntsqxd5iTHhe+O1bzrSx+du7RUXPK3OoHevCPvUPdk4w2eos8Oan+4AN9fNBZx2rdGF/tWRNDMFPrsKqBtvEVPcSjLyt76Gas5gY26rMSfcxRv/WhZnI6yfScYavaIUfVTq0zY9zXPux3ndwf4XTSU2vS6zXZudRnvmvdu4zckK8+ho99L13VGtnpmYEP9TlcbXSOrKct+XD+tb4oV9cxeonHsW6fMfocx2blg+uey7rG+lhltMai/lWLnmoXFshj1YGfR9bJvf1zD3WdkVN8nVizjzlc13jrmHmjZS55r3PrtXOUYWzao6oM1+SLXJBLbNBS77onk98aV9XBmDXpsdR5XjsXW/h6dG83L9hDptYPf+nTBnPQ74f71Zj9zJ3WuuO00zomnppz5uEL60uf0T3tW3UN9txRa2vS9Vefcr0/OPjs+XnowQeLXzhrooQPkF1MHVDms0kAKR8XGTpd5GzE6mWuurDJtZ+62TjfVhnsu7GzILh2gdSHl3JuED5k66ZR/WI+c/AJvchhi2ta80Nc6qZlnDF9Qo4+N0p8q/Ona/OPnvqC5Vx0M1Y3fn2d6vHomPWrt/pJS55rrvWTGIgFNswltbWGNUb0wwTzkWeMvFof+vlMOeu+mS/m45fj5r7avcQz+VWeVj6Iu/ZzLbf43Mf6vXWj1UfkZckcKid7xGSfrbqUIUfM049b8mrt0Gnt1ItuxvFX3/WltshRa2JiLmO01t8++o2h5sM6Mt/9AttTDrRbY9XvatN5tEdrb+7NZ9XhNXlwD8Rv+81jrQdjzGcPo9+6KVN1adP1VnPmfNudn1POkTMH0xpFxhw6d5V/2eix6Ftvp3oT24p/5M3lxAj+dxv9vua11kjOeo2Qd2yKy5pYI+0Zgzawa7yMOc9WDsghcTAXneo5Ehu6VvXHd2L76J4lQzCDb+jjY/+kX16oHTL4aC4YM0fmwjFa8ka/NWB+5bGOqZdYuTbmzrB2aotO/aQGdYxr4mKcGBxzn6HfPttrOFUP/q5yNPmkrUuteSAnq7k1v85xXyB/7jnkCRaJmfo419Y80VK7yj1+OK+2zEF/rTv3fhi/xZdqg2vix+/VWmKs+6hPMlrj6ay7hqc8mzPz2H3r986Xt5p39esbLX6ho9axr5N7+Yct/TMv2JZ58qiP9DNf2z2/VZcyMrTLFXO7HXPoXtTlZQjfzQ1zmN/3CNckNtRre+1zztiv2dtds+R32mfRqT+0xIGvfHrctS7MJefM67Wo+uTIdcyYfVVO3VNOsSG/6p50OGbd5cB+a13tOpb2XAchDz34ABY3rvpApY9NlHEX0gSbsn2BsZmsFp/9R0HVPnL6pGwdY4Oy3w2pz2fczdANj76qpy9QXzh7v4uwL2o3E/p7XvSvtm6GbAS1n2v8x37t19dej2fEXP3weuWPedBP89VzYn/fwNEvK72O3E886FNvzXF9QcGvrtdY8KnqsB92ar+b/eS7Gzt5qDL92rqZpzqu/mnM3NT5XOsrMjBO21lUtse/yuu0ZrDl/J6v7hP3kx/0+5CTi10+nMuaMM4p99rXP3Xbb169p13tZXJMzqipLNX9purhWj+nvOhTHzOeqdbMxT6tL23UZMdWlen+rWphDureiKws43vVJUe1j+tdLH3urt7WqecE/4i/743otj7Idlv1flUH5qzGdnGt8k2Ouv/YMHedI/UQXx0jZmV6fWpcXquH1j5aczqtG+u840pdMgQzdb76p9rof5dxvfQ8cT9xrm381R9a64OdXn/8mfqrvNcy1PUzDhu72NRBewun5qivNZns/dXe6lqdq5a8KVtz2Ps6S86lRs6ltb/X072091dZrlfsVt1Hfem6uXctdb8ZY82RJ/YlZd2jptyjg/l1Te78l92ac+30dqVHf8wBOq9ZJyu92L/GP9etflT/5bWPrdhAtvp1tudcjY9aHd3brUeXkQHYq3nnWpmJMfcA1uKufup03/Telvpix3tr123a3583RzlQP626qt06nuvzHH48/ODDFxU3dTd+F+YKUOdNLwEA6MsDi6sC6cKrfbtr7bPwp3m+rLMoHNd2X4SMuynUFyNtoEsdtqsN3EVo3pxfbUz26zyu3cC6bV8Sqp/M19e++J8Rc/ede+12P6e5U98qHubKSn2xpl9mew4m/fQh7waOPWrX872StV9fvLeFS8a6j9ib2FDOdpe/I7lRj60y+kucvTaOdZ9XeXW+NmxdA5fqcGmvUB+t+Zi+dKhHf5jbY6i6XLuX5ql3tcfoE3apa89ntcm1TNSXYeeYM1r7aK3blEtljJs5+Fzl+7Uy3Q7zkEcXNpUzB5N9fet7vf6ow9b5ky7n2JrbKacrPX5Bn2Iz7ktrT9/vXaPJJ2Ot7VQDxvW/PzcZq3tY1TVdq2fyRz772jm6Z2FP/3l+Vft+qSS/tZ/rVc5Xde7y3q9iU8+0t7sXTPlQr+21z2TkjE0dtLdwqp5em9XeXO1durZmuxyYw6l+k379rWO7NV3nra5X9V3Nt3/yxbHe6mPnF076PudcctP1mNO6f+38d/6kq+t2nU57VJ873a/8WPWj417+rWzIF3a6z8pYR+ac5TlHrMZ3zd5uPSpf5s08eW+rzMSYMrRwPvmiHlqfOfhe+49er+q96keveeo27Z/YOepP5n2Ow5GHH3zwgHUxcM3GX18cVoBegnA1rq2jAK7sK8/CRScPJ/u0sWvrotrZMI46HzurfsZ2G48+1nZ6wKGf/v4CtPJ1F6tjNYaVnkuxVb+51nf09bEj9zs/9Lvr2cn0ud77xQ5/p7w6b9WufPGFun5R98X5yAuLeqf87eJUrvu7k3HutbLWuL+EuPYqV9qorV8AjjywtDXlA536vhqvdsm/+mjxd6rJJf9c60f8N//4WX3xWl09Z8pNNlYy6pzancy0Pznf/K7aass5tY/rXSx9rjqmeq706L+yUzvlUdvqRc6+2poL2tqv3KR7JVPl67Ux9Lh3elYyVa/XOz0f3bOwsfPFeuiL7ap/l1dla7uKbadnJVP11mv3jbpfoIP+/kxGborNHDk2tcypdp1T+7jexdbnru71hzhWc9wL8WM1p/ZP/pq7znaV211fWyt1Tb441lsPkup7o+/C/UumendtzenOf2twKTe+r2Cz+370fuXHqh+9R/2Tx5V/KxvKde6xvZLZxbuTmWJx/q6WPSbndj92sfS5l+KbfEVm1c/Yyq9bZCZ/6fNdFlscgrA/TPvfSn6Vo1U/eqwR7Upv+j/HAcatdXr4wQeO1RchHlp1418BKpwssim41fhqsU466FvZd/5k55421E+rTdpVP2O7jafq8Hr6Akkduk3mr/LxjJj1t7baxa/av7qGLXgzR8pPHDnWda1y0Of1e2tWX3b6HO7RT03wyZe4lS++oNTDQuQu2dCueqf87eJUTj22OxnnXCtr3ojRLwLYITd8Lj0IlZ9qrE+2+jblgzmXxtVji7/ub8pyX32+5N+lcW3Rmn9s1X6v1UVrX5WbcrSSqfL9eieDDfyrOd7N77q9N5/e25qDKRbn2Kqj+uLYSs/kvzJHWvU+q0YwSH7x27+greLe1eGauHd6PrpnkeOdL8bWa7Hqtx7o7DKsU1622U/Zf9RBS4x1/k7PLh9Vh9fXPJOR0S/laXc5qvPq9aSH8V1sVX53rT89b1XGPE21wIcjz0VjYH7VffRaH3Z+HvVlZ9Nnu88C7NHXZYyn96/ud/5bg0u5Yfwau9esk2f4t7JhXBNfK5lVnunfyUy53s1f2VnVYRfLpGtne/IVHat+xlZ+3SIz+WsfcaoTm6wRYnG8tkff73e52+Wp2sr1eQ8/nnLw4akeQPPxQQBYK0CFkwUxAbgaXy3WScfOvvO1w5cZ+7SB7/bt2lWMyKiftupY9TPHTeKofV9EeSlGns2j10HbK1+fEbM+1PaoXWIkPj7Exz16VvEwpu5q75JMn+s99sipten1ZB7cM848xmv9Vr4g55cZbPAlh7lVVh+mVr3T/EflRpvdn509vngYJ/Jcs+Y8COm66r1rZbVX1Ln6NuWDeZfGq656TW3xg9qio/pyyb9L49WOOcRG7fdaXbT20SpX/XJ8JeP41O5ksIF/NcfOn+xP+umzFn18F0ufq47qi3NWevS/51C5S616n1Ejv0CzVrDrs9UYetzWYYptJTPFu9PDfNfyLXsW8jtfrGn3a9VvPdBZZXwO0s87invNKraVHnSuZKq9ek1e8Jc80a8v1q/O5XqKzRxNtezy3k96GNvFpuyl9og/Hi5x2KS+a5+LxtDZVt+ldlera33Z2WJN4quxUuupVtfGs/PfGlzKjfXG9i4GxmTz6Dp5hn8rG8aFrz2ulUyfV+93MlOunT/Zr3rrtfWvfVzvYulzudc2bR+ffGXOqp+xlV+3yHR/pnv2X9cMtmsc7JesHz5H3u93udvlafIrfec7AHnKwQfg+IUAsCtIK0DrYUmd77ULpC4OxlaLVbnear/+Rb3O4QsZOn14MebDmwVY566utTFthqtFuOrHxm7jWfmgz2wgXPe8KbfyVflHxqwPtdVuzX8d95oNkTr58mr/Kh7GV6zsZNRbW16W8BMfudYX9NR5MjvlcOUL8uhlnC856Jg4qnbq9S5/rrFJ38qfI7m5VpZ8TD7UOHbXxsEes5vH2C4fsLPy/ZJexycdl/yTi9WaVDctfOkja7mOce0X4a5rV7fdXtP1e7+TmfYnc8DaUMel1jj7PHhh7Agzu3rrU9djDqlLt33kvjJwrxpNjJiHyc+pBvh+bd1W8e70IPORPQv5lf+MrbhY9U/sW6OJx1Vskx7zs5JxfGpl89IzeRXzLZxek6PJ512fNSMX0zzzxz5N/p0j20efi+bt0juB+nu7q9W1vnTd9Z66km/8JTbiZv+uc7g2nin+Ppf7nf+rd4+u59JzxPm3rJNn+Cf7nTUZ63v6pbwZb293scg7NpXzmTLtK87p7WpNur9PsXQd3F/rKzJTDOpe+XWLjDqPtFPccl33DXSt6r3qR8Y13tk54lvmnOMQ5GkHH25UHVw3ir642Zg9LGFOBa6OdX0u1roZ9TlVlwsEuf5QWtlxg2Exdhl0V9veo7/HyJi6+iJc9SOz23gYnz6+iPqQXeXEfHRf9eeRMU9+7+zyYmEc1r3r8OCqx8O8lQkuUWEAACAASURBVMwqB1239+iuXz6U7y86q7pZG/xRZ21hjDH08Tn6goQO112vGzplYZcb86s/PjQmGedcm1fmU6dpLalz1yLnXjG9DNf9w1yTj65T1mot+5x6j9+TPXQzVufqX69d9b3nusrXa+tGzmo/60E7xFLHZHKKW3+7TJXv1+Zqkpk4r3FOOcP3Xn85qvUjR/q7Y1B/b+HfXGEfv9Rly7jXq1Yfb6kRdmsuqj8136sa4LO5676uZIhjqtsqvp0eZPAfH+CRT+d+pdf+nS/G5lzbVb/5q7xMfejBb2tXc83YSoaxS/nQx9q6F7med+t/ik1/GDvK6aRnFVvVz3X1fbq2Zj1vzCWvxtlZUK7bMD/4XO2Za+pU1wlzyMMuj8xRvvKAHj7X+lL9mq6NGV9XzxX9meJBZ8+L89FdbdpPvrpMnee1sfY9inH3XPSgr+aKcXK1Wif68VH/zF33jxrnOffP93zzTmuNba1152LVj9xqr1Cmr2PuVzL6UVvZ6nsX67czt9ILG30uNtTNWN0jan/Pk/nrrFefc/1P7j5jTu5+8CH8fVGsklNfTPscdbHJuWBZFG6Ikw0XAjKAzH3fgKuduhCY60NzZ4eFpA9s/sSALR5s3GO7LjYX1OSHXyTRUf2yf3pYanv6AlF11Gv8cfOYdDp35eszYtaH2q7sWmf8Zb4PYfqpKQ9uNjBfnnrua91rrdAld12m+uW1deo6fDigwzHn0od/+EAfH/r6Jq0NWuMlztp/6RqOfUlAlnzBGtf4gE3Gux7t4Rv+80HWfK78uCWv+ieftdXn7l+/t2bI4nuNs65H4jDXxoYu46r16jb6vbnzJbHqwYc6X//whRwxtttjqmy/tm7YhzNilSHj6PbRYZ6Zo31Y4IMudHRbq3vmrmTo51Pzgh5zwJg1wnfXCtfVHnOYi9/6CQ/GuGKw6ljx7xpUf5Xh2viwzbU8yY417HLe72pkvnu8yFojucc2NpXhXhvmExmu8cl86n+vgblGn3pssTnVzfHaqr/6U8e5tn5H6tRl8WPyhXo65r6KbO3nuuqzFuTJ/jqfnJE7ckiuucdGz5H9zFGPrfnoMo5PLf4byy6P+Oa8GjM6tXuE050eWaqx1flcTzHUPmTxkzzZj7/oli2uHbM1BuSpFbbo46POGjfX9qOXnGNT3qp9bdSWL1rm032I/GH7Wl+q3unavQp7nUvnr+LBF+LDtxp/9d/9n5b5ru8pz9qzrQcI5JO88TG31OGWdXIv/1y35M44ZcK8Uj/jsSVfyHyl5xyxW/tpD3L9kVPzRGt/5wXeXCPUs8qYeziRafpqveyvcv3a/QU92sCua9D6VT+pN3LYIt7qS9cvB8QI17JDfoiN+yrDHFmr/bk+x2FHreNdDz4AR9houa/G+rWgucDqQnIukPtAYx56hd85tWXhuAEwF7jrQ6PO5Rr9zGPho5dr/blkB//dOJDBf/qqPfRWnfimDz1+7hlzYeqH/YwZm7moY+pdteZxtSntfEUncWHvETGvfNYudax5JJa6ibNxGh+54Zq++uA29/TXGLg2J+isdpSZ/Ku1wJ5z2IyrDvRPccCLMehP9UV9tMwjrv6AqnNW1z035JJ4ffCgF7vMUwe1rvmcZPp6vTWvxIQPu099COpjb8kRPqmHmFhLdT0iI8d1Ltew3ed2G/Ue3ZUB7O70uJfJBi05pr/qPXJdY0WPvtMaP75UXdTHmFcyleMqW6/7/sS94+rHB2zIt+PmQB93OZgYpA8dymPPtauN3h7hf9IDlzUeeHIddBvT/aUaUasuN9WIObWutUb04xf5oFUnfvYa9Lo5F/2V46lu1c+up9a/ziN+fLh2z6o5r75QZ2M1Xvqu2XdqnXt9yBl81f3IHNGHL9jlU58LzLGfVpmai9W1e+yK4V1s6jzC6U4PeZhiq+uMa+1Nba1ZzQV6yRWMrGIk5+ReH9CFT9ix3rRVvstgk1wqN/lY+2o9q72ut46tfKl6+zX68I34+li9Zx7caAMZbNPHWJ3LNf47l9a4Xcfk8giHcCGD2EQOX+nXJrrxpY7jEz7Qx6fbupd/3bb5oNU2vukrLb5XfyeZuodW2Xq92+fUb07Mv/Ksl55X7qd1RC7rXPch5tYYK//ase2+1nrIRPd1FQN2ZAuZyle153pFv3Hp7ySjrC12iLX6gTz64Md5tJ1T8kUfOrSJXJdRd10PlR30KGN/1+N42vMcgNz14CNgnAeM1PK9asmDgM17egn6zLXyIVsfQMZDrDwYfRjan/a92Ew9rquHL1j15fSMOTzrnnXGWiWm69bw0Xz5xcwvhkflMu8x9Uhek9cwEAZy8LH4b2JkcWRxvBMDnKCf8YuSBxv1L0w17/7VI6fwWY+Vi898/VUOPs66Z31m9uL7c/dRnm95dj0352E8+Q4DYWDHwKc5+PBl8d0eIn4x46/Su0Sfaewrxvzs+sE5fy3Crv905lW/9sAX+H7EwYu6Vwcf/IT0UbafXdPY+9+HsXV/BFPvnmefZWeL/Z32rHdnIP79717Qc8F+/1nfp/gnB/6zB55pxJFfe6xr3Wt/tvuv/Jw7Wy0Tz3nWcQ4+PviLj694CPAVY372pscLE//8gxcp/omLL1PP9gN7j3x4e7DBv8WsMXLI40/lGXvVoc8r8v0VbD6SqXfPn79yon13X6/x7532rGv8ztz3eqGFIz6fsS7sazyvONTkF088vz9jHPH5PmviKz/nwtB9GEoe75/HT3PwkeLfv/jJ6fvm1P9w1JH/SNRnryMHaRzyEKsvvbS8NPT/yNVnjzX+v++ae0Zt4LwyfqbDj6+0Zz2Dldj4fHuF65u1cLZfdIXHz8djapaahYF/MpCDjw/+4iNQ/ROq5CQ5CQNhIAyEgTAQBsJAGAgDYSAMhIF3YSAHHzn4yE8xw0AYCANhIAyEgTAQBsJAGAgDYSAMnJaBHHwE7tPC/S6ni/EjJ91hIAyEgTAQBsJAGAgDYSAMhIHXMZCDjxx85OAjDISBMBAGwkAYCANhIAyEgTAQBsLAaRnIwUfgPi3cOVF93Ylqcp/ch4EwEAbCQBgIA2EgDISBMPAuDOTgIwcfOfgIA2EgDISBMBAGwkAYCANhIAyEgTBwWgZy8BG4Twv3u5wuxo+cdIeBMBAGwkAYCANhIAyEgTAQBl7HQA4+cvCRg48wEAbCQBgIA2EgDISBMBAGwkAYCAOnZSAHH4H7tHDnRPV1J6rJfXIfBsJAGAgDYSAMhIEwEAbCwLswkIOPHHzk4CMMhIEwEAbCQBgIA2EgDISBMBAGwsBpGcjBR+A+LdzvcroYP3LSHQbCQBgIA2EgDISBMBAGwkAYeB0DOfjIwUcOPsJAGAgDYSAMhIEwEAbCQBgIA2EgDJyWgRx8BO7Twp0T1dedqCb3yX0YCANhIAyEgTAQBsJAGAgD78JADj5y8JGDjzAQBsJAGAgDYSAMhIEwEAbCQBgIA6dlIAcfgfu0cL/L6WL8yEl3GAgDYSAMhIEwEAbCQBgIA2HgdQzk4CMHHzn4CANhIAyEgTAQBsJAGAgDYSAMhIEwcFoGcvARuE8Ld05UX3eimtwn92EgDISBMBAGwkAYCANhIAy8CwM5+MjBRw4+wkAYCANhIAyEgTAQBsJAGAgDYSAMnJaBHHwE7tPC/S6ni/EjJ91hIAyEgTAQBsJAGAgDYSAMhIHXMZCDjxx85OAjDISBMBAGwkAYCANhIAyEgTAQBsLAaRnIwUfgPi3cOVF93Ylqcp/ch4EwEAbCQBgIA2EgDISBMPAuDOTgIwcfOfgIA2EgDISBMBAGwkAYCANhIAyEgTBwWgZy8BG4Twv3u5wuxo+cdIeBMBAGwkAYCANhIAyEgTAQBl7HQA4+cvCRg48wEAbCQBgIA2EgDISBMBAGwkAYCAOnZSAHH4H7tHDnRPV1J6rJfXIfBsJAGAgDYSAMhIEwEAbCwLswkIOPHHzk4CMMhIEwEAbCQBgIA2EgDISBMBAGwsBpGcjBR+A+LdzvcroYP3LSHQbCQBgIA2EgDISBMBAGwkAYeB0DOfjIwUcOPsJAGAgDYSAMhIEwEAbCQBgIA2EgDJyWgRx8BO7Twp0T1dedqCb3yX0YCANhIAyEgTAQBsJAGAgD78JADj5y8JGDjzAQBsJAGAgDYSAMhIEwEAbCQBgIA6dlIAcfgfu0cL/L6WL8yEl3GAgDYSAMhIEwEAbCQBgIA2HgdQzk4CMHHzn4CANhIAyEgTAQBsJAGAgDYSAMhIEwcFoGcvARuE8Ld05UX3eimtwn92EgDISBMBAGwkAYCANhIAy8CwM5+MjBRw4+wkAYCANhIAyEgTAQBsJAGAgDYSAMnJaBHHwE7tPC/S6ni/EjJ91hIAyEgTAQBsJAGAgDYSAMhIHXMZCDjxx85OAjDISBMBAGwkAYCANhIAyEgTAQBsLAaRnIwUfgPi3cOVF93Ylqcp/ch4EwEAbCQBgIA2EgDISBMPAuDOTgIwcfOfgIA2EgDISBMBAGwkAYCANhIAyEgTBwWgZy8BG4Twv3u5wuxo+cdIeBMBAGwkAYCANhIAyEgTAQBl7HQA4+cvCRg48wEAbCQBgIA2EgDISBMBAGwkAYCAOnZSAHH4H7tHDnRPV1J6rJfXIfBsJAGAgDYSAMhIEwEAbCwLswkIOPEx58fPvtt3/9/vvvf/35559//frrr3999913f/3rX//665dffvn7+l3gix/ZCMNAGAgDYSAMhIEwEAbCQBgIA2Hg0Qzk4OOEBx/1sOOnn376648//vj7EOTf//53ft1xwno/epOI/jyIwsBzGfDgOnl/bt6T7+Q7DISBMBAGwsB5GcjBR74I5zAkDISBMHB3BviVGYet/PKMw9cff/zx7jbO+HLyww8//J2z5Ou8L15n5DYxhdcwEAauYYB3hJ9//vk/7wg8+66Rz9zwdgsDOfg48RceXpz50vHbb7+9bDNhI/Ovl/hyC6RujPxTnVvkXy3zzTff/OdXN/yzo1f445cpanBrHV7h96NswhJ54NdRj7JR9fLPz/zlFXYfxQF2WO/W+SN2yI16+OVYjefINbZZ+/4zO3Qdkftqc2TRHJN39rx75+EebHz2vZicuj7M973z/Ch91M/1+JF1fa1/93iGX2uT+ewb7pnff//93dfDNT7V/fvW3HMIbDwfee7cso4/upebK98p772XX8oNOX8W+7CGLWoFg8b+6ra+R7/j3nWphlP+iMPvJ7QfWReT/nv2PZPBe/p9ja5baniN/neZm4OPFx98sPB9GLLZXlr49WWA+WwWfLHuQLlIfeABdJ/j/aMfKPinDW0ebf3C7gv3u/0V1DwT3xQT9aJG1Nj2VQ/TS75O/p+xj7VAvagJL5HPirGuXWpR7bIP4NOl9V9ldte+JHU7O5lpzFx99EWL9bvbg7D9Ffn0i4T7NC/d7BOP3CNuZePd92IY8jmz4t7niPlezZvWwiv76uE5MTzbl488w2/11eel7fSec6vua+R8hsMWh5QfWZuuoXvs89euY9m/dS/3QIA8EMc1OTwy91JufBbx3H4UCx5wydw96nQk9qNz3Ld6Dd/l2Xmphrs4ie3SO8JO/hljz2DwljguPfeu0fmRGl5j55Vzc/Dx4oMPii9owrvb1OtcHnwTPMjzcPAFSRnaab52H/kSqI3J/qqPhxBy+m0cz/yyuvLN/ksPHGrgF2xfoF75ML2lDsZ6hlaGHv3lcpUrX1z6Wrv3wcfKzsqvVb9+9Ret1fyp/+iX+UtradJ9zz72Fb9MkD9rxBomhnvaQlff37ADl/e20/Xdwkb31XX0Tnsxcbq/Wbsauz7T0u/e/JEvslX/o659btRn4aNs7fSa292ce43xBaM/N5+xNib/+y+ypjlH+9zjWINHZVbzrl3HH9nLWefUw5qsfPpI/5HcuIYf8fx2nanbmD/y7PtIPibZVQ3NHWt0kntWn35cyzd1ZZ09y8+P2Hkkg7f65d5M/m/VodytNVT+M7Q5+HiDgw9BY8MF4N2vGphTX84nyJDnpa6O7TYW7PN55AugC7P6dOmalx/8rvO4f6dTYXJm/qqfXHMARa3qlwPm81DYHW51PR+5N+9Te+3D6SN+vIss/PS18UjffDmd8k+ftuEBjiorjt3Sahedt8grs3rRcvxI29fASma3llYy9+wnZ+QfP4ibl3xq9Kj9BhtdNy9/H63ZpZzcwsZn2IuJ272YGvY88OzszxP2gkccanXbH7n3mXGvvWHli1ysxt3DVuP36idealXjfWQO3ONW6441eS9GsEEeyfVH82W9Vn53/cZJ28cu3VML7E3r6pLs0fGjubnVF/O18mc6oNfWSubR/dbMtddba09duPb+0X6t9B+tYZfnWfusd+Ju+5Z7uXjkerjGL2t/D39ureE1/r56bg4+3ujgw02OLwoTGCw2Nr768+hp3jv2uWG/o29fyafU4bX/MShfvh79gnIvO+5Jt7wsf6V19ZlivRcbnynm+Hp537v0bLg0/llz/Mz1cM8vFdf6/e57+T1zM7F4Bn6/eg2nuqbv8t5+TY4evQ6v8eVRc7/UwYcb39Q+KsFH9Aoarb/m4JCjy/LXKf4S4nwefH3Ou96b83f176v4lTrc9yFxLTfXvqxeq9/597Lz7i9axpv2ONf3YiM5P57zd8+V7xQ8H1a+nvHZwV9I/WUXOVjFfq9+83yPd7dr1/G77+X3zE2vl7p3fHeZd7z/yjV8x3qc0SfXyj32qHfNTw4+3uD/ciFotPykmM25/wTaBzQ/1XX+Ckx+MsYhiYco6GNu/5kvhyt1Dnp3oCLvS4IPEGQ4jOGeMTbmSQfjyvgzMWV6rMoTB2PqZz7+9p+dmjPGzQm/ijG2SUYbtfXf8qKHT42lxskYNqd8VH1cI1f14gu1qT9Jm/RUe7u8dnved7vowK6xOY/Wvh5zH0MnfeSYufWnicRgP2Paq3O0U23DAvlhvuPUG1/rvHrtw9/59Z+GVRaqDvLNvO5jrXG1wTVjlT18RN489Pn13jVY4yJOmaw6qs/or3qqffwhDuarl/nTIalxYgeZWnv8qPxVe/3aXJsnWmOgrbmvssbvXGpFLHDivKp7WgPOm9opZ3XNY8u8HI2fedcy0n1jbzL38okv5q/OpzaVfWrKfWWjzq/XxFZziww5R1671Hyqs/5dwwa6yXnlEfuP2oupg3HQ4rPx9ziJ+f/+3//7j3w431YmXTvmW06Y95G8audIi51ae2Ikt3XPQg81oq/WmlxUn6u9o3qrTF97q7zbjyx25Ig8wkbVid/V5z4mR7WudU5/nqCLPFDDOs9r13i1yTU5Xsngo34YW23RXcfrGu45Y27VR07qfP1kDjaMm/Wjz7Tode6l1vyj07l1X8QOfshK3W+Zzz3jzCNO56nLFp86q6u9BZlpD8TX1bNCOz039tN+ZG/utao1tg7aYm6tOde9jjXHytdnD3Xs+6L6j7bEi13ZsEbWvPrU45tsXFvDSceRvaXX8BLfUy4n27u+Wi/yQu7QK9vkbMU286t8ZcNrbR9hkPh7zer+U+PFbl272qnt5B/xyBdxVXtVX7V1DafX1rD6+1muc/BRvpC/qmiCRssiYcGxaKs/bm4sPucLc53HQkCWD/MYQ6eLm8VQ53PtBuH8Pl7v0Y9/2MYnFh2LkwehG4WLsso5tpLpD0X11QdsfRmumwl2HNMX/OOa1nx2meqf124iU56IC1345HzzQb99tsTqfOpGv35SD+fRqufavFYdXmsXG8ZMay66r4wZNzlTj351PmTJebtaIUtszMVutW0+8Us/zU+dp53a1nnmlnH0IEsOnD/lA9aNq85VxhgdQ699PUfK2BIvuvm4pvCxPojsV8Z4yIV9trx0EhP5wgfyjQ/WjD7n2lpr9DIP23yMGZ3O3bXYwTay6ESOPmvOGDaqjin+mj/Xj7ppkXcNoLPqW12bM/3BP66tE7Gik/sevz6o+xZGlLXVH2zJpH29rpfsTXuodmprPYlzqjO+1PlcX8uGtabtcVEr1652jLnXRbv43GWUra12J77xA9vEXGXMR19fMokubTOH+ZM/6rkmr9WP3fXRfc/1TT7RR8zmpMfN+FG93TdiJBfkkw/XfhhzvuOwi33ra79+Oh9Zx+yzrb7aZ2uME29Tragn/fiE3+ihtYb2qd8WOcbcL/Cfez/Oc/8lXvtojQ+uVznp6xjd5AQZ4qNFr2uDsZrzaq9fK4POOmZ/zR/j2EE/ewIxM06fnJGvqgc/6OOjDXJmvpCv87lGtzbgtTKLX31+va+5qf2X9krG6/x+TRzqxjeu/dRcEw/jclx97/soc5hL/pAjtlpHcuY+0/25dI9dc6wvyJgH7VY9xEE/n95/bQ2rvNd1vRqXOag2zTP5mPLC3Jpz9KvnEh/6MrWuUfyc2Kavy1lvaiurrhGZJx7kzD16jJ8x5hFTZdAc0I/ebpc4kZvG6lxjUjfz9Rk/61z90F/HzO01nOr/NTXU3mdpc/AxbBbPLp6gCa2bXn1oupjxzfnTRqGsuoyFxcpC5NPH0DP1K9tb9bAI65iLsvczRxn8qwveB2WPhftpc9DX+kBAvznBjhuFvvlg7/2O19aNgk2n9nONPPrd+Bw3Nu9pmYP/2K79XPcNzXH19Pzt8qqsrXan3FUGnG/rht83VMbNOTk2B9arPhDVZWttfSElPvMKA/g4+SnD6lm15rG+lOBXz5+xde7t1yft2N9zYay9Xzlb/e/2GJfFPsY9+TGv6qLVH3JVXxpqPbmuMtasyxgDtur81bW2md/Xj2PYqPKr+Kk5eviwzqxfjcnxqm91bc66b7JF/9H4jaXXxf7OyOSTte1j8Fjrulujri/8rvtk1+m9de77qnqm/UeZo7lh/uSPeh61F/syj23jtZX9zqQ+9TrKZF8n7vd9z1DPNXnVt10rm1M+9VF5+MUP721dI3XdXKNXPb1Vb+/33vGeE/f5na/qsHXtdhn3p96PnM/BPsY9vvWa61fv1wfblbzj7gG09tmak86PvvZ+40auj1n/yY72ajv57broupEzDmzXdQM7xlFzpa/dH/v7urS/10f9vb/GwvVKXr8ZrzL2H9mbkTPGqsNruZvyRpzI1r1DX3su0edzoOZYO0daue15Rxb/sDmNTfHpZ59vf6/h5N81e4t68aXncsW3Mpf4mHyzTxaIp+6Lrgf8qfXz2TI9H60ffnX9tY8x7XYG1VF9URc+1ndW+2ur31NO0N3ryTxi7P6ZW8Y6j/rY+6vM0RpW3z/DdQ4+3vDgAxDrxuEidREJZl8UzgPoCT6/aPRFt1o0kw768I0PG2Kdo9/drypTNx/6V7FUvfXajaYvfPWwudb5XO8eFn2uD+kpPnT3jQB581F1+ULd/WSOMXRd6rkmr9Um19rtup2nDe9t9WnyVz6QZdOGI32Uqf7lB73yqM0qd8lP/dq1+ODmTf3xfar/SofMdF6JEZ87qys9td+YV2vQXGK7yq18YY616euWsRp/1aed/lBjjvWo81fX2qZ2fU5dK8Zj/OSwz+deXvAB37t/1/hmzqaaG//E8y02OiNTbNZislnnX2Jf/ngZr3LTtXH2ub44EWuXU6bnnnnX5EY2ery7ulyzF+MPtcWnHh9rYVpjxiaP6JDJqYb62nWpp9vd5bXnebq/VPtJpvfpW43xHnov1d7xvi+awym/yvQYVjLuDxOb1hGdPn/s6/Xr9nb3Uz7r/BXnzDE+/VEO/xnrOTHuyd+dHfXWtvuND6t3FOTUP70bdF3VznRt3HVsV7s6b3VtbnrO7jV/8lnd+o4P9tmam8qkvk7Pnmv3OO3Yuv/3dca4NaR1vu0uPufU9uj8a/YW83IN38ocrXuNwWvzcvQdaWfTek851p7tSo856/64L0y1VSdtfc5go45N1/rc5+rfNZwqc00NJ5/euS8HH2948FG/UHDNRlrBFcy+Ubj4e78ArsZXi0a53q42zJVfyN8i0+1ybwx9U9rZXslM+unzITg96LDT5abYzKljU9vr5Jyufxdbn6vdnh/nrWzscqTOKXYf0tMYNrXXx83xyk/9vdT64osffPoL6E5+yqv68Hsnuxozj722zl/lcvJFGXVOuVrpW/Wj05qof9fubCPHvoQ+HvTc+8Bfxa++1fg1vu1ydq/4dzZ63viSrP+8NJCLiUd9m+qJzkvj1a5z8bP2c60vvf8Wma6De2vZ49jlbCUz6adPnuqXNXLKWu92mT/Fpk3zsWqrD5Mex5X3/pr2Hvve5Ns99F6KazW+q/e1Ms6feCbPfVw+yMk1dahzp3zWcfmZeNOfOp/rVU5W/cjs7HT93Fe/eW6xF9d10mV2+quuLjfdT3FfeheY9NS+XW7qPK+vnT/5rC7Hdm2t/872Ls/aW7XqxY9pzk63vk9yU9/R+dfsLfo/rceV7zuZye+pb6WbuRPbvufBbNfnOw1+9bF+v/Ldg4uu/9Iarfo5NLFGxFC/j9R5XE8x0r/yj7FVzm6R6f68+30OPt7w4ANoPDXmwc7iqdCvwBTkadOpoPfx1aJZweti7OMrv5h3iwwvuMTPxutmpB5irfZ3ts1Ll6ny9dovMDVP+FDv63x9qn3X5hTZSQ/9u9iqTa61u4p1ZWOXI3XiR7envmmMuatxda787HZ29/pOjXbzWEOsK23rG/fKmWvG7Lum1Zeqs8pru+dLu5OcOqdcrfSt+vHFuKtfq+udbWS0o2/On+Jg/qXxa3zb5Uy/ep7xYWfjCCOrXNGPPW1jh73b3CjneO8/Ou48WnVdE+ctMq/ai7FrHrkmZp+J3l/Kh8yt8l3lvb4lR8ruWvUe9YUXaOYix2Ga7NLWml+rd/JR3dMYfatx/GAMH7rstTLOr7FVnX3c2k62q9zu2tytbGpjqpn+dP2rnKz6kd/Z6fq51299oN09A3f61TXlgD6+hDGH/azaq37ZP+mo81bXu9wgyICkAgAAIABJREFU89G9Wf8m+7uxaf7O112eJ121T734U/u93unexYDeIzXUTm1lA9u1f7rWf2T6+Mr3nUzXsbpf6Wa+/mOnytvPO6HPkksHqdcwyFqkJv5q0Dg5dKl+7K6xV/d9rtVX5Yylx6jNe9Vjl+fqz7tff6mDj3cthnBWaP3yzYOGjwuTGJzfYRbK3m/cq/HVolGut6sNduUX8tfKsOCJG9/IhT8NMwba6tfO9kqmyvdrH/DY9fS21qfOn2Izp93PKtevJz3M2cXWdVyyu7Kxy5E6p/jVN43h22pcndfkp8fKPQ8ROcHWpI85PDD4wJUPnimv9qFrsnepzzwS3zTXuHu+tDvJqXOKbaVv1Y9P1mTyr/ftbDNXO+SVe+dPcRwZv8a3Xc70q+cZHyYb1zCCjksf9gwPr7FXa6dvta/quzQ+zT0aJ7LqPyrz6r3YF0gZYx1fyl2N7RKTNZ9eX5sj5S616l35X+X9ix8cEY/vAOqoMdp3RG+1Ua+ndXFkHD+QxYc6n+uVzpWM82tsVWcfv6W2VR/X5m5lUxtTbvWn61zFt+pHfmen6+9+s9/4xyF4mebv9E85gDf6eb4iW/MzxW1fnTf5sepb5eZee7P+TfYdO+r7yld07/I82a596sWf2u/1TrcxOJf22hpWWa9lA9v2rVr9R6bPWfm+k+k6Vvcr3czXf+xUeXLje6G5Yw2hy73W+bcwyPMKvR5Gsi6nvGhj1+K7caCzx+JY7+ee+ZPdVc5ukdn5/o5jOfg48BL76MIJWofWL9/9Qeb8DnM9LJl8Rg+LAODr+GrR1Dn1Gh18ah/XK78Yu0bGgwY2pW7jWYvVl05OgD0p7754P8WmfK+dMlM76WHeLq9dj3bdbOs4m/nKxiqvyO/48GWLPFVbXFtHbPaxnZ997uqeeLCPbR9i2OrrCI7ox5+qa8przZEHJFXm0vWlNWi+uo+TL9q6pTa7mq0Y0F5ttU29ar/X7lHm6lL8qz1Ifdf4tsvZtfFfw4i+Hml9+cEf519iX186I8rX9to4kb1GxjX8yr1YptjTuIY51mnNg9dTbMpPMSjX20mPc65hVBnbS7V3ntxMz4/Jt6N61T+1l+Jaje/W4UrG+Iil+uL+ePR5Ym1houq55nrKZ5V3D6St/Vyv4lvlZNWPrp2dbpf77jdrwv2Y/HaZnf6uC1n36knXFPeudt2X6X6VG/fDI8/vSa99k8+O6fsUq3Nqu/KVObs8Vx3T9aX3D9f5URavreHkkzand8o+/5a87GS6/tX9LucT2+ghN1MeJxu3Muh65P0I/oh10n+0z3p2v1cx7nK7ytktMkf9f5d5Ofh444MPN5y+4fuwB/YKUn3wMWc11vWtFk2Vr9erB8huwVwjs9JDfG5AfeGvZPB7tcBrTP3ajQp7bF67B+IUm/4w5pfCaoPxes/1pId+dfV6d3nuZWOy66bJWJc1R8ypY37xQWbymRdUxshTleN6pZMxY5r8pM6Tra6ffFR/1Um90OF8bPDx3pYHOf09r66H6UHf15W6bLGrvf7yDkOO9fj0vfuCXvNIqx1bfe36Vv3I6YM6dq22eTHs8/S5196HfV8z5Maxvgep+xrftD/l7Nr4V3ZXjOivrb70te76qT46F5uVU3Q51nOqnd5eGyfy18joT/UfHfiNj8TQuVzJICdPXabH1e/lBg7rmu/zptgqd31NIk/Neh0mPdqaWHEf7HlSxtbcoKOzgg+MM3eVJ2S071zmH9WrH1M76a3r1PEuq+0pdmXqvolO2ekyxj3tN47V+l+qbbXb/fbeWlcma9zarePKGp/3tqucrPqR29lRb231G532w4drpce+0z/pmvqwI+vErl1a9VPbvp7wq+a0ynm9ys0qx0f3ZvWrp+ZLn3a+I19lvEcfOVK/rbpo7avr1r5V6yFMf/+ota261WN83tNeW8Mq67V1QT8+2E9b9yzunXs0LzsZOZt0VR+4nnLunCkH+jnlUbnaTrll/BKDfodjTfCpOnfX+MU67nN8h+x+TzEia5xTDlc5u0XGPQfZ7vM73ufg4w0OPoS5f1FYAVMXU5+jLkAUQjZ3N9PJhou6Pyi7bu5dFMj0h5u2+0sL9rXhg0bd2GSsLvI6n8WJTXSj18VKDtRBa3+3zRgvStjoMlV+ujZnuw1rlw/tEhvX+IgP6rU+2N7pWeV18pk+9WMXe9ilDz3EQi76A8wHc+UGn5B1U0W+24QB7RGjTPjQYsy+Ljvlhz58mDbqKq9s162v1a4x85AiJphjXvWx6q4vGOghB+aQ3NW6VTmvyTnz+OAnstjmWr+x7Xxa5jAfe7Wfa2Oa+DW2vnbt7zUjX/rWGeh2q1/I4KP5JgfUiU/XI6+VpUt7ELbQqW/amXyyb5cz8qjPzqet8de9yHwdZaTq5FrfsWs+sLWqt/3M149dTrs9781Xr3/dQ3sujfUIG1UP+cZH5PDb/Hcu7WeOftoad5dxfNXWNWW+prmrfMgk49QYH/m4triu+lZ6aj5qXq0/+qqe6docsD64xjYt98rrL31co19/le81t3+nd/LHPvJC3Mhji3trWOPu+ccP5dRlW3VSQz7w597LtXNpySk20Uc85tj5jNmnnLlCxtpqh1j6fOVs1Y28PiJnnDLCmDK01hy5bkOfzJ9y9ve4GUe/MTh/167WsTaIwb0IPfJB2/Wa8/pccj5j1Jh46ePj/Bo31/bjG/HIEXFx3e3We/3uuTFOaosP+EJNrBs2q57VdWVRv5Rd+U6s2O8cIU9Myleb5q3zwnw+de507XpiLnFiC501ZmKpsisW9QU/j9Sw6qzX6iEPXOsT9/jl3FUNGV/xvcqlMVX92uktc8hXzznz5If4lWNdWI+pNV/OV8e1DFY75EZ9l1pzQq7dh2jxC3/rukaXMdQY6VfPNZzeUkPzT80uxfYO4zn4ePHBB2CyeQAuLfc7MARZ0AHahaEc8LnJq9cF6xxbF5Lz+sJxHi2LzQ2A+VxrGznjYMzN6hqZGgv69A29bAA8nFyU2DBX9E228bnnS5ka1+raB+tqw9rFpk5kjcOc1c2MeTs9q7yqf2rJEzbMCbVwQ8IH/ei1xlfrS2vcbmrom/KHPfprnFzTx9jko33M0SZ+IVdfvpxXW/1hfn0BQM6YjRE58lvXA9f0wS7z+MirdroMeskp/c7ZtTWuS7kkz9Xv6osvC/qJXu3WPCBvPWsdaj/x1lxzrYw6e4s99OFjt9c5rrLuQcZFu9qDkCOv3Tf3lqrX613Oaq2xa86m+K1nr/cRRvSFFt3ko+ZerlxHdT7X9Nf5xL/LaZevspfqbC6vkZENWuWwg4/P3oupD/nEds+D9/rIvJoPx2XStcScicmVnokf80ot0Ys+7e3auj8gh82+79U5sCHH5GAVY5VZ6V35RU1d47XOu7UJG8zFlvbMCXbQWdej7FCLncwUB32r50llFL3ki71zNb/noO6zrn3m1H70WoNrcuJ+vtuz0Gs+aC9x1Bmte8zk89RnDqw5dqmlMZI76mV9seme4F5N2+tdZYxFOW32tucGW8756N6sHuIx1sp3HSd2Y8N3/KCvctR9tb7o6XU0l+TI/Gpv11aerQk+VP0ysmPxlhqu/MJ2z03ds67Ji77vZBiTn5VP9F/DduXQfRQbqw+5xcZHGIQh8raLoY/5rKr5hgPyxlidj379Z44x7nJbOUJWTq+RsYb4op/mq/r3jtc5+Hjxwcc7QhGfLv/HC5Oj5CgMhIEwEAZgwJdvXzrDRbgIA2FABtgX+ILJPmFf2j0fj9xTqQeHBPXgxnpwSOVhggcCjt3ScihwDz232H6GDIdrsE3OnmHvHjZy8JGDj08D6z2Aj479wyb5SX7CQBgIA8cZ4MWPl2j+gpi8Hc9bcpVcfRUG+FUIXwzZK75KzB+J89F7KocR7NkrH/1FxEcPLPwFxZnrTo7I5Wf5tQc1z8FHDj6Wi3+1KaQ/LywrBvzJXf853mp++v9/lnzQ1p/NJjdZZ2Hg/Rlg7eYvuY+pU54nj8lr9pXn5ZV3IZ7rj/zyiw3Xyhlq++g9lVztDj78tcm177EcdOA7NaDeX+HXHhzofaZDD2qTg48cfOTgIwzcjQEfvtc+MM7wsP5IDDn4eN6L6EfqFNnUKQw8j4E8T56X63D9eXN9toOPR7PowQb/nYr6pZ1/5uK72C2/4EOWAxVaf+Xz6Fii//p1m4OPfOm925feLMDrF2BylpyFgTAQBsJAGAgDYSAMhIHnMMCvMzic4KDCA1aup/+A6NGa8N8MURcHJ4/8lc9RnzLvnzzl4CMHHzn4CANhIAyEgTAQBsJAGAgDYSAMhIEwcFoGcvARuE8Ld046/3nSmZwkJ2EgDISBMBAGwkAYCANhIAx8NQZy8JGDjxx8hIEwEAbCQBgIA2EgDISBMBAGwkAYOC0DOfgI3KeF+6udYibenNyHgTAQBsJAGAgDYSAMhIEwEAb+yUAOPnLwkYOPMBAGwkAYCANhIAyEgTAQBsJAGAgDp2UgBx+B+7Rw56TznyedyUlyEgbCQBgIA2EgDISBMBAGwsBXYyAHHzn4yMFHGAgDYSAMhIEwEAbCQBgIA2EgDISB0zKQg4/AfVq4v9opZuLNyX0YCANhIAyEgTAQBsJAGAgDYeCfDOTgIwcfOfgIA2EgDISBMBAGwkAYCANhIAyEgTBwWgZy8BG4Twt3Tjr/edKZnCQnYSAMhIEwEAbCQBgIA2EgDHw1BnLwkYOPHHyEgTAQBsJAGAgDYSAMhIEwEAbCQBg4LQM5+Ajcp4X7q51iJt6c3IeBMBAGwkAYCANhIAyEgTAQBv7JQA4+cvCRg48wEAbCQBgIA2EgDISBMBAGwkAYCAOnZSAHH4H7tHDnpPOfJ53JSXISBsJAGAgDYSAMhIEwEAbCwFdjIAcfOfjIwUcYCANhIAyEgTAQBsJAGAgDYSAMhIHTMpCDj8B9Wri/2ilm4s3JfRgIA2EgDISBMBAGwkAYCANh4J8M5OAjBx85+AgDYSAMhIEwEAbCQBgIA2EgDISBMHBaBnLwEbhPC3dOOv950pmcJCdhIAyEgTAQBsJAGAgDYSAMfDUGcvBxooOP33///a8///wzBxknqulX25B+/PHHvxn+97//HY7DcRgIA2EgDISBMBAGwkAYCAN3YSAHHycB6Ycffvj7CyNfHL/al+XEe64T619++eWvP/74469//etfYfkk+1PW6LnWaOqZeoaBMBAGwkAYCAOfjYEcfHzSLxZ8OeTXHT/99NPfXw5//fXXv37++eebvygiiz4+6LoFZP5K/xH5W2xOMvhvLOZnmpe+99ywOfDg10vW7rfffvu7no8+1As3r+fh22+//ct6s4a/++67q/ciD4Fh6LMenpkD18Cr96p3Wxs8azgcXT1v4MZnwC0MvTrf97J/KU/X2PEd4db3g2tsZe5992KfqayJZ+4pH903eB64zrn+jFy8y3vxlDuelRMP+MzYJPPsvo++ExAf3PNM/azvA1POfb5N9Zvm2/fRfKrnM7c5+PiEBx/+cwAfKt9///1dFrUbxPRi4yJbvUT6ZUOfrl2M915EvqS92o8a17vkpvr0rtdszhzu+eLur0C++eabhz6M35Gbd63Ryi/WnC+r7BvsT30udfSf5jGn7zmOrfabrs97uMG2vNA69g5t/UK+8kcG3S+uzcFK70f79euaPZW5U30/6gvy9Zkz6fMLBzw8et+Y7F/qY108KjfV9qU81bmra3WQy2k9r+TSf98DjFvz6UHqK7783bJvECdfUvHXzzseZLtHr/ZE182lebfW9aNyrGXy2vXQx7O097/y/tZ3AvZ++X+394GP5BO2fM+6ZU++NZ8f8fldZHPw8ckOPtiMeFkCeiDiocKivgdQvpT3LyHoxiaf6SXcLxv4wlw3+2nuPfw8osMX7tUD6YiOe8955MOPlwT1w4N8ED9fAO4dyzP0+cXAWIhrYvOevrwjN/eMT12P5sU9gD2DB+zqLy2MT/uXLF+zh2ADW+5D7kuP/qWQOT3SuscS9zTfvMk8sfBys8rfpONRfbesDWUesW7N5U63+YSxd8ihtcEXX1p3/jv/I+2RPO30+85BDrnezT3zGCxTMz5cU0O/VL0TW70G7CHsN+6LffzR9+4BtNfY4kuq65b8cv1uX1x9Tk2x+fwx7+5F1zzTrsnXrXPJqz6SZ64fvSfd4qu5viV/xAU7rIOpVrf48w4yMsaedO3efEs+6x8TyCN5xe478rKrTw4+PtnBB7D1L7Is6Fs2A1+I2AymT90gmMsH0DtQ+OPG6RibfPfTsXu0+l59rHrpf7dNjg0Cvx/x10dy7ZclWk9z2ZCmmtVcvet1jQkfiYN4HpE/c/CO3OgbLUzf4yFTc/sIXlyffrlb7QWreIiRMfTU+HfXHJT1fejdHsowTEyruHgJdR0bKzHd8hcd5e/V3rI2WKvEeu1L2RGf0bvip8rLwDvtgzyzXRv3WM813n59NE9dznvk8fed8qdvz2prDmCaNQl7PGdftTbdIy/lAF/7nnJJ5p7jt+4bxFeZ45q+Rz7/r417907HM68/j6jD6ll4re17zSevHgrAND7XvN/Lzkf1yDtr8VZdsMjnVvl3lHNdXPuMvTaf7HM+B9wP3QOvtf3qPObg45MdfDwSGGA+8iL5SB+O6r70ML00ftRO5r3HT3WfVYd35uYzrU99NZ/sK9PDcbXfXPtQfhYfX9mOtaR9hzzIGKy8gz9HfeAFEu75ErTi/6iuI/M+a56OxPaV58AOn3fPwbvtG++er/g3v3PmnWDOy628fOV85uAjBx//eXB+phckF+3qJTwP2/tukrdurp9N7p250bfP8EXPvYTWvyZNfq+++Lm+kf9sDJ3VX/mjfYcYZWzi6h38m3zgr3P+U4ln+f8sO1O86XvMc9ia5uDjMfkNt++X17wT3LcmXzmfOfh4g4MP/hLKlwN/+srDjJ9Q0tc3YB54dS4y3NPf5+7u+WsTP6vGVrXHdX2RxDf/2QRjkx1e5ngZrvPQUX8COunhJ4v4rg9HfmLXZZS11b/+ks69+SXu6a/P5Ova/DIfv3vsXX/N9TVfHMihG5Qxcu9/twDb9ne9/KTSMfNCjLXfWqPPGGhr7SpH2KixqL+2df50DS89Z9iEhfoz1ltzi35itN7E2Osx+UUf8RFLzaV9xlhl65i5xG/mEiN5rX5UWdagY9VeneN1rZl+2CJLvawf/cgRMz45jz6vabvNOiYvyte66NOuNQe0yBonMVc5fDZvtV+7yMuL/sEJfXU+1/SRb2WZj90eZ807c5DFjlxPMt0W93XvQk+1U/UxRv0mu10vuYIb80WLncrvpKfaO+p/tY1+7GgXn8kHvjiP+Gqc3DufudVHZCqzU42JlTnmHd27vUc/bIkZmUn3vVjAn8rspZj1bdWSY+JlfOf/JD/l88i+3e3UvaLHV+2SQ+Kt9eGavr7+6hzH8Vc+iFuZui8xzrxq95rrur/CAnaUhy/u6XeMPsd7O60B8lN19ji7jkv3rCf9IXZypUxdw8xZ5aWvf/XR1rXw0fWlX7a38keM+GastHJBPvu+oT3iJPfORQf5kyPmIUuNzAE57HXvMuqvLRypg7bnceLoEguun+ofevu7VdeDXF07yKxyZAzEXfOEzcp6rR32mK/sM/OMTzVe/CBeaqT/3T/9JA/UpspYM+pTuVCGlvmVI+xwX3PAvL6ulNVf5GS46ud62jv0zXaS7fnARuWj+sQY99o+UjfnTm3Np+OVE/zG5v/7f//vv9YY+TjKlnrfrc3Bx4sPPlgwAAaEwsSCBDj6KzCATl8Fr86tC6bK9WsfvvWBgB43aHzpMvrTNws2G/xh3LG6mLtP6vGBxUKrmzzX3Xa9xx52agzc+3HzY5MhV+jDP+bTZ4z4UfVyfW1+1cVDE3ls6xdjXb8Pz2kD7HO5x3djQHfVX2u000vs6LA22vFBjy/4jD6uaZlPfuRRGWPDL/1BxvnWwPlTi050kx99opUL+27NLbxN9aZv8qf3GQ9tHbOfWGs/1+bFmuAD89Rhrh2v8tbYuXWsXpMX9RAL936sk3sJ41ybU3zRb+aa226zylgHdClb/bl0jTxy6jF/+AQ7ypOTKS/0IU/M+Eue+BgTzKuD9tLaZbzON1fYYQwb+Ggtsd33rirvtbnEN/ts5QCd9ml3yqn5J+fWlPwRMx/70KWej/qPLv1ElzZkrfppDYkVH4mLPnOAj8Zpqx5020drnmnlwbnY1I8q069lrOu+Fwvuq/iDLez0mIm9+7W6N8+uiZX/K3n6zZGs4hPXtPjZOUGm2sH/LoMcPFW71MS1j03G6LNujNX5XJsv4qx84BM2GKc2jOk//Xz6+mScfnztdvq9cyefmHtET11Pskfe9L3aNE7s1v6j19Zq2jOs1U43vjqP2Lj2Yx2tE+2t62uK5xb+rM/RfYMYyDsf4sIPakJ9iZeYum/WCVnWJLb42D/luuswZxNH5BDbfb2vWHD9rGJgjVT76ulrx7118qnKc+2+h5/WvM4xf/L9qjzjk77Ak/WCE+MlBlk2BtdNlak1JofOtTUn2DNumJKLXgdsYhtbyOIPfskGY5MM+pgrr3LIfHykX/v6Zks/8ybdzEGeMffIW+qmrdqaT312zP66dzBHHye2kCEH05h636nNwceLDz5cUB0+F6ywsDgAa4LLudOY8rYsWgAGVPts1TONuRi6n31RqssNhM3APlr1sBHVRaLtPr/K1msfprS132vH64bBGDZdwDWWW/K7yqP6yYH+0OrTyuc6142m10L/a/9Or/musWJH/T0/jFGD3r+qZ53fbdR4vF75I0fquDW3rIGa9/pQ4Vo/Vu0ul9a1y5pLYsNGj7GOd9mdvT53p8e5+Ej9WF/m0j3GOTub1XfXJH3KHm31VR+QkytqrR50T/r1o9fT/Ys41UFrTNVe7Z9eiqwn+am6zFfvr3O89ovApN/8de60qw5bXwb7fG10f9TT+6/xn/2EHE/PDv3RP3OMXWKz3z2J/p5/Oeg15n6yad2JWf2rdqVbP7sv9k+1WuVSf66JefLXPFf2V/5P8vYp0/1h3PVVa0N/lemsWGNyow1a9+PeX+30MfPb12y1jz1yoS3tdD7U1fuVqy3rhXxgt/Zz7XOrf1np81wz+FrHXMO1T996/HXO7lqdE4eu9ZqjlS6ZncbJ20fX16S31rJztuLPfHVmV/uGNnp+7Z/q7DrtfJlrfJviqX2yMumXsR6zsXVf5brP10b3Rz3Y/sj7C/LkueowRmzW9W8+u+/2T3m4R57xRz093jrW18dKZvVOQM3Qz6evJ7mYxlxXNVf45R7R+/Gzs818beA397uPOqbnHvYqL9bnmrpNts0n+hyX8x4j4/iwYos81meb+t61zcHHBSAfXTgXE+D3xVlt+0CcgGQe4AHlpQe8C6xvyOhwQU0LdVok1W711Ws3EBaTferpfrrgkHHurvVB0Re/Mo5P+dKHuuDvlV/sT/rp16eVz/pOu6tTnXdJ78oXa82LQtcnk9VP56Ovz9dGnd/ncL966E9zV33aqrVjrrmdNl837C4z2VDPFIs8dzlz4zg5revL8Sl3O3srO5Me5+rDLtadTfOLHvaUS/uSdntrzNUP+9Dtixn2pnj0o+ZRG8bo/a7V5mRDPX3fveaFpb68dz1wMO0/2q1+uzYmP42hvvwgq55u9xr/L+171Ue5mWKyXrXeyOr7FFfV7bU2aO1btdfq3s1f5VJ/Jv9XMU/+so6oX63Vzp9JB33KHN23q0znhzHj6/n2faI+u/VJZroP6pr2YPOL/+qpvvX8qqv3V9l67fOyv1fA6hR3leXaZ96R/U7fes66zt29+a08MB9fp/U16TKn09iq76O+38KfNqe4rllDxLSKWT29/te+V8I0NroemJ44MrbOgvWd6mAMdW2pZ1o72EWmr51JN/LM7XqIh/5qc5K3Tx+9t71XntUzPd/1FR+0S7uTmfx1n5q4Q5816rVWV1+bq+eqfvX6uFZ6HDUmr42576n4gPyUJ2Vrq++1b3Xd/cYW9lf5Mp+dLfNylK2VP8/sz8HHiw8+gMUFSAtUE0BC2jdYYbk07jwXRl+kjLtQ0eV8W/VXOeerc9VWmUmPNpT3ftf6oFjlYzc++WDfSt+l8eqrc2vcjO98qvJcy0TX0edd0rvyxdox3nVOfvrFDL/6fF8WLvnqxjnZ7DpX96t4Jp/VsZJxvLY7PSs+d7lE9258Z6/6dUmPc1c+Ok67s3lNrqrOfm3MnQm/oMgArddVx86PIzGqSz8mGys9Oxn11taY6suJOnr8yE12rYljq7badU7t41rbU8x9rr5jv4/1e32c5q7qdY0v2NvZ6P5cq3s3f5XLnT+rmLufvtT2F+zuD8/+/lLZdXWZOr7y9VoZ55OTqt/r1fjKPnKr/KrrCKvan1pfvuHZ8Wu+NBx9D0P3Lk5tX2r5ckFOeCY6V06m9z/n1HaV0zqnX3/U9129VrpX/fh2dA0ZxyrmnZ6VjDpr6ztK/fIHR7z3EEedy/UUmznS7qplnvomPY7tYnOOre9p/ZAGHXycd6nV5z5v58tKpuvgfqfHGNBXZXcyk23nT3WrPvTxSRfzrSt6q18+Q+taZtz13OdX2XrtO39d//hGPwzWuavrle/TfPNDXOR8d+iBPH6hv38HuCQ32X51Xw4+XnzwIVA+CAWX+wq7kPZFKkCXxp2n/rrpOrZa2Iyrv8rt5quzt5Me5+ib97uWPDB/lY/d+OSDfSt9q3E2A2QY92TeOGquiGXnU491paPPu6RXv7svu9qt/FRXZdMXBcYm32qfeo/MRe5eudXvnoPqm9f6SGufrTXx3naXS+bsxnf21G+70+OclY+O0+5sXpOrqrNf6yttHaOmPuD5soK9iYedH7sY0Qmfyjt3suFY9Y9rfZ9k+lzupxccXoZW8pPdXU2HYA0lAAAgAElEQVQmm/RNeui/xn/zNPHe7e58VE+v984Xnm/sH+TKw1NjOuLPTje+34OFW2LueTM3xrZrL8W9i3nl67UyzsfPHgv3q/GVfWSMuetT12qt9Pm7e/cV35vwp7+k7+TZmy69hyG/i3Onv4755Q7u7ScH9eDG/lW7yqnzP7q+1FPbXb1WeVn1o9e1gd5qh2v6OAhkjrVdxbzTs5Lp9rgnZ8zHnhyxR9X7KjfFtstRla3Xkx7Hd7E5p7bupeZU1ryvc7l+RZ4vxTTVbCezm09ue8zcq6+PT7rME2PIVX3WG0bMMXtJr0OVma5hHf3VH3TW+yp3Td2qnNfGb7y0l/YfxpnnIb6xw5h6P0Obg483OPgQFDZaIAd24KoLTEhXi+DSuDaE3AVqP60QV7uOq7/KOR+dzrvUTnqU0Tfvdy15YP4qH7vxyQf7VvqmcTcqXpbIhQ9K59ZcEcvOpx6rueg6+rxLele+WDvGu86Vn8TH4U494GFzZ76xd131Xr2TzTqP63vmdpWDbpN7faTt49ak9+9yydzd+M7etXaYv/Kx6trZvCZXVWe/NmbaPqZ9OMLexMPOjylGHryyyRdeH8T6MdmY9ODrTqbH4r17Ni88fNA9xc78ya45mfzURm8nPcy5xn/zjP2uv9/r4zRXPT3mlS/UiJwhx0sUOcPezkb3Z6X7nizs/FnF3P1c3a/8X82nfyez8vVaGefD1+TLanxlHx33YHXypfZ5aOFfXtkP8KnOOXK9ew9DfhfnEf3O8TkKr5f2DGVqu8opc+6xvqotr6097Ntnu8rLqh+5aQ2Rf/r90odNbaxinvRcknG8t365I4eM7TiaYjNHq/XT7XE/6XHeLjbn1NY/RrEe6KdFR53D9SvzvIsJv6Y672R288ltj5179fXxSRfzreuUS3LuekYeduGosjv5UPvYB5BFD/2uYfJR591StyrvtfHjI/uPBzVy47za4hM+ekCyYqvKvON1Dj7e6OBDQHwIAph9fhEUOPttXXSXFppw+3KgPO30l0vH6yKxr25Qvrg6tmonPc4l3hqz/VO7e1Awfzc++XBtft0Apk1i0n/Jpx7jrk597i7WFRe7TXylj1gZ6/aP3ssXD4WdzL1zu6rH5MMqduau+NzlErndODlF75G87vQYy8pHx2l3MV6Tq6qzX+srbR/jXi7xF5t9zs6PKUb19X1IPyYbkx782Ml0P713/2Bf5Xqy59zJrmuDOJx3qZ30IHON//q9eq5UH27hZvLF59sU685G9WUX5z1Z2PmzY7T7Ot1PuZnm1b6dzMrXa2Xqc90DxOqD+3NnfGUf2XuwWn2Yrv3iwLMTH3nO9C8Nk9yqT07xvc7ZxVnnXbr2Cypr8JYvEKuc6vdH19fk/7UsoWOXr2kN+Uykht2HVcyTHmVXMo731r2YPZHrHUdTbHX99OdRt+X9pMexXWzOqa329Zv4qVudw/Ur87yLScY6vzuZqcaXnm0+J3puJl3kS7/wo+aSfQddH9lr1Od7Pzq5hgvHbG+pm7K17fnEf5gh/mntKesc99ueP+e9c5uDjxcffADZdAjhohQeFx3z+wJzrG8UytbWzaAvVHS66PrCRr4vEnXaP704o5PF4dydHsZWG06V99oHRfUVe+bG8Wnj0Oe6YM3h0fyu9LsZoKfqx++VjDHV1rm9TszBRn2gOpf6TTomX4y35k9Z9dHa5/za59jRltq4aU7M85KBrsk+/bfmdqr3yueVbebLZ809/T6Iplwybu46W7X/SF6d7wuNMVR/9NGxqTVG/K7j6FEeW3WMa/O4irPO19dJD/Mcx96kT1uTvD5We1Mf4+xLKxsrGX2b/Ko267Vssl6pz+7FYbJ7aW2g371Nu5Mexq7x37nowoa6abFX8y83E6ureqm/5nLq0x75w5fJRvWN65WeVV5uYeGWmLufq/uV/6v5u5gZW/m6s7OSsZ68L3R/HOuMr3Qhv6rJyjd1VW66H9O97zBw1Pe3ab59+Dc9k+TRebT6Rlv75av31zn1mvWFXfaLS3tGlfPanJJD+9jDVznFnvFUH9270KeeVbvSzfxVXlb9yMhSjWHqY64HRZOfKxnkzBPXRz/UAzl42nG0ik1/jr4Xr/Tgr7pqji7FIYv4T82n+Su9z8iztqf9xe8o5KT6rcyUh6nGsspYf3Y6NuVm0oUfyuBH9ws99T2sjl9zbe7dxyadqzwoi/9HbE562Atk3/fxrsv6EPOUvz7/He9z8HHFZviIAgIpoFXIBLhvmn7BYlG4IFiMyPPpL66Tv8gJNtCyuQAyOvFBf7qsm0H1kzl1oaADfXzwHTt9k1jpwS/H+ibVfdGu87GFTezpn7maHlpuKuS56lbmSH556cM+NrmmDvhAvOrRF2240UybvXNsyYF+UidkzCt2uXZufXHBRvVDm6uXVGyox1b/q5/VhnmvLXp6vOqrrXlD1rphhxjJJXE75165RTf2jvhn7LTVb67xFz2M4Scfcu16xU6X8Z5YkGUOMuggZ8SuTufuWvUgix51IOODGX34ttJjLdGFjLJyg3znhTmyRLvSbb81nPQ4x3xO+qxZlycu/ONDHOpyPjqJiVqj19qQJ+fS7nKl712myk/XzMevHQdH7KLDtVFrwrV2j+g56r/MwwPX2KHlvtbGebT6YWvsfU9FF/FUX+pezzixkHPmOL/uPdrorXXq+b4nC67Pmgf9MObOqOOXWnXX3FySMT+TjPXpuVvlCVv6AG/VNmvLvcaasva0MTFAjqh1t1/XLLWudlin05oxzinvVb5fu97R6TtSnzPdM5946zNCXT03qzj1mXayMfWhe4p/mtv7lMVvbHIPF7esL3zg0230e2O8hr8dM+jBroxhz/mMUQ+YoY+P8/vzTf9r/dBVc9Flemz13nWB3h1HKxbq+sFn8maN+r6K3ZUextzPemzV337NXHOy2p9emWfjXa05ctbrZR56PHV/qe8E5KTGaB3hCbt8+nzGzFu37z6KbzXfrkPlaosNfOi6qny9rrEgV8e8rjEdXR/K1naVT+Oc8oM8OTPGXouq/52vc/Dx4oMPNlg3AWFyo5wWC6Ax7lzgZSG4qI/ABrh1sSpfFz021FntsRj6Bsw8dDCmX8TUF8VKD/IuQuS51vYuHvRrE936VR9a6OOBo56aa2TrGHOuyS+y+k2rLjemmqudT/rWW+rf80rdjLPOx+/qi3OMt8Za80Z+mKMuYrCGPXfGVcf7dX+QqLe2+FZZwG/yU3m/V26NHz9rPao/Xvcace8YLf5ds26qLHkx5lqLmm90V5npGj21zjJX+4mVOaznSQd9nRfu6Tdf1Ud1OFZ5cay2+IS8OdfHOodr1jjzuj7zpLwsT/uEY8Rfa8M1fcigh492ply536BP36tM932694uSuexzdnadS81qHPjCfa3lTs+t/lMjuSJualC/jPS1UWsqF8jhr2O7fQY/rTMy7C2sL2TQw0c95qa2XTe6HCc/NYe3soD9ygJ6tNFjXtXc+b1Ft3HSVv/7XO97zPLMeNdn7q6RqfGhkzXRnz/YnGJd8YEO60ycMOaa7azWHBhPjdE87FoYwg5+7+b1MfyvNbUm+FGfS6s40efzsa6bbqffkwNsTTntc/s9fulzXUPMu2Z9uUeio9uo99ewJH+7fOk78WNbGeKq3MGFzLhH0bpnV77Q41zGnY+NKlPjmq7ZQ5DZcbSLDZ3Yr3Ggj5h7rXd6eo6MbfK595ELYu793r8yz8bFnlPrh799zeFvnXOpxj1H5LvKY4O6yI/5uPW5ihw+Ud/Vp++t2pxa5qKn++fca+umXG1rPvC9MrnjUR3I79hy3ru2Ofh48cHHu4IRv47/LPIr5IqHCRvk9FLHBu1G6svLV8hJYswaCQNhIAy8DwM8i/jSUA8Kn1UfnoE8I1dfWCY/PEzgy8w0/ow+nu3kjC88z7AXG++zXl5VCw8+XrFO7x0zsXAIMK1h/xjC+rq33Vfq84DqlT58xHYOPnLwcaoF+ZHFENn1A5mNjpe6VY448GBzz8HHOoer3KU/OQsDYSAMfJwB/pLLF5Fn55IvcDz/6l9Oj/jwDl8gyBeHNtMXtyMxZM7Huf1qOTzLwQfrnXU//UHQmjLOx/vP3r7DYe1Hc5iDjxx83G1B+uX3FS8eH10IH5U/y0a+ygMb9+7gw5/HneEEf5WD9OcFLwyEgTDwPgzw3PGn7f7zhFc8g/h5+pFDD94T/EUIX5Z4pr7ywIFc4dMrfch6ep/19KxanOV92e88q4MP1hXvzsT7rNze2w77mn/QJJ53OKz9aIw5+MjBx90WpJvAZ17kty6os2zkq/g92OAFjxdM5/ESZ913/x7W+Wm/3ktOap6ah4Ew8AgGeO7yawWeQbyQv/s/1+BLEM9Q/OTQw0ObR+QmOrPm3pUB/2n06sDgXf3ufvH+yzrmwwFBPUBkbfvP3+o7c9fx7vfsrcRH63777j5f8i8HHzn4+M+X2EuwZPxrP0jZ2Nn42AR5gfNXILzIveKvbOHxa/OY+qf+YeBrM8Czx+cQL+bvzoPPTg5pcujxtdl9d1Yf5Z9/JPQd8jOs210uOPzgj34e5hiXB7L1MGSn513HOJwyJuL87PGQ5xx85ODj7V8W3nVDiF95cQkDYSAMhIEwEAbCQBgIA2EgDLw/Azn4yMFHDj7CQBgIA2EgDISBMBAGwkAYCANhIAycloEcfATu08Kdk9f3P3lNjVKjMBAGwkAYCANhIAyEgTAQBh7NQA4+cvCRg48wEAbCQBgIA2EgDISBMBAGwkAYCAOnZSAHH4H7tHA/+tQw+nMyHQbCQBgIA2EgDISBMBAGwkAYeH8GcvCRg48cfISBMBAGwkAYCANhIAyEgTAQBsJAGDgtAzn4CNynhTsnr+9/8poapUZhIAyEgTAQBsJAGAgDYSAMPJqBHHzk4CMHH2EgDISBMBAGwkAYCANhIAyEgTAQBk7LQA4+Avdp4X70qWH052Q6DISBMBAGwkAYCANhIAyEgTDw/gzk4CMHHzn4CANhIAyEgTAQBsJAGAgDYSAMhIEwcFoGcvARuE8Ld05e3//kNTVKjcJAGAgDYSAMhIEwEAbCQBh4NAM5+MjBRw4+wkAYCANhIAyEgTAQBsJAGAgDYSAMnJaBHHwE7tPC/ehTw+jPyXQYCANhIAyEgTAQBsJAGAgDYeD9GcjBRw4+cvARBsJAGAgDYSAMhIEwEAbCQBgIA2HgtAzk4CNwnxbunLy+/8lrapQahYEwEAbCQBgIA2EgDISBMPBoBnLwkYOPHHyEgTAQBsJAGAgDYSAMhIEwEAbCQBg4LQM5+Ajcp4X70aeG0Z+T6TAQBsJAGAgDYSAMhIEwEAbCwPszkIOPHHzk4OOTMPD777//9eeff6Zen6ReeQC+/wMwNUqNYODHH3/8e2/997//nf01++tLGPjmm2/+ZvDXX399if3shdkLYSAchoO+F5yNiRx85CGfh+wnYOCHH374+6WIF/S+KeU+D6owEAZggP3hjz/++Huv+Pnnn7NXXLG3//LLL3/n7l//+lfydkXesvfcZ+9hvfKHjW+//Tb8hb+XMRAO77OeH7Uv/vTTT/95xj/roP5sTOTg4403WB6Av/32298PQx6I33333VM2Q79k8wuDz/ISyAZAjs7y1xJewomHTY4NlLje5YuMfODfozb3M+olb/5q551z9/333//NHl+gP8v6P8ILa4m8PyIu1ie6+bhmj/h07znY57nhLxie9cy4dxyv0AfrrE/r57P31YfNvnRS2zM833hWezh3hnhuYVXWqClrlHtywjPiFn33lMEX2Xct3FP/q3T5TvVVmZvy/iwO7/l8dD/87HW85X2QvYI9g7r5nWeq60f6nsXER3z8qGwOPt744MPi+mXpGS+xvDTzAPavX7T68aqWhe4LwuSDX8TdXF/1sNa+/taWFwk2qiN/zfFLi/r4Ioo8G1KN300QO7X/kdfygc1LeTb+Z3D7yJjvqdufDD6zZtf4b33hjX3gs79c1NhZP64p4qtj97j2hezSuriHrUs62BMfEeMlu599HP555vnl3Ocg6/aVscEUe8ZZ1mN9Zr8yr9fY5jnsgY3PNlvfmYirP6cnG3LFGuX9jmf+9IeNV9TdfQzfdu8rr/BtyuWRPr8kUqddTEd0nWnOUQ7vEbNcfeT56L5BHVmP9/DrlTo+8j5IHh/xjH8mE6/KfQ4+PsHBhy/rj/4C6UmfD2C/BL36L16+XEzx66M+uzFOc5+xyNiI8Ldu7uQVvzzA4iG88oV4kGc+c4hrtbkRo7lZ6btnv3wcfejo26tqsYudPLuuaPWR2jyad/Oy8+8VY9QX1vhw7dqqLL/Cr3vb9AXMPeNe+skTtX11vniZYq+hfveK7R30kFf2Hj5cwyixyuu9fPQXT+7B6H/1gYN7/av9uFeOP2s8ssE6r7lgrbmvXFp7PF9gGBn33NU7gXvKs+qOb8TGlx98qzH262f71u0fvfed8N77xFH7R+bVgxn3Nvh4ZN2v4fBIDJfmyAvtpbnTOPmATerI9TTnM/YRU99PLsVB/I/g+dlMXIrzUeM5+HiDgw83BL989WKz+bEwVuN9/q33PNT7l4Hd5otPj9yYjYO4+UwPYh4Y3WcedKsXCXU+qrVW0+buSw556z7rD3Ldd15Cptqjz9wo/8gWe8R39KGjb1PdHunnEd3k1L8YwIuHUtTl0f5Sfz5H/HzmHPLRH6a79f9M3+5ti5qv1uCtttzHp7V/q85b5IiLF5hbZN9Vhr3EL2McdhAja4h16zq+l+/sv/ChPvc97Nr36JZ43Sem9tWMfTR+43vG+8NHfa3y+r3av+GGMQ82qqzXxFyZha++7zoX5rB59Jmr3K0tXB1l69m+9Zjwk1yTnz5W7x+x11f9H72GBZ9FxOI75KUDtI/avYbDj9pC3nod5avbJDc+A/rYZ753f78mBvJQn1FHZOVqN/caJqgHvt9az50fjx7LwccbHHwI5GoDvzT+aEgm/UKPb9P4V+2zVqvNwLwdeWB/1RyePe5bHnRnz8kZ4vvoi90ZcpAYHvMfxvO5cZbn7WeNR7/Zw1es+w5wllqt4nx1v3mmJq/2JfYv73t5Ps45etb74L3tfOZ65uDjxQcfnPbz1wGgXG3g77jBC30e7v+9mVkr8rN6GPLXHertKf9qXvr/O7dnyce9H0Bnyctnj8M9cbf2P3uM8f81e5JfuM/yvP2s8eg3e/hqLfAXfPf4Z/5KaOXPGfuPvDefMe7PHFOej/Ozw73ikbX9/9h7eyNpemPb2pvrBs2gEXThBi04QQtoAA2gSJkiRWpUqVGl+n6x3vjWuclkAvUzPdM9PVvoQBWQvzs3UCh0z/OcWbeu+j/zrnPV5lfJ5+DjiQcfkNGXYMlfW0kgwZBnwfdnvsj2n37xoFWecXS0wxjy+rDfFtv8RLrq+/fUytDyU2Bt9Ha36cd2lcePdntsxPk///M///snCOjVXNQjZnz6pwrIYbf+lBTZijPy6JGHh07oPOLnpGK3w4Ex4iRm87AlR3I3Llrue+78zE0ZbKm/a2vt0akxYr9i1P/cBn/mhi6+4WHd2NHPBxxrPXrsU4z+baE2iFW5iRvVr3K9Jb+aE7YrN+5g2H30++4TnPBZMTBHdP1TEvqQ7bijV7Gs/mrN8OFYXR+webXOFTOuqz4+6vzXL/UzTto+/4xtaqs/fJ2dm8iRq37FtbbGh184Q+zV3xTr3fyIHd/iRQv+9OHzzvqCTl0PtEXe5FRrrV8xrnlU/jkO/7tt7IGrMqsWLMFWrDuOdW6BAfcrW/ZPuWK3rgW1dj1f7azaiS/ar+sJWHVekWuvX4/lLG9X8dkPVtW2MYJ15TP5iz+t+rR1TB3yQk7uIEfMyHZ/9MkD9bSjn65HnZGZuKaO7WTTPnOqdvqYdpAFH8Zp1XWcljHz6zlUuTPXNY6dvHFMvKePOJQhbmpSOYjtOn/PxI2+eWKbetR1GL+uR31Oots5j60av5yivRNbz/lsbB3nWk8xrK3y8PfMflb5s23F2HkCHmLLeuXcYc0wb8aRm/yQU8cfvb7mTLq1D0z1JybES5xVjuuzPOx60/3klzjAX/nKH/q4FzNi7LkaP22Pv46BHfbMe3pvgN/URT2wtkbGR0tfr4M6tvipOqvryZZreZ3r2sXOEV/qHEZv5bv2dx390fZcznCiY1ntcW09agyvdp2DjycefECguoizSHDvR7I4oX25YPHsC62yti4onYRMRomqLC2Ep58FyEmJrnYYV55+YlHeeGnVVba3LCrq9TFjY3GoY8aA/dqPPPEy7hj+6cNHfbCi58JHPzLEwoLqhom+av/OtbXqC3W1JXbEWPuPatDzYZHERrdTbfZrc50ewNjHFrhUPWtGC+aMmQPY+8DqsazqVm3XazDDxqoOjPWFuurXa2stb4nbPGpt7mBY/dRreafPysXqU5yQox6MGRtjYFvt7mK0Zh0XeTjVmbmCnxoT/oxB/xWzbsf6Gzv+uNYvtT9aC2qO1uvs3HTuk0fFWzvEQZ5y09xoO4ex0WO9kx/5YwuspvUFTGrOR9e1tsZnXPhR35x7PRmXk66P9IEJsfCxv3IVjLS9a8ERG8RCrF1WPPTRx+u9HKdu5oqe9qvsLt8qV6+xiS3mm/FU+/a5Pk5zgLFqk2tjOcvbrt/vJ54Sm3GBT9UR48oHx7WljnySJ3UOTfnCHWTwj33tYF9e1blnn/aNY2onm8jZjz+uqy6+6DdXYqtxySHHq6651xzq+NnrGt9OR952LKwJLfFjwzmNjtzXtmNn40ZfjKY5ydrEuHXDz9n1QK6Z09XYyFdcpti03+suFrbkiIx8Iw7u/SAnV5ARU8b1X/PX7pV2Ne+1zzg+8E9e1r1jj0/nNnlwD07KT2vOKk7rQY07tzp/tH+Whyuf9Msp/db4q1/rixy44Js+8we76oe6OYZcHZOz4EldGZMPylkLZLGDXz72c60sLXFrQ34Qg7UmF3xhr+pN1+jhB7/GV/lnH7rOV3wi3/kiL/SDf3Xs27XI408drv3UXM5yApzQr/Lao5V7u5iePZaDjycefFh8JlSdwPbbOs5EqkT1YY6usrbqQET7bJ0A3tO6KHV5+5n8VR457OCn9h9dO2nJpcuyWGDTRcfxVS4sXJO8PlhEtEFrLh1H/WKL66pz9hrd3afiKnbIa9+Fktj6wgEeyE5j+tTOUevDsdcTPf1UDOTYVGfxd3Enlmp3VbdVjNZh4oY1nTZM3Z52pph9sFSdqxhWXa/lFq19tOJX+/XHQ7bWWjynuNWptrmWS13HWtZ6qCsHqm/j5GGmnC31wH/lhX7p7/MVjKd+7U2t+OGrrnHWsvs3hx5vla9+wGeaP/Rju28u7uRnDj13cKaPD3ZrXKtrdIh3itnNmbr6rRxzzPyqX3Pr8vbjU/2j1s1Pxw89uEesRzYY106Nk355XG3s8q1y9XrCgXHnnH6pEbJVl2vrV7lJv7GAWR2rPKzzptut987Byb84TGPGVm1xbT3RIQbaykFz7zxAV45RF3O0xt53PePv/T2uHlsf73HWcXNlfkzxO151jvx12enenLXf214Xc6hYiE+XxZ/872O1hlNcUx/zjvisV5XBT98XWWvngPJ13cKWduX5ndjMc4rtynpBjGLc42bMevUx+/Flnnda7fR5LybgD65gqH352muMbO9DR46Jt3ZWrc/dPg7m1f4dHnab3ptvtc+Y3Kn9YkZedc+gLP2reqGrT1tsqzOtj473Oijb5wGcxB546YO2ruW1f3et756PHKj9+OTT41S2YqhPdbw/0+507nDCek61ORPPM2Vy8PGNDj7qYiFpVmReTTz0VjrarO1qYVv1V93VtQ9aJluVYaL3xYjxVS48dMil2vDaHOum04mKH+VsfWjUBcmxK62x7hYDsauxrxZdfZtrx8w8lTtq60OmPpTRoy590XezM21UeCDrnxbZalMsrmCqv54ncU3cmPKtD6ozvs1hsnW2z/pUvq109ddl5QW4dV11ev9Ox5hqTdAHx1WdJ7ysY11/9AtnekzYJt7dHOg6V+em8pMPsZpyWfntdu7kZ0wdW3yK4ZmYkD9aD2oe+u053PErdtX+7to1oPPAOVg5s7MjZ/oaMuns8p3kjfHs+jHZWNXPWB7xTHHtmzCTj3fWBmtKjapt14fpxUr+oYtczU+9vn5NuK36dvmssMaWudBSzxpXHe9+d/667O5eO/jfyZlDnZO7+spR7Nb1Wn9T3Vf+fYnpcxK72K8c0C81newZs3hX3Tux6a/HdnW9IFYxJo4p9qnvTsyTnd28Bys+Pa6rvq/mx3zAb+XcFLs1rbVUzvpgp/LQ8d7ubHVZMbvyfFRnykl8iBX+EkuN2fG+l5Rr6NUYd76Q5dNrWvW9FsOzzxtt9/V0xxd19Hmm3ens6mg+6Fd8d3idieeZMjn4+EYHH9OkW5HZSX9FZyLiavKt+icbvc9NVV0AmVAsXrsFruaif/NftVVnN1F3ePX4d/famfJQz/yJ2b4jvdW4eWvnTDstcuJZ8cKWm9zerx/9T+PGPI2p31sextgkRsfgBn3Tg1qZ3rIhNjbi2Okq122cva8PhjM6K3/gxBjxdjt3dHyZhG/ac1PcH7La37WV07tYd/PMOHq705l45ByqPMGmXCGP7mO6X/m9k9/KFn6nHKZ47HOOYtO+VftIv9Z/5Wvqd8PNPHCc+Xd244cOfHStoUW/c1Tbu3yVqa1cmeZVldtdr+q3i2Wls/Ij9tN6ueOjet3uTudozVK3z6MjvR7D6l77U012uK1y1c9qfOdP3TOtdjouXVcu1/lrbNjo8txP4/qbcJps2Kf/OoeIhf768nI0N+T35P9ubI9YL8hzxxNx6O3dmLsdcan1VcY6em971ffV/Hy24x+MqW2ttXEYH/HYV9uj8Sorz1a2quwOs1WudxZZtVcAACAASURBVHT0ubLJuDkqS+tc+OieQjv4r/ZX11MsyO74stJZ+aB/p+PYqo7T+K42uzheYSwHHzn4+I/JyQsiL0wuGhK+T+LdpDwiti8n9SHMYlHvqw1jqZPyjv/dRJ181BjOXmsHXysd46iYHumtxq3PytfU7wOy+mexr/fqab9i7xjtbtyYV7rVTr32YepDG7zoqzJnruGymyzi5Lqf/mPHHM7YnGTkInam8d638qedXR26rZ2OLyn12zVs9wc7NlcxdX/e7/zK790c0I7tTmfiEdyQJ6wd2KHPw57JN+PIkj+YmDNtl7+T39UczH1qzbnHNcne9UuOHDDgSyzFZPKz6nOjhy1krI11Wen1fl7SrJ9xcI+9KrvLt8p5rTx52rdriQMd5Ov6QUxgVnW1TVv7ubaGXafLeW/Okzx9jE85qKcd252OY+gqX9vV+Kq/6p651s6Uzw63Va76XI3v/Kl7ptXOCjdtGAfyuz7HaCcd/U04Vd1+zVzEXuUlc7zeoyN/V/Z343dje9R6seOJeJzdzyp/thWXjif61rHb2uF1Zc3pdus9PsSFOKaaGx+yVdfro3HlaK/I7jAz5h7THR3jW9mscStL63OLnHx20eczaap11ffamPFv364Vwy6z48tKp9uo9zsdxzr+6k/j5nkWF229QpuDjxx8/Do5eUlik8eHhwX3EHQ1+Vb9Z0nNyweTCV/o4Hc1gaYFTP/YOOtzN1EnH2ftVjntrHJB1pcuF1f6jvRW4y5INYYz177o8MDlg51p0dP+NIaf3bgxr3RXcfqgEZ8dN1Y2aj/+jWXK0xyqzpVr7F+xsZLVDrF2/3d0sAF26DKfP1LnHs8u1t0863a83+lYO3wqT0tO8FgukyeyrilVlj7kGOfwCywYX/m9k9/KFn5WOdQY67Xy2Kz90/VVv2zmsA8e6FZcVzyb/Nonr7BHn1j3Awvlj1r0iMu6EmvV2eVb5bxWvttxvLa+MLIGgYs5WI+KFXrapq12uF7pdDnvxb77YJw++a28rXre2+50HENX+dquxlf9VffMtXammuxwW+Wqz9X4zp+6Z1rtrHDDhl8sOB+0a2zYsK+207j+Jpyqbr9mbcQe6z9jqzkpf1f2d+N3Y3vUerHjCfmTOx9y5x4c7sbc8RWXad5bx66z8n11zel2p3swdh9FPDVO4yOeSfdovOpckd1htqrlHR3jW9lk3LiVtb2yp1Cnt8a8mlNdfhXLii/or3S67Xq/03HsCifMk7b6+Q7XOfj4YQcfPnQgeiWoL0iM1/7V5Fv1V93dtZsDDkC4ZpPgJrPrTQsYsk7WHnPX9343UScf6l1ptbNaDMSNfGvcPvymb+Pxb336wiQGV2JEVn8cLnC9WqSnQxp9rbjkuFj0mB1ftW7a8L3asK10d/1uBHpt7mKor8pFN1iOTe3Kn9yYarHSAR/GJh18U1/GqTH5r+SsM/ammHvfLtbdPOt2vN/pTDwCc2I+wy15yhzSn+3K7538VrbwNeVgDFPr/FytB1Vn53daN5wHU61XPKv+pmsPslnL8UlMk9yVPutGTFVvl2+V89pnTX8RddzWuQQ+9tmu6reLZaWjzd46Bz3wrePmgM3az/WqZjsOH61ZYtH9Hen12Fb3u9h2uK1y1c9qfJWPemdb4+6crPrGzxyu/bv6rriuv16Hand1rT+eSVxPc1JereaGa8Wk+5HYHrFeiDNxdAxc98C1jn0k5mpnN+9XHJx8y8sra06N4+ha+5U/8mJaZ1Y8XPnZ2eo6O8xWtbyjo9+VTcanGl3ZU+hjao/mVNeZYkFm4ou6Kx3Hp3ans6vjihO72kz+X6kvBx8vdPABkSRHXbCvTmBsqFMfvkxsHzhMAn3RriaF8tir8k7KfmBR467y0zW6+GXSTQu/OuaCT/to7SfG2s81ufaX0N1E1Vb1YR9tt7+6V6fWUlkXVnLmgWQ/rXgyhtw0Nr24repW9adrDxewSR16POr44jz5Fs9V7cSiYqrdo9aFGL8r+ysbxDVt5NwE9NpMGJr32dqb68RFHoQ11skf43Jg8qlOtcVcAx/GJh1swiXGwWNXZ2uJvc4/Y6s57GLVVse56vfrnY7YVh4pX/u6Te9XsZKn+PVYVzrY1HfXWfWjM+VgfFOrf2rX1zHirnnrlzlTbdmPjSq/ikXOI1/tnLl2syeeV54D2MfntBHXXo3BvGhr/+oavOD+yodzamXXtbLjiL+VDmMrnFdxetjV5yDxux5is+sTF5+OOesm/ZMONny2T+ursU/PBcfOrHU9Vu/l9xSb9rtv129y0k5vxcKaMr5bJ5U/yyXjXsVgjNSLutX45Eqfp8g41muhvwmnanu6dj7Lnc4PdZwbHe86bybdj8T20fWC2OVJrZ1xWldztJXzHU8xICdld631qr6VX/me8FrZ2a05+qmttvuzAjyIp+arzys8rL7qtbb6moUMsVgP7pWlrTa4tpYdf3X6vDAvcus62l7ZZHyqkb5W9rR71NZ5Mz3T6tq0ioV+a1prp+8pfsdWrTo1P+tj7lc4oU6Nj9z7ureK55n9Ofh4gYMPH1AQk80PHxZiSenmb3owSea+4FWbLBqQFDs+mNHTPgTUBw8GJgaTE0JrZ5oQPiwYwz5tPWg5IrYbvR5L1zPHvmCQc4+BOMiB/johsck9tqYYzb/6UL7b6fHVezDAB3HYz0IA7vrodVSOOqGLDWtDLciFT6+xCyM6dxYbYyUuY+gtdpUjPv1UXtjXdYmLT8W0y6zutY++WKxkez/Yo0e86tKaR8VxhaH9Z2u/4qI+sUecxCEuxmb84MQYtbbP1g0bY/CXD3UTp10N1d3J1Dojh31wBEPu8VvrLMbkZ4y28niaZ8r01rk26eAfXCqPzFsse0vO1rliTtzUgjlI7ObR/dp/JT/zpu35yQPi7mOre+2BPdfERMt95SV5mj/9yNEiK651zdEuMYEpeNDHxzhrrVfx9X7iIg7s9LGje/TQn2pMLau+OfWaVZl+Tf5ihD0wQr9yWxni4BpcKpbo1/jwsYtl4m2Pq97DUzFE1xitkxhVHa6d3+BO3fig6xzBVtfhvq5Z8hJd7OBrVceqR2z44iN3XOsmn/aJ9RSbcWPPNZI+sLeG9mvPVizAkfpaY212f9ojfm3s2hpDlQMTcSPuaf7QJ0bWChvGNukRFzEyVv2ducaf+a1qiR1rAWbWDnyNlfHJ30diw55c38U2+bVP3MjRWmOT2Kkz/fCBnKgbc1Wdjqfz2Pz1sWqVx2+VqZh3W3KncrBizzU64Ip9+YRe9TFdoydP4CIyxKIN8lbvDg/V7W21RV7gQfzOQ67VMZap3nKtxokeuZBX5WbFiLEVPxnj0/GDH44Rv/HJDcd6S05iq86qta7YQA8cXIvIRb81Fq6rPfmCfO231tjWTh1fXVsT7Fkj50GtI/XRrpggZ5/2rU3NEdsdb+Vfqc3BxwscfEAIJoUTrU4wFwTGKqnq4s4Yi04nHDbRYZyF1Emrn6rDmBODcWOoExMblbzoYEP/dZGrcqtrJ860EKqzyt9x4kPfPM21L4YVX2RqrD7E6K8Y29/z1ndva6zY8oNNbBBDX9y6DeKudsCX/LpexR4/yHWZbrvfu6h1rLocCx541bi4pq8vhupW2Yqp40ctdslrx42VDR4M8FduYocY6GNMvR2GPrjQUf6oxR7yte7ETz+6O3/MXWJUF/xqPcGj2sYuffUh2HWM1wfo2TpX3KY6Y6fGWucHnDAH2jrPjKe3d+YmuVeOVZ9eE6O+wEB5+sXPOtdY7+R3JYczmBg3sr0efXOILDErR+uzwDWMnPULduRvDcFF+Wqj8s94dq0YXNXDJrrGav0m7ulDGXPaxeVY5QD65Io98FCm4s249sELHTATq10sNZeqo59V29cQ/ILnbp4Tf18bjnT0jxw+rDs5Ejt8UmZqe5zkiB3XuknHvj6/qLNjtmArP4nHddu6E691UId2woK+FX7as87VVr/ucatLSw7U4Ag3YqkcU5c+xqrP7g8c6viZa3lxNCfBB1kxp+Ve3LuvR8Tm/DmKrfuu99oAR+KVf52fjuHLulU85b/61Ue/rj6xJXewDQ+0XzkKV8WW8cr5ygd0tDetOT0W7/GNfPWPn9VcvsJDfaxabOG75gfedX6uMMMmMYoZNsxff3DN+tA6x9SbdCoOjBsLOGkLn1zThy/yqHrGVFtsGddRi89qD1/g4DyHa6tYJr4Q507nKB78VsyombGYf+UieRM/fVWu+qnrALLiXGVe8ToHHy9y8PGK5EhM/+f0IhesHosVizwL72rj9dl4+6D+Lgv5Dg8fTquH1073Vcd4GMOPaaMKZ9igPJM/r4rbZ8bFRoqN1Wf6iO3HrrPBM3g+iwOvsl7wXPQl71lYxO/z52H2FM+vwVfNgxx85OAjG9Vw4OU48MxNERshXpyJ4asW4s/0w7cKPNQ/08dX2vZQjG+VVn79ZuNZB2eruN6135oE75+zeXxXLievz+fwK60XPBt53k+H6OHC53PhFTCWj9lT/Ix65+AjL73/9fLA5pUT8Hx79zMWgVd48PALC39dwQbkmd/WsxEinlfA5U4MzFse5OjyZxFs6t7p1x6uT7tNCj+7fLe873Dhs3SYoxV/rvO8+L7PC+cU6+5ncSZ2vy8/Plq7V10veC7yrMihx8/lJtx2/avPtM757CnehyM5+MjBx39tdFwEspF9n4neF/FXu4drPFg4dPBvIV8txu8SDy8vPMA5vOHl3wOl7xL/mTjhCnnCFw950HODzZh/C3zGXmSurXU+I+AYv4yCZ7UOwfMans/Gy3rm4ON71e3ZvDnrX35lvQi/znLmq+Wyp/g53MzBRw4+/uvg46sXnPj7OQvOqta8qLPp5gWKl9mVXPqPuQKGYMkB0jseesABvqmDJxyYkasfcuZFPC/hxzz5yFzigEnMqUG+Mf1cvD9Sq+imNs/mQNaLcPDZHDzynz3Fz+FoDj5y8JGXzHAgHAgHwoFwIBwIB8KBcCAcCAfCgXDgbTmQg4+Q+23JfXTCm/Gfc8KbWqfW4UA4EA6EA+FAOBAOhAPhwM/lQA4+cvCRg49wIBwIB8KBcCAcCAfCgXAgHAgHwoFw4G05kIOPkPttyZ0T3Z97opvap/bhQDgQDoQD4UA4EA6EA+FAOCAHcvCRg48cfIQD4UA4EA6EA+FAOBAOhAPhQDgQDoQDb8uBHHyE3G9Lbk/30uakNxwIB8KBcCAcCAfCgXAgHAgHwoGfy4EcfOTgIwcf4UA4EA6EA+FAOBAOhAPhQDgQDoQD4cDbciAHHyH325I7J7o/90Q3tU/tw4FwIBwIB8KBcCAcCAfCgXBADuTgIwcfOfgIB8KBcCAcCAfCgXAgHAgHwoFwIBwIB96WAzn4CLnfltye7qXNSW84EA6EA+FAOBAOhAPhQDgQDoQDP5cDOfjIwUcOPsKBcCAcCAfCgXAgHAgHwoFwIBwIB8KBt+VADj5C7rcld050f+6Jbmqf2ocD4UA4EA6EA+FAOBAOhAPhgBzIwUcOPnLwEQ6EA+FAOBAOhAPhQDgQDoQD4UA4EA68LQdy8BFyvy25Pd1Lm5PecCAcCAfCgXAgHAgHwoFwIBwIB34uB3LwkYOPHHyEA+FAOBAOhAPhQDgQDoQD4UA4EA6EA2/LgRx8hNxvS+6c6P7cE93UPrUPB8KBcCAcCAfCgXAgHAgHwgE5kIOPHHzk4CMcCAfCgXAgHAgHwoFwIBwIB8KBcCAceFsO5OAj5H4bcv/pT3/65d///vcvf/nLX94mJ08o077uafU///nPX3mXGr1ujVKb1CYcCAfCgXDgHTjwu9/97tc9xz/+8Y/sdfMO92Uc+Otf//or737/+99/mc/PmK85+Mik+dYE7pPib3/72y//+te/fvnNb37zVnn1PHP/Ghu4P/7xj78+CDh0S01eoyapQ+oQDoQD4cCeA3/+859/3Svly6I9Tq/KI7/o++4voa+Kb+L6z3nx29/+9te9Lu9Y3x2bHHy8+cEHL2Z+I80D7tGE5cQZuzxEH237jj0OPMjXeIzvmS+mFX/jupPbs3X4lkE8qflPfOCy6Fe+//3vf/+FU/Bn1gbOW5dn8gsswKbicwUX+MWhJfpcX9F9Fdk//OEPv8b/ioevYDptWoj52Ryu9eMXe/IATtWxM9dykGffGflny/yEdZU1yprCt2dj/hX+n7UW+K0s82A1f3h2M05dmG9cfwUmj/Dx0fVhFwMvd/L0O+xvWM+tsXWc1vhdzo8cO8O9R/r7TFsf3c98ZmxfYduDNfnF3pJ9JmvGV/j/TB85+Hjzgw/I40nd1Ycb8nxWDwAXOReIldxnEniy7QbfByQPAh5m4DDJf0WfGD3zxfRReXqQ8yr13uVFzY1XPteWurDAn+FGfRBgg43t9CAAF33sYnvUmPOQWHYHBnCPuHyQPcp/tWMsV3nu4Q058KFmr/aAPcIP7FlniJ/2M3GumJ+9Bk/q37lOzZ55MDzF7y+p7mDoPCXX3XyY/D6zz3Xqq9fVI14/AhPnhG3n4CN8fKUNeAm/Vuvcs9eCKzVln3Rnnn0l3t3XnfXh6LnsM6iu4a/2DOo4EB+1Ew+fv888XLzCvZ7Pq92L52qev1q8rkusTf3D2stcP/NMRAZ97fFMRX/S1c9XP7c+gn0OPn7AwQcEkZxXyKLORGgXWlpsskDwwHiVB4Xfthgfk/aZD3cfBt9lAd3xxMVw4sVO71ljcHLiMptv6gFv+ciVKU4fBMrAdzg1yR5tsCadu32+5HG4dzT35OBnzgN9XOU58YMnOfDh+pnfXE31MLcJP2M2B/gCp67iMPl9ZB8bH2PELvx5pXXbXJ1DE9bK7FrWf+f10bzY2fnKsWetqztePyJ/v4BgTtR58gjbz7Jhrab5XXPk+hlrwdn5Q2zk8l3miPU+m5/ytOqwF6j9XruHrTy9u/5o8yta9jGsdcSPP+fbs2oqzt8Bu6P6uDZO8/xI91njPN/heI0ZLrB39XAdjqziQxY5+YQe/FodVk9765XtV+nPwUcOPpYTgAWMz7SAMrl8CZTMTJRnnjQbBy0Tu8ZHDizEq8lbdR9x7YLpotBbcH2En2fYAEfy+U45iP8UsxtTZCpnKrbUsz8seDGf7ME1+qexavMR18RVH3A7m3CfmMh3J/eRMXl/NiZ8ERecquvMV8/XMznv8GPdqwcK2POl4oztr5RxYwzfwf0z+XA3L3hqfHdtiH/l1V1bX6H3rHV1x+uP5g32zIvKMed27fuon6/WJ3Y4Cnbd9zPWAueLz7nertZjnmGvsmfrOO7uzZc5s5OrY/AOPT61n2vqyMte5aQ8nWrc9Z95T/18STWOr9yLW4vOOe9X3DPWV27v7GeenY/PkQl312Nq0zlj3PCpzyts8SWJMrV1TmG79r/ydQ4+cvDxbcj6yhPpKLbvuICucnJhnTYQK51n9/sQXsVsfV7x2+9nY3fFvzjSXtGL7H/+Q2I/HQ83030D9s64fMd19Z3r8Z1ze/f58+75hXuv8Tz8jvsZnyOrPZhzhz0x19+Za3djz8FHDj5+JPHvTpi7et9xAV3l6sL6nRbNo4MPTquVWf3qY4VH+v/fJuWdeJ66/r+6fjUWbs5y8PG8Gnx1zePvcbV+9/nz7vl957nwTrX5jvsZ9+ergw+45Z/DrH718Z35dyb2HHw8+eBDAvLSBVF5ATv7U2Tkq74vbrWVBPZxz8/5nBx8w91/ws+4fwuGHguZdmz5+R+TBn1kaPnZZP2pID+Zqnb0jZzxcH3lp4Tgg99ql+tuh5i7HDnX+Iin4ncVf7GoLfFhp8aHD/FmTHn7wIJr+2nrmDq0yNYXc+vQ/VUZ9bSD/bM41pi8NrbKC/vu5EKd5EONEX9w07Hqz1jOtmdsmAPxdLv4hmOd7z0mcFcGn91OvUe3ylLDOhdq7nCo+rpa92qLPGsc0/Ukz08d5Rnt9BPpzjXuzZEc+vzTN7hVfMGOOsBTZaZ1CRzQs75dR93a3sF9wqPa5Joc6nrC9Y7P1uEMrt1XzZncqx/yq3EQu/qMgZF1RJc4el2qPrapA3as5aSjj9rW+psvvNE+9rBb64w+cRob9/VZQux1fav+sINP7WODa3OoslXG8bM5dh/46Z/q68w1+GCD3Lv8lbzQRR5eaRO7YE3c1Tb5Grf1qeOra+x3HlEXeFnXMPSpVY0DOXS73BTL2blxtx5gLafBgdhqXDUm+IJ8582E0Zm1QL0rWKpT2+7LOpDPVNOz3MBuxQafNX/8IGMs1EB5MOprinK1rfga65maE0fN72h9mHKpcXCNzbquylPwUnay82hM9EXbeQ2+4IRP5eArOFZeEnt/Pt/FWj9TCx7drxhaT/NwnaGttsjRMXWsL+uEstSh40Ge9Fkj9bSjbtebcFS2tsZGa799xmw/bR0zBmMiFz7qVZvo1vrU+lb7Z67xi49uv+oaJ/jVfq7hE3EyZqzYrHMduWk/1m296n0OPp588AExXCjcEEI6iCnxWFg6gZxATBYmvYsCRGVSM3Hq5JHAkNfFQhuM8bDpPnyIVTvIQHjGiMtNAjL08bEPWeKafBO39onHhavHUO+xiw7yxqRffNgnbuaEbXNlrNrk+g7+3Qb3+PEhoG/6wVwM6mKEvL5dJLVbbanjwmie1gFM7AMjYyBn7LnIaecsjsbSWxdWfTL+0VzEwRirT/Op/ur4mWvx39kwhl4L6zfxHbt9g0Fd9HcUm7aRB8Mub+51Tt2tO5zET8+v+/ReeWoCl9Dj2vr3uY4e4/iAq8SOHn3OSXS0T3s2l6qDDXygi1181fWE6yo/Xd/BXTwm/FxfnPfU0r4ej3au4DrlIKbdPrJwEoyIQV3lpxgZU87W+XDluaRubY0F3IhHHokPceKr6jBP6e863NPPh/pXnbpmTjnCxyrP9Z0cjRvc8clH3rsW79aZHoP35tZ1r+Ylt1frFeP6pJWP+K/9q+srzw+xoiWP6m9aP4zlytzQx916iBecMsaa+7QGyxvirLJcG8/EwT5Xr2DZ/VRfFV/441zvNTXXs9xgjjkP0cUuOZs/Y/jDDzEwpu9pTZlyuFNzfBoXfvGPb1r6+fT1wVwY63GIS8XRuPq6oR18fRYmxCfv8ME9XLFP3hEv+Uxx01/3DdgwJ/Qn3KY52bHyfvK94x4+iWnCX1tgin2fGeZ5Zg1EpvLCOMVsh6OyvTVm43Dc/ju5OHe6TWwbK3no62rrHJjsa0se9PjhNhzwOYZ85V1fvxhHFjsfidm4vqrNwccLHHw4iSBQXawhHITiUxcwF97pweJDp5NQO0ys+nCHyIy54FTiOYG6LSdnjQk9JxOLWLWz8k0cThp0q850vYrHHIxzlY9xVIzxcxX/KTb6jGNacFzY+xgxr+I1Ltq6IFk/62DexsW4uYKrC615n8VRe71d6X8kl5rrWX9drt8bj1hMbdUxBvKzH47DUT7i7pibpWlMX8ruWueA9amyzOc+n+7WXTxqftVXv1aeXNw0KOM60/vFsOtUTmJXO/pAzz5a+8Gm9nMt//paZj2mdbHb4P4q7sbU8XOT1utUfdS1UjsdI+RXuE7xu94yv/u4WFS/+Ouxo0c/n84/awlOdQyb6lT7PQbva74dozpWfdT+riP/O2d266+4dp2rORIjuU8c0wexm/uVVl53/at5mVO3Y3/ni1hP3JjiP4pTv86LyS41Bcc+ZiyM9bVFfGv/o+pxdS0QS9qKkTl3ziKjjzpnzmJZfXitr44h487/Pmbc1khb9nduMO5c7zkZe6/Vaq3XV2+v1hz9qtPjWq0PNZcaA/WgNtOcdu9UOVftdN+PwsR6rPhlP/6Ive9NjKPvqytuPadpflWc6vUd7lXcqi2ujYu4qYfx08/4bg203tRC3Mzbe/HSr/H3fsdtV/qMOy+UtT3KZWez563NM63xrFqxxJYxIltti2WVZZyaaLePfSTm6vsrr3Pw8UIHH0zuXnwXo0o2SQvhurwk7BNa0taHLrpnbFXfbjQm39rqD5CVb/y7oE32am767barzNG12NR80HEhOov/ys+0sVFWH70uYjblr474IQMO2BQPfOqjtj6w0QUzH3LqfQaOd3MhbnPt+DC2qlvN9+haDHvtq54x1Fr4ctk3OOpZcx6k9tHqr/atrp0DnX8+nOuctX5X647vXX2m2JTnYdjHwYMce73EcMLrah1XGGqnY14fzj3e6f4K7uiLR+UH/c61iVvG6vyrdq7gOsVfXzD6xhfbUw0mO8bY47eWnZfYYP2gPl1nsi9uqzXHzVbl0k7HuKo8fp2Ldb4Yj/O4Y66tszkaV+cAfsSxx2UMR636HdM7eU2+VrGv+icbrj+rWlYd50XlvuPagUOVu8bS64TetOYo/9F6XF0L5E2vtTkTl7naWl/xEIMzWGqjtvrSXh3b4VLlvN7Juw7XOqEnBjvsJxz0aavvszVHT50JO+PqtUHPXPRN69owyWurr6Xa+SxMdnO+xr66Nu6ek7hdwXrycZd74tZtGpfjxFd5LR7Mma5r/dBFrq7l6k3PhG5nul/hiKyxdr2jXHY2XSOw0e2evddGr33VrzHaf7QeWfOKL7r6+0jMxvBVbQ4+XujgYyLqRCoJyqTuRGHBYEJ2Eh5NUvx0W5NvJ632Vm21pUzt89pFa/KvDO1ZuarTr6d8kDGns/h3u9xPC0mVW/lQb8p/pYPdIzzU7XaP9GrMq+sVjndzwY/x0na/K39dbncvB/u8qDou7BUzfU9xobsa11+1v7p2PvdNHLZrLOgf1U8cux66u/pMse3k9dNxWfVjX6x2NahxrDDc2VnpVLteX8EdnRUe+ty1FaeVHXzs8DPu2srZuknU/lmcV3juYlnp1Ni8Nh507KutOXwEI31Qg2rb69X41RzlzJVnrzEctROmq7i1dTSuHK2yvQ6r/qrr9dH6oxyt8wH7td/rzGiOTQAAIABJREFUaXwXy1SrR9VDO2fWYOKfYqk5m9vUyvMrWIpZbbU94bvDsdrweievH2VtVxgwPnFZvd7ufK983NHB75SLsTo2tX3OKNNzWcWLnH6IvevVe7mIj9p/5XoVx13cum/zn3LZ+VCv29vpHOGhbsfrSK/HMN2vcET2Ti7o7Wye5cgUq33awI99vXXtqZgZV+e6uqtx/U1cUPfV2hx8fMODD0gk2TiJ9tRZMk/EvTNJ9VEJLfl3k6qTfOUbORetKeZqR79HcupwwosO8mxmjIG25oO8tqecJgz0UVvzwH7t93rlQ70pr5UONh2b9HbjR3rGu2tXmNzNpcZLfN33yl+X291b/177qqOfGsPUd6TDuP6q7O66H1j60O7xHtVvN76rzxTbTl4/FStsrPoZE8ueE2P08U0CMn5Ls8JwZ2elM+VH31ncjRH7+K/2rvq8g2v1V6/9VVCNiYOEel/lv3pdxPcuX8Ynzux0dvLUoubrtfb6+GRLnRXP7D/77NXeUatdYlV2FfeZcQ7DiFG78pR79Wn10furjNfidUZWfzUf7dBO47tY9E1b7ZjfR+txZS1YxWJONb7VtTbOYDnZ0NeE7w5HbJ3lBrL66TEYf68HctZkiq3b2cW68nFHZ5XLlViN/TMxMTd86G/Xsv9n78+6L4eNr9dG2xPnVlhPvrWPvT6+86HeFR3trfBYja/6u+/d/Q6TO7nga2fzDhd7/Nrota9yxlB5MPUd6TCuP/Cu8q98nYOPb3rwwWLHC319qWfRg7wehFTi3ZmkE6GPJkf16fXKN+PTxl292l7x689W2QgxGcVjygcf2qatPrle6XS5o0V25UM9/HSbKx3kHJv0duNHej2G6X6Fyd1carzE132u/HW53b0cJMZJDo4ow6GDMvqe4kJmNa4t7Ry1HlrCWWR9Yel6R/Xbje/q0/1wv5PXT8dl1Y89sao1AHf6OexAt46tMJzsGP9Kx/HensUdvRUe+qyxdz/1fmUHmR1+1Ua99qCIQw0+xDPF8ox1kTh3+TJuXJVLO50JI+XJvWLj9Wp8sqXOimdw9sqzV3tH7eRvFbe2pnHWL+PjBdf1TFn8qE+76q8yXotXt+F4bY/mxTS+i0XftNXPo+pxZS1YxTLlVGOt19o4g2XV83rna4XjVW7gSz/6tTX+Xg/GJy6r19tVrMitfNzRwd6Ui7FOefRYvZ/s7OJlTD/Erp2pNTd8TOO1j/nN+o9t9tKs/4w/Grfqk2vzn3IxfmJa6fX+nY5jKzxW46v+7nt3v8IRHTHo+vqd8kd2Z/MsR7rPeq+NHZ89IGPNU9e4juLu4/ojb229epuDj2968MGL0Y7YnXh3JulEaA8q2Fh1H6v7lW/knWy+8K1s6JdFfiVDPw8C/E32pnxqDBOeK50ew+rFWblpc8/YbpEUmymuIzzIHxy67pGe8e7aFSZ3c8HXLlcP9z6ysMrBlQ3980CouVs3vk2p/V6vYtOfcket/IHfXk+xHtVvVXf87+ozxbeTF6/Or1U/9ifeGC/ztsewwnCyo+5Kx/HeivUR7uit8HATMeXQ/e3sMLbDb7JFnxxlE8M1+HTZZ62LxLHCzRitZ8VvpzNhZB2pvy/62qc1/47NZEs94yIW+2jhLHq17xHXk787ebkm+RJkbCtMV/3q1fZo/amyzou6uXbcAzrqZR/tLpZVrR5VD7E+sxasYjHnyuWaX72+gmXV81pfE77a7ny/yg18rdbUFQboTFw27t7eqfkdnVUurp/wqMe2uv9MTOThai0zJucQNbXPdlWbu7hp1/YO99Bd4baL6wiP1dp+pGcuu3aF491c0NvZdH6Cxy6u3ZhzDz+TnFizztVnhGsG/ZOee7VuV38fiXny95l9Ofj4hgcfErcTcEeUOwvORGgWEyYG9qYHLptOZGos+mZi1X6uXUCPJs2RX22vFhXiMo7ua6VDfBMGPQfvzaW/JONbzHrNrOX08HIR7Dr602bfZFWs6sKGXh2b6ieO+pjaFSYfycUagGH1aT+1q3Wr/VV+db2qPfLWBzy5rjbMCf3Oa8em2umv2jq6hjfogcFkU/07dUfXeKmftnbtTl78aauNVT8yE2+mPmTh5grDlQ56K50aY78+i/sKD3OmZp0j+EKv+lzZQUZbHdeq369d2/APN/p6sLOrLrj1OHex7GrQ4zNffHR8uKefuOuYOvjp9lZxGRMvMl3HsY7Nyhb66lRcjOtsfeTWGfnJX43jbF6rOWAs+Kn4mFPvrzJeUyPXn6Pnh9j2NR1bjvWXzV0s6lQsla99xnqnFaOjNXiKpeZ1Zi24guWUiy/s3Rd2iR8e9Jpe5QZ+VzorDNBZcXnKwxr2WJFd+bijs8pFW+TZn//oMN7j/mxMxA8+dt/u0Yy740b94QQx9nmx0sHHCuvun/s73ENP3Pq+1Jfqnou+nZd9vWBcrPraXsd2OOpjaneY3M1Fm31dtB+7lXO1f4qx94kHen2srg0dr7oeyTH161ivnf5qzOq9apuDjxc4+JA408bGBawSsW5WnXy1ZUJVeYjqeCctcoyxmekkVafaQoYJ4xgLChOMj3n0CacscflgYSK52E2LWY9l5RfMwMiNs7FxzzWT0dj01/Mx7rP4T7HRJ5bki0384pNrX+SmBbhvJKkRsfDB1gqfmquLDrpuehifYlUP29av4zjp2ScnJ/t3c6mcFjta8SPW6g9s6eNjXKsWrikrTsiCFXaImY/c7HbkDbg6f7Cz0mNMf/ju9lb3lT811y5v/fBvPmfqLmbk0W1O9zt5Melzxn7ablNe1hcm5Rkjf/Khj4/yHUOx7fMYDBzrOj2Wen8W9xUe+DJW5gaYIEsOdW3S58oO4+LRcVV31Vb/k0zlDNfgTBzOMXDreDJG/xSLa0DXmXzX+UB+zqEdZ40XP90m8RBXX0uZv8wJxuQYtRFT2m7rao51ncJP/8hj/VhrWvtWrZiSe5W5mpd2wAfsqRF5+gwixmrfGHt/lanX1sYaoE9N8Av+zr06L8De/hqHfdrfxWIdKx+v1kM/q/bsWrDiTc0ZPIiVnIi940MMZ7Gc4mX+yHdsWwc5SH0Yr7rIWbcz3Khzt9fKeQgW1QfXxICfzuUux/3VmqMjbuTTbRpXXx92ucgt8OK6Ykke6OpnZ0ffH8WkznmwJB4+4koM9XnHGH3gojxxE49x0yJHPzK1n2sx6Dpdjvs73EOPmuAfX/CJDzG5Jkz1RK/icXZt73ri0nFEbvURE9ou85FcwIAPPCEeWnzQ0l/njTWjv8cw3csR9BwHZ2w6/6t9ZWjpxw/zQM7vntPoIM/nzF6g+nrmdQ4+NqT/isK4UEqeSlYngUSsxHJCqje1LBZ8JDsyXENkcsOeD07GmDCOOXnoR6b6RpdJ4cRXhnsnS8WOcT7EXGPBx2oCVv16TRw1NuyBYX0og6F+aMVUzGo+d/GvMdXrGh9+8O3iLg7gVHWokTmd1VHfOqB3VAd1aGuc6E04VnmvjVNfvX4fyQVbtW5yznkgNsQCruJpbFPb+a+OOWObB2nlz2SH2GruxAmfnC/qdH/IdRllp5Yc0ZnGat/VuhO/HCF38q72+vVOvmKPLefXlbmkDriDo7GBsXWvXBDDWgN0lGVceWurTs9tuj/CfYcH9pzjNQZiJc/KrZ2dFa5TvL3PjSP2+5j32Dc+Wmvw2esiXLUmrH3Wmr7pmXEFo76WUvPKJ3zA9QmXK3yVZ2ApXthefVgHqqybdWvR287rHu+VvPANLsbGNX3YsM/5v8O6x1jvwaPGDJ/6cxj5s/MC2V0su7lxpR41h9X10Vqw483VnJE/i+UUb681WFBn5xz1pk70od/ld9xA1vUCO1xrh3r0eWx8cEueIdO5rBztnZpf0XF92OViPNjtnBZPZXZ2HoVJ9VXnMVgSDzEoU7njOHOOXKyB6/wV3NTRz9QSR41PrFbcwwaxXdXRN9zDR+Xkam1Xh7bHKU4VxyrvdZ/n3DtG+5FcqIV50Pp8ce4QozWgtZbV/3Rd+asOLfawTQ7O4UmfPveW6qNLzejvOtUfcubR5V7tPgcfTz74uEMIyAXJps0UpJaMTpw7Ph6p4wR6pM3YWp9SB5tgEw6EA6/CATfCbLxeJaa7cVx99vIs5ll9tNm8G89P17taj5+OV/LPcyEcCAd+Ogdy8PENDz44IWQztSKvJ4Q5+MgCt+JI+sONcCAc+AoOvNPBx5Vnr3nz7d5X4PwTfVypx0/EJzlnjQ8HwoFw4D85kIOPb3jw4U+XVmT2J1rTT5NWOnf7/WnW7pAlv/j4z0l3F+udnodd7/Ct6i7PjH0+l4JxMH4kBzwAeIe16cqzl58HP/vQ452wnzh5pR6T/mf2iT0xfqaf2H7seu1+9Sv2z6nd9dplXl3HLDz7T8xy8PENDz482GBjVf9OjZ/T+gLM38J9BdmPDj74OzgfJDXWr4jtJ/mw7u/wcvGT6pZc//OBFDzeDw/+HOHoBfW71P2Vnr1nMPMl4V2fC69cD7HPwcf3WtPcr+bg4zXrlnn1mnU58zx6FZkcfHzDgw/IwzdJbGb4kxcXaq5X/wjNMwjHQQw/Ra3xsQl+RizxmcUyHAgHwoGv5YD/BoPPAJ4H3/3fu/gOz96fxPPU42vn9E/iVnINt8KB9+NADj6+6cFHJuP7TcbUNDUNB8KBcCAcCAfCgXAgHAgHwoFw4PEcyMFHDj7yC4xwIBwIB8KBcCAcCAfCgXAgHAgHwoFw4G05kIOPkPttyZ2T0seflAbTYBoOhAPhQDgQDoQD4UA4EA6EA9+NAzn4yMFHDj7CgXAgHAgHwoFwIBwIB8KBcCAcCAfCgbflQA4+Qu63Jfd3O4VMvDk5DwfCgXAgHAgHwoFwIBwIB8KBcODxHMjBRw4+cvARDoQD4UA4EA6EA+FAOBAOhAPhQDgQDrwtB3LwEXK/LblzUvr4k9JgGkzDgXAgHAgHwoFwIBwIB8KBcOC7cSAHHzn4yMFHOBAOhAPhQDgQDoQD4UA4EA6EA+FAOPC2HMjBR8j9tuT+bqeQiTcn5+FAOBAOhAPhQDgQDoQD4UA4EA48ngM5+MjBRw4+woFwIBwIB8KBcCAcCAfCgXAgHAgHwoG35UAOPkLutyV3Tkoff1IaTINpOBAOhAPhQDgQDoQD4UA4EA58Nw7k4CMHHzn4CAfCgXAgHAgHwoFwIBwIB8KBcCAcCAfelgM5+Ai535bc3+0UMvHm5DwcCAfCgXAgHAgHwoFwIBwIB8KBx3MgBx85+MjBRzgQDoQD4UA4EA6EA+FAOBAOhAPhQDjwthzIwUfI/bbkzknp409Kg2kwDQfCgXAgHAgHwoFwIBwIB8KB78aBHHzk4CMHH+FAOBAOhAPhQDgQDoQD4UA4EA6EA+HA23IgBx8h99uS+7udQibenJyHA+FAOBAOhAPhQDgQDoQD4UA48HgO5OAjBx85+AgHwoFwIBwIB8KBcCAcCAfCgXAgHAgH3pYDOfgIud+W3DkpffxJaTB9LUz/9a9//fLvf//7l9/85jeZx1nLw4FwIBwIB8KBcCAcCAfCgQUHcvCxACYveK/1gpd6pB7hwH9z4He/+92vBx9//vOf85DLWh4OhAPhQDgQDoQD4UA4EA4sOJCDjwUw3+kl649//OOvLz988/uIuLH3z3/+86E2PxoXL3j/+Mc//jem3//+9w/J9SgusQWPV/9W/be//e0v/gLgq/ARv7/85S//6/vvf//7l9RG33fav/71r79MGBE7XLtj81k6f/rTn37FHn7+4Q9/+HWOPJOvYMtaxOc7cGFVt2etOat40v/fB3/BJJiEA+FAOBAOhAPhwFkO5ODjmx98sDn3ZffoW19eQngZOZKDPLxE+/JylkxfIeeBzPTS+mj/Yvu3v/3tV4xpH+3jrD3y3dWDl14OhuCC7Vcf1HhI9B1edjmo4QW94u/BUe37LtfkAv7UX76S47PiZ4357gcfYveVa44+02YTFw6EA+FAOBAOhAPhwGM5kIOPb3zwwYstm3Jedvim92hyXDn4wNbuRXvyRTz6IC5exJCjfdRLmPY/++BDbH059hCEb9en3D+77+jggzjhAXESO4cfX30AYYxX/H4FZ6baeMghR7kHszOHgpO9V+gjfj5g6i8/PnuerPK+w4WVrWf3f9Wa8+w84/+xm6vgGTzDgXAgHAgHwoHX4kAOPr75wQebcl52z0ws5Hgh4SXvjPzVgw8ON3xx5IWSlzC/9eVl7IxPvylevbB91UsIL44eehg3+K1e6s1T2Ue34AcmEy7Uk4OmygMPFM7W+hHxEttVHB7Bmbuxg5cc5dBI7t6190w96gw36zx75IHjUW7W3jWjt98Z269ac44wzvhrbZ5Sj9QjHAgHwoFwIBz4XhzIwcc3Pvj47Mnmy8tn+6n2j14yjsarra+69qWP2L7K5yv6CQ7fa/H/TA69Exdecc35zNrFduZxOBAOhAPhQDgQDrwjB3LwkYOP5cv6Vx988G0137zjlxenacK94kuIv1LJwcf1X3xMNU7f93/Y5uDj+9cw8zA1DAfCgXAgHAgHwoF34kAOPp548MG/F+HhAm19cean6/wjhY5zXf9sgZ+xewiADAcG/GlGlVEXwvqTfvrO/uy86kv6aodx/sTC/1VC+fqPgB7loV1elLpt7dEqZ87Ic1BCzsrht/7UH9/KI1MPU3pc2rfFDnlV/enPIfhTDf33dsIZvzVPbNZ/n4W6evhDy33tw4cx1pbcKl+oC9hUPCY7Ffcpv+rj6BpbxAdmyvLnJMRSsSGuR3AGHxVL8CZfaiKGxFL/BMi4ztb3I5jhl5oYS8XA64kjxmiLTM0Te+RV+fwV+RhPb8Goxke95WLlAnmYN221U8fUkU/wRVny7Hjgjz7GkFNPO+p2vQlHZWuLHeKteNtHf/dTx/CJLVpkwaquWY7rr64n1Z/jabMBDQfCgXAgHAgHwoFw4B4HcvDxxIMPSOsmmBeHTmI28myW2djXMXVo3ex7iMJm3hc9dPmo68tI32w73tuu77j9+LTPjf2UBzLo9BcEdWk5EGCj7wsUtrn3o6wvFYyDCy8K9UWXHJW19cWzv0iIb8UIHV5O6CMW4qIPXe0wrm36xR5546VVV1lb+sWwHno47stP9UNN1VHO1ngnPvR6aAcc0fOlUU7hY4pJX7uWnNHvdbYf/LjWxkc5ox15TdzkSy7YJjfi6RiIF/3WiLim+uLjDmboYI8YzJk+Y6LG9OvfXHpLjOQgF5C3z3n8Ffn0uLyXN5V75GWenQvWnJy0YastdagncubJfDV31x761GOMe/yjpx3sq7fD0Th6ix3sWUfG8SPvqh/H9GfszmltqOt49amusnUs1/c2OsEtuIUD4UA4EA6EA+FADj6efPDhSxUvSX1C+oLsZp1xXwb6ZpsxN9e+bLFZrwcBvnRMm+3um3v0+dQxX7JqTIwb65SHOZ55oZ5eMqp/x/GDXcfEpcfLuDrTi8SUozh1efsrpthHDjtTTYyvt774+AJXx3mRo4a1j+spVnD3BbvL66PXSjv4qTq+QPb+KrO7XuGAvV4v7DyKM9al+9A++XJt7MqfrS96VzFbYe/8OcMV46Q1dlq5br9yn5lP9e+1cUy57PIUS+3YVv5Qrz5vXd/MWz1aDwvgmng4t7zvesbf+6tdrnscjtd47bOtPlmn4CYfDkyQqePq2K78OZ42G7dwIBwIB8KBcCAcCAeucyAHH08++IC0btrZiFcSs9HvL8C+ULmpr/IeMPhigawbbeR2m+1qx2vteO8Gvr9IO25sPQ9eRnoe6vT2aNPv+BRDj1fb6vQXQ8ZXOurWdvWis+qvuv3aly5qX8eoFzGdzQ8eID+9vFnvfpBhzpUbxLB7Wa0xrq4nHLDZDySq/iM4Y57Ml2qba3hHvlPtu+wUvzJXMVtxTh/Y0/aqBTfk6qHNSnbq1xex9PGr+XR97q3dxNUzvrtNdYyNuVFti0c98NSG8wBd5CoX1LuL41EtJ3zlpLkgU+N2nNYcbFf+HE97faMTzIJZOBAOhAPhQDgQDuTg4wUOPty01xdUXkrZsPeNsZt4XhKmCexGexrfbbZ3thjjRR3f9UWk6zCGf16IHNu9yCtT26NN/27c3Ks9ru/odBvc+2KGvTq+6q8y07W1rC9k1Ij+fiiB/pSfuTk2tT1eZXpMd/PQTtc3l/rCp6ztIziz47X4EJs+V22Pv8pdxcxDgX5A6YFXr0n1xTWYrXx22dX9I/OZfBjfhO2jfR/hoT9iqrEe6VXZ1fWKQ/qcarnjJH524yt/q/jSn41cOBAOhAPhQDgQDoQDxxzIwccLHHx4OFBfeHlhqveSefeygcxufLfZ1n5ttVXb/iJX5bn2Zd4Xd3zS1+VW90eb/t24cXbbd3SwwUs5h1Hqa5/76mP3AlTl+vX0032wArMuy73+65ixEUPt311PdpC/m4e+1Ne+7e7gA92PcmbH6x0+Z+tLjOZirrbmvOIEuVkbDrj8dZd92umtdvHbx1b3n5nP5FNMplyMv+OCHfW6zZ2OYys8VuOr/u57d7/ikLanHHecxNdufOVvF2PGjjc7wSgYhQPhQDgQDoQDP5sDOfh4gYMPJqHfEPPywj0/0Z9egH1pYNM9Td7d+G6zvbPFGP58QTXGSYeDAmLwgGSVx6RL39Gmfzdu7t32VR1e1ImbD7n64r560Vn19zj6vd9G44cxfIGxh0ZdfsrP3CaudH3vJzuM3c1Du10fDuCLnMRQ2dp+lDM7XosPsenzan3Ru4MZ+VNbdcGBeV5jMabeiiW6fazff1U+3a95TfkYP/iv9Hr/TsexFR6r8VV/9727nziEvLanHHecRHc3vvK3izFjP3sjl/qn/uFAOBAOhAPhwDEHcvDxIgcf/gSeFyP/rGR6AfYbYw8WKsn5RtmXkdrv9W6zrUxtuy03+rsXWV/m/fv83Yt89eX10aZ/N97jPbK5wsuX1fonKNgy//6is+rX/661nuDGNTVayU/5+auR+mdSK337JzuMfSSPlb6cI7eJz+h9lDP6mLCb+HK1vsR4FTMPI1Y5Y3P3QU+f2NrJfkU+k3+5O61Frmd9rmDHvLrNHf+O8ODQELvd35Fej2G6nziE3C7eHSfR3Y1bT+xP8aRvP3eCT/AJB8KBcCAcCAfCgYkDOfg4eAGZQPusPg4J2LzzQrF6kfVbdDbHPQ430ytdx2m77nQ/vaD4gkGs/WBAG74QEeMqFmV760tGjbH6cXx6KZjixb469R885IXIX9mgV+NY2VEee1XeF6B+yFPjrvL12nqK2U5nikvfjE0vyFdw0lbPT15OtmouK304QHzkWOXrtfnf4cyO19a+xj7hSCyr+jK20lnljF9y2dWz5j9dGztx9XEOFuxbxfbIfPRVWw/dyJP55BjX1rNzCRnj7djIk0kHPfOZ1hSxYn0yDlvHjnBUvrfqVw4hY+3Jv+vQR551HasycrbPCfvRrf5qf7WT62zswoFwIBwIB8KBcCAcOMeBHHy80MGHLxJsevtLgYSuLxW8APjCUV+g7VPH1g18PQBwrLf4P3pBYdM++TKWXR7dn/dVlzj51EMWXyj6Cw5xGG8/AKg2wYyXCOx4iNPj1AcvSrx88JIJdtrpLyvE7uEAY9inPYNzjXt6oRMXX7KItWOOHv3EYH74Jgb66wvUzo549PzkTbVjXLVVH/xqP9diuspRbHstup3p3vgmvPVbDwrsO1vfO5j5kk4+/WOdeh17bvC480pu1bp+RT49Nu5ZI4yPGIhN3vmLD8a7rtjABTDgg64cwFbX4b7igSx96Mr/FbeqnvNzwnHySZ/49jWHMfM3HjABAz7UaBeTvIC/xEOLvHyu/hhXfhVn+s9teoJTcAoHwoFwIBwIB34mB3Lw8UIHH2zQd5tlJ6kvCr7YouOGnjHlautG3M0zG+k6Xq+Jw80+8lzTp0z1y8a/vlQiQwxn8tBeb2usvCTpe+WXl40eb48Jm76k8GKhTfFAXx3GfDlj3BjqYRA2atzoGAPtDt+qx7W+sN/HuK+2rUeX5SWp4kMMvERVuZ0dchcffNT8zAv9KT768F/1iUVZYqhj2KtxIXeXM5UrxF1x9wWSfvzfqe9dzNCrORND/1B3MVq12JEf5kFday26zI6vyFpP7NVa7DhwNj45Vw+L4EKtN7WuOZ3R0T92kK85UOd6SKBsbTtG1KbjWOW9rnMKne4Hu8owDv/Ij9Z6r+qMLfOglZ/yVnvEUu0ZW9qfuWlL3VP3cCAcCAfCgXDgHgdy8PFCBx/vQmJeTtj0H/1C4F3yfec8PJCoBxmfke+7cYaXV15mwa/j5S8bmCN9LPf3HmTBLbiFA+FAOBAOhAPhQDgQDuw4kIOPHHw8/OWLb1J58dsRL2PfY2Him2a+eeab7c+s2Ttxhm/yOdTwzx8m3Pw1wDSWvu8xN1Kn1CkcCAfCgXAgHAgHwoHvw4EcfOTg48MvtPy5gT/T5gX5nX7t4U/2f+JBDr9W4Jcen3Ho8c6c8c8SVgcf/ormJ3LqUZsD52V+NfN9NhuPqn3spObhQDgQDoQD4UA4cIcDOfjIwceHDz54geMFmRc+ft7PS+0dMr6iji9YeUl97AL7zpzhz3b4lQwffv1R/9yFA0Lmylf8iuYV59OjYnJe5uDjsfPyUfWJndQlHAgHwoFwIBwIB16NAzn4yMHHhw8p/IcKeZnj8OPVSJ54Xm/hfXfO+I9wcsjhn7XQekBYD0PCz9fjZ2qSmoQD4UA4EA6EA+FAOPBeHMjBRw4+clARDoQD4UA4EA6EA+FAOBAOhAPhQDgQDrwtB3LwEXK/LblzSvtep7SpZ+oZDoQD4UA4EA6EA+FAOBAOhAN3OJCDjxx85OAjHAgHwoFwIBwIB8KBcCAcCAfCgXAgHHhbDuTgI+R+W3LfOQmMTk6Qw4FwIBwIB8KBcCAcCAfCgXAgHHgvDuTgIwf8N829AAAgAElEQVQfOfgIB8KBcCAcCAfCgXAgHAgHwoFwIBwIB96WAzn4CLnfltw5pX2vU9rUM/UMB8KBcCAcCAfCgXAgHAgHwoE7HMjBRw4+cvARDoQD4UA4EA6EA+FAOBAOhAPhQDgQDrwtB3LwEXK/LbnvnARGJyfI4UA4EA6EA+FAOBAOhAPhQDgQDrwXB3LwkYOPHHyEA+FAOBAOhAPhQDgQDoQD4UA4EA6EA2/LgRx8hNxvS+6c0r7XKW3qmXqGA+FAOBAOhAPhQDgQDoQD4cAdDuTgIwcfOfgIB8KBcCAcCAfCgXAgHAgHwoFwIBwIB96WAzn4CLnfltx3TgKjkxPkcCAcCAfCgXAgHAgHwoFwIBwIB96LAzn4yMFHDj7CgXAgHAgHwoFwIBwIB8KBcCAcCAfCgbflQA4+Qu63JXdOad/rlDb1TD3DgXAgHAgHwoFwIBwIB8KBcOAOB3LwkYOPHHyEA+FAOBAOhAPhQDgQDoQD4UA4EA6EA2/LgRx8hNxvS+47J4HRyQlyOBAOhAPhQDgQDoQD4UA4EA6EA+/FgRx8vOHBx+9+97tf/vnPf/7y73//+5e///3vv/z+97//5Te/+c0vf/vb3369ziR+r0mceqae4UA4EA6EA+FAOBAOhAPhQDgQDqw5kIOPNzz4qIcdf/7zn3/517/+9eshyF/+8pf8uuMN650Fbr3ABZtgEw6EA4/gAM9Pvkz44x//mOdonqPhQDjwaRz4wx/+8Ota89e//vXTfDxiTXyWjT/96U+/4kP7rBji9/vuK3LwkcU7C0c4EA6EA+HABznAZrX+0o5f2WVz9H03R7121PMf//jHrzXuY7l/nzqnlvta/va3v/31l8QcArLe8YviYLbH7A4+HHqAMXjf0X93nazFj+fcu3PG/HLw8cHNrkC+YuupKAvEK8bXY+LXKSz03yXeHn+/Z6PsixC59fEr93zLCDZ+rui+gyz5iyUY3MnJjQR/8nVH/yt03m0OfAVmj/Zxl2vwksMPv6175gsBvomHX/s9cuPMrx78BSG/LDzC/i6WR3YfMV7Xk7PrM39GSv7++ahYPLPWj8Dis208iwc8g60R8/Kz89zZlzvMy7t8eRaONS/mCs9Q9zdn1oGqf/b6aq7gy94RfD+C8dn4rsjdWWs8aHVtAmfy8v6K/3eU5bnG3IYncvHV6n4Vd3KRv1d1z8i7NwE3MDuj844yOfh48sEHi5gPZgh/9BCBrFWehX7a2PJg1R7t7s9cnGh3H8aPmBhOSBf3XbyP8PcVNnwI0z5ikbGm1Osr4n81H/Bcrl6NzQeKhx+v+BPJd5wDV+v0KvIf4RrzlDV6Wpe/Ij/84p91x/aRfp1LR88qfX4ES218Vuvzpr9M7NZa8kceXfHlxeYRa/xn5Vntuobeed6Tt/pnW/08gwd1DjxzTsIN9wMeGtSaXLl+Bo6r+OD9Zx4o3cnVQwZ5t4r9q/tXaw1xOJd6zBzmwBfnnTbo/+r47/gz3r6+3rE16YAX7wpg9B3X4ppTPRj9DLy075pIbar/n3Sdg48nH3xANjeSLn4s9isSVlkW+EkOfRYB/z5QHdpJXr990Z1kP6NvFe9nPlA/I49q0xdsa1DHPnJtrT5i4zvr3smfBR89+e98eKXNwzvOge/MM2K/wzVfcJ7JLTY2fIjFzc4jD5J5ToDNlY3THSy/gj++UPSNpjkS9xQH8jxjwReceRY/EuPJ56P6rMWd5714UXvyJqYJK3mHr+pH34/KZWeHetQaOS92Op81xosZuXee3fX3lTiuYgTfR+9vJl9Xc/Vlu/JusvvVfc6diQPmOMXs/HL/Apfg8lfHf8eftZhyvmNv0uFLrD7Pv8tabD4+Q8jjM957sO/6x7Xr82fWxdxesc3BxwscfLiwQUwWwN230ch4or3aeKLfH0gsmiyYEwnxz8eNzCTzmX2reHsOxuBi6v1Xtmd9E7sPqo/E5wNxalf1/4i/V9cVhytx8hDsteD+lR6OV+fAlfwfKeta9RMemHe4NtXxkfgf2aI+rAt1LWeT0/u0Qx3JEz37jlo5cGX9uYPlURx3xs3XeHorDuDHtffdF7mDq/07jJX5aGvsq5jO2jevypGzusZQv5zBnjhWO6yx9Nd4J7mq86hrcmOvVGtEX6/bo/yJS8212mbv9cgXmq/CseZQrz2or32fdX01V2rcefdZse3sygnj723lCtd8pjnZ9y+fyWPzIRbiJQf77rTMP2zV9eKOnZ0O9a5zy7k/Ybmz88yxj9ZUzq9yAB/Ww4qJz6yVzjv35+DjhQ4+XChXv+SAqCxGbK5pIfs7k3OVmw+Q1fhn9j/TN3k92/9nYnvG9k/P/wxGnynjGvXRDdFnxvgo2z+Ba26Y2Jyexc1N8ZXnz6ti+Z34fKdWZ2t6Vg682EBXeflAjWs/m2z6KrdelQc17jvXX12bd8Vxwv5qrl9diynmqe87rTXfKdYJ65/Wd3WO/DR8er4/6uBDckxtB+Yr79040PprjvpNhbHwKwI2Hcpf2Xhq47u35k4NvzqXZ/o2V7nr/U9rf3r+z663m0o2Rs+O5bP9vzvXeDHlp7Xkydp2Fk/XwSvPn1fF8rts8O/W6mxNPyInH6jxkZ1X5cFR3LvxZ9TmHXFcYXw1V59RV9a0le9H9n+XtYacxfAnPOcfWeNn2Lqy/j4jvlf0mYOP//9fgH5mcSQuLT9rY6HvP8P34crPR5VfbTz5WRmHJB6iYA/Z/nN/DleqDHZ3OEzy+PLvV9lE17j5eZX2abt/fZ2NF3036j4MbXdYuIgjSxz1Z3HVJrZXMVY5fdpW3+QCBhxQOd59mveupRbiih1io6baVFcu2F9r2MfUQZaYvIdbPOB6zPQxhpy2aq70g2XFF9vc86sk7fe28gJ5xuFWzZdrsOy65qmOvjv3qt7Zmjj3zAEb5AFW9N2po3lV3oIztewx3p2z5Fexw451qz7o6z7E07bXV/3uQ3lb+FFjcMNEa+5c81GHVvu0dcw45F3HC9nKV3ygg3y1ubo+o2+c2KCOO65Na+PKt/01fuKhPnBQvMDTOh751ybyPTf8aF85cKr+zdVWuam1JtYImZ4/dmrNqt2jXLDvnEOvxlDjrv6rzHQtLtUu+VtT8FGvr/X215Y4Kt+x2+cda4e17LFWH9V39eF1zVkca4tcjUV7tPrnutcIu/r4SIsd4zmyU+U+mwdgbH3xa42m5wpxEw84ihk6cKTyuOd3pjZ1nlkb7FQO4Iu+ao84qnz1fQXHqjddMzfIsc4NrsECrIipjlUbNd7OceTQ/+h+qOaq74op48TnmDUnNnPTBjnRpyzxKY8MOnWsziv7j9ora82ZOUmM1Ede0hIXusbykRppgxZfNWdxs8VPXVesed3T2VdrtOJx9c219ap807et9tU9O8+P9nfEK6bGoc/OG32vWvVrHlxjB4yr3tn4q47XfQ0xXtoJp1oTrntdjjAih/r+ZBzfrc3Bx4sdfDApIC2LWyWTBGdCsfhMxEaeiYsuHxdxbEp4iF3tco0s9pTv4/1eeRdtbNYJw4aPeyYeE4sW+3z6pL8SL7Lmbrzc82Gsx+k9mBnzNGmJUXvq9PaMbx5O2KHFJzbAgj4+Pffuw3tqjTw1U4e24qgsbcekjmkLe/QTF9cuitzLDWJVxlwYQ0Yf6iFnzWmR4aNelavxeI0scfAhRhZU6oAta0UfcurQTjr6ZMwc1HGMVlu7mjhGLOiQR+UwsVkTfaxauEZM2FBH+/Srd2UOqCNG6IITuFXsuFaWltytM3jTR0xucohxN4/QZ7ziyb0fsdUeuStrzcARv7T21Ri5Vkf+iKG6yEx52Fflum3vla042Ff1jbHy0/gY61zDvnUBF/3t2ooXMWCfGLTDOP4Zo7/6N37t1xobG33qYENZak+M5o28tTyKnXHyt0batJ/Yu42rWMJrdbRvKye6f8d7O+GCDPjpo9adsZ1/9cBV3juvK8bYsX+KlTmK/+67x3+2VpVL1nzKT271GnW/Z++tO76OdIwHDF3za6zyVju7Oux4oM2pRuTveqyfassxa7fL62pteq3ND36sMCE247S9iqN6vSV+8KAW8oG2c8Q4JywqdtX+rgbYEeeqM12bax+zv3MGLBmjf3o2Mk+6rZ6v48xv/di3a++sNdhb+Qd3xlhXxMv60G8fNu7UqOdC/NivtePeT1/vWMNcD8WprnWuSZ333S/3FTts0kd+2sAucZCn+jXOHlvHBx3nNPGgi02ufQ6ig33uyY0PfeSGvH53LTGjczSnsHE1/u6XWMFE7K3TCifnCljpmxyr3RVGzqsJ16r/Ha5z8PFiBx+QxklYH3j0OfEkel1gJJu6yNhHy2Ssk6OOSeiuU2XqtfL4crFhnAVEH8aqnnH1BdD+7nsXrz60faZ1kjvxqw4LK3HUvtX1zje4sChUTLAjXpPv7sdFc7JTMel6+ug4ImfMxMUix7116PfVrrUBO2trDvjBDn6rDj6m/irjtXHhp2LGNfkzrr8jHfPo8XA/YSle3b554duHr755kE39jtfWHCbf4qq89712td59zPg7dm5CiFX7tORJ7H1eVh9VfnUtD+RPl3Oc+PAFDjycwaHqEAufri/+6BObeZq/9qstbLj57v3d/hV9Y+wYr7iGrx5v99/vjQd86oZOHIjhrH/jmjCQu33sarzEb2zo1nyod8/D8TtYqqMN25V/x3u7w4WY8dNxwcbkH06SY59fyLtBr+vGLlZrP/nuOXB/VCvtIbebe0d2Jt+7PnMEr50cY2J6ltNVp9vWb+eha0HvR99617Era3WPwfsjTK3NVGsxITbt1Vh7P2PqXMGx2vZ6FbdzBoyV1af3tqs6YJu5Ar7K0uqzP3urTL2e/Pqcq3NNHe33tUheYE9ZW3Vqvo5N/h3rrbhNdZZ709jKP/XFP+tO9bV6nq9iXdWo2qzXO74iV+0RI/FRZ67JRVtHdpSjXeWE7Skv61n9aU+s+5hxY69yxzWA/iu80V9tV7WUG3LsTvzVT72e8HFcP9M6Qq7oVn6tMMKe+4iKnX6+U5uDj8UG/CuLKNGcEC7qEpUNMeR0Y6x8n9TKTZsy8nFjxgSs+a0mapWp18ozoWq/cRFr7ed6WgDvxrub5N2v9/piYbaP1kX17ES+43vKvcZQr1eLvzIr/9ZEDilPqw4t3Kj1d+GTW1XPWNBDrurJpbO4VbteG1dddB3zIdE5vtKRe11ee71d1UQ7nSfo+zBFt9vr92LnHO7j3svLu3O2z0H5DE76oF3ly5iYTtypNo7s1PGjOuiz2xd/x6lD5Zh8nTjTbU33V/SNofsyxilH+tA7g2XFq84t49Z/t7Xyv8tNPnZeX42X2Cb/1Aj/0zqCjrlcwVId8bCd/Ds2tTtczsyLalMcpzVAW3XO72JVfrJVfXp9VCvtTbzUBu2RnSp75tocqdeRvDX9TB7snk2ut8ThC7k1rXU7yqOPH2FqbaZai4nxaJs5xdhUT3Wu4KhdW7FYPXuUs9Wn97bWf4pTmdrusKhyXne/xM2crs8FZWmtxTTebamnDrnYZ7vScby2d9eayb/1mXAV8167VazKT7Zq/F4f1Uh75Nt5qw3aIztnZc2r1ufqPMeXcffnIGPWYDdHa7zTtTXrdZlk78Q/2aFPfKZx/VTslDPnOld2GF3ZA+vjFdscfLzgwQcLiUTmGrLViSox+yLmItP7Jd5qXPJPE0Pd2q7kV3Ghq++6qNh3NV6xqTGduWYxQpfFSXleOM4sUsrf8W2eNXft9VZsV7Ir/+pNNVzpuEgz3uPg3npO4z7gJ3+TralvFReybkY7N1Y6xtrlJ7/0rWqys7PSmXz4sFnVUR1truJejV+tt3gSl75p61pT+1fXxrPK62hcu3fqeMRXba/aq/p3YtzVZYprh9cV//IWncnPavxqvNjWlpwlB9aDuq72GK7kou4dHXVtjXWFy1X8xcvYplZciEH/tc/Ydr6Vqa2+sVn7vT5r78iO9s625rjCuNoRr9rHtTYmnK7qKL/CqY+fXat7zPX+CNNdbYyn2ns0Jt029z4TJswn+TtxTnZ2WEzy1S8H/aw19UWt6+xqUW1VvTs6VZ9rOYyPPsb9Lu/Jv/LGvGqrL2VqH9fGdrbW+qbttq7YO7JTbcvHs3sUcz07z4/inmpgfPryftWawxmctXkl/pVfbU3jju3aWucdV67Uc4rlVfpy8PGCBx+Qw5M1JlJf6FfElJSrSbca3034iagr+VVc2NA3rTbtuxqvE1g7Z1sXJb9d5aUPbOk/a+PINzaxx+LNYZXytDX3lT+xXclqr+urNy2iKx3rxXi3x/1uXJuTv8nW1KeNaUzfnRsrnZU8tq/UZGdHvq5qU/OwHkey2ux5ams1rv0J/wkjuc6YfKfPdeYozh7PSt54V+PamWJkbIe/Y+hq50p7Vf9OjLu6TLHu8Lri/yi31fjVeGuNjM/2Jx18gOdUz94n7tP83tW+2+H+qFZn7R3ZmXzv+swRHuzkGJMrXU4bE05XdZRf1aiPi8fRmtVjrvfaWPnc1cZ4qj2uH4lJt829MU2YT/J34rzy7J180qff2voMm3R2tdBG17uj021YL3z0Me7Fe+LZ5H8nP9mnb5WfsZ2t9ZHvs/aO7NQ8ru5RzJVYqh2vp/Fd3FMNui3vV635nsF5iq/aPRqfZGuf19rx/qjdYWR+tEd2Xnn8Rx18vGohJFqdwP5dFi/mfFgUjF/5PrkkZe9XbzW+m/Dq1nYlv4oLXX3XCWPf1XivTmRj52eh6IInfXxr0LFVdtXufGuPfKifP0M1z5r7yr7YrmRX/tWrHNLHSsd6Ma5sbXfj2pz8VRu7a21MMvK/c2OlY6xd/mpNVnaI8ZF1NGdt9riPxu/UmxdT1xNxxM7u2zPjsDXeFT+PxrWjf+9td/g7hq7yV9qr+ndi3NVlinWH1xX/R7mtxq/GSw7aQpd7XkKIFW6tDj+u5CJOd3TUtTVWbNlX26v4i9eK/9U21/oXqzq+813lvNY3Nu2r7Vl7R3aqzTPX5rjCuNq4U9OrOsqvcOrj4nG2pjUfr7Wx8rmrjfFoy1ZcsW2f7R0ddW2NabKvTG2v+rz67K2+6nX1CyasM/Stnlu7WlRb1ccdnarPtfXCRx/jXrwnnk3+lT9bH3ys8jO2s7b0PcVacz2yd2Sn43Rlj2Ku5NbtVCzq+A6HqQba1Zf3q9Z8j3BZxVft6rPGX8frtbK1z2vHzthBZ4eR+a14oc9Xb3Pw8X/+zzhpvrJwEq0T0wWeb2VrPMr3yeXLInpV3uvVt7u7Ca9ubVfyq7jQnSbM3XidyDWms9f+rBXf/InL1Qm88u2hyvRnM1Puq3j9ty36z/2Q5/Br5X9VE/RWOtXe9MLCxgLdzjNs+muW3TcvqxztX8XFuJh17q90Ju7dqclkx3iN6QxndnXUHu3dOXC13tSampFf9X/1+giDo3H9XamjOkd8VW7VXtW/E+OuLlNcO7yu+D/KbTWXr8ZLDtMcMQ84Riw91yu5qLvSWeWiXm2PcHGeEn/V43ryr3xfl7qu9xNWjq2ex4739qhW1mDKpdo6slNlz1ybI3gdyU+YoqMNYus2VjorHuyeTT4TaqzWdHrm9lhW90eY7mqzyu8OJjudHvvRs6fLr+Kc6iDOH90PEUP3a46rg9ZdLbotc1zpmAd6yq7aj6w1k3/rM2G4imGV31SjlQ36d3xl3BoQ90fsVF3wu7JHuTrPj+KeamB8K1wdt7Vmq3cw5WjvxF/16/UuPv3Agaqzut7V9ogXK5uv1p+Djxc++PCBzOJbiePk6osOC4eHJchUnTrW7e0mfLXh9Ur+6oSpMV2J10mOP2PqOdnfW7HjYYKds3raWfle5U6O+jrakOLD+PDTDyPcKDNmPLbWpC9uPvAmHXQ9CJo28iub6LkAkhs5GgctcZ/BVSx77bHhYl1rTL861R/XE/5TH7K7mqx00DPnM3XUDvH2OuKfcWN59JydMDJ2/eL7zkc7cEN98pEDjh9hZIydJ3K82tcPrZycXlImHlXdq/rG2G1Y2ylG4zuL8w6vq/71zXOjx+xYXx/sr/XqNem2VvlbO+Zu17maC/rq1LoSm+spsXc/071rSecM89K5V/PXhv69pzV3xvq8dnwl7xxRTvuT72rD66Na7bikDVrtVI6qS0xV9sx1xeRI3py7nDammqpzlgfmMvHQsfq80zd+ek3rWt1jrvdiin376zzSbx1Xzvy8tzWuHSbK2u50lLElN/k/fYFR8UbHOGv/aj6u4sCn83fCwthqq9/a576G+CvOyFgLYqg6XE+2qk5dO4nV/RF63dZ0f3etmWI+qg9cRabGYX5nalT1+rV8rdzDl/5W9V3ZOVNrfU5163a5V/7sPEdnF/dUA/2Kq/er9qhmtS534l/5Nb6KnfNCP9NeHXtVx3vs1drrV1u09tG6jnRbVeaVrnPwcfMF4JFFdBHvm9KVDw9EIHKX0RZElIRMABfkyYeTpk7Kbrfer+TRd6zKc23MdcNB/514fRiRIxOQ+2nx6zF47yTtsTi+a1e+wdjciQnsyY24XCzqQ3Xnw1oRJzro04c9Nw19g+bPzZFzwaOv1sT+6hs74uHmh8Xbl5gVRsgYJzEZp/gQc/UzXYsXdsxn57ti3HMxT3LRV5U/WxNrRUzasRWTs3VUnpi4xjYt9/WhcmcOiF2fszVnsDR2+aFeb6mbNVBnapFRFx1yIh/jcPNwhJE8AQ/i5IMt45zWNuKpfKVG6PCRi655U+xX9CuOZ7imP7ERD/tX7Qov8NBWz0mud4wqNmfnsnjji5rxoZ495xq/fO3+kaEPW9RVnbtYyhHiMTbsG/PkX5+1FS/iAm/4QnxcawtfVQfMxb/OI2TQZYy4uMYe8a04iBzyxKtvZNGhv2JVY+jXxoqOeNRarbjU7aDPp3KUuOzv8kf38gH9HW++igfUy1qArfUTP8bsM7eppvSBL7gqt2q1DQZXarPjmbgSb/V7F8dqw2t9ELfrOfHDVXKvOF2ZjzVGuEWe+CIXuYYf41i11Q7XVc6a9XoSO/ngr8qTC/18+rOu1g+7xIidik/3X217fWetQde46pykv/q3PsTmXOda37RXalT1+vXRc94adm52O8Z5pta1BuJRW3KrdaOe+EeGmslV7XReENsubm11TCtvznBgqtk0p+7E3/H1vtad+Lm3NtUPnCYWZMBsmuc7jJxzvZ7Wue9VjO/V2hx8PPngA5K5MaLlfkcSSemCALn7ZIR8TgTksMv9REonu3J94e2xrOTR84GDrRpXj7lPmivxEg8T2YlGbnXR6/FO9/gnxo7bJNv7dr7BQHxqXHUhPKov/vBBTtggTnK1dtzzAeteK/K6qoM/cHAR1D4+ibvnX+97nOjCsx5X1anX+uq+wbD75oFX+cW19cOfeWOzcu9KTfBZ7YCB8XYOn6kjusjVuImNB7N2ba/MATlGrsQr3uBRfVWMqFXVE/vaYst4dm3FCZv6d15pk7qu7BBPXaOQJX5wUB/b1rjagQtVl7jRr5uiKt+vj/Tvcq3iW+vS/Xvf8ZJT5FxtUUcxpsV2xUh7tOiCRZU5mss1DnDd4VhrTwzEqX98V7/E/T//8z9LTk651HpPHKHvDEeMyRZfYkqMYI0tWrEkd+R39dceOGgPfXKVw8rYYk9ZfTM2+VZn1a5qVfuJh1gmG8aBDLHIqxrLpLfqq3rdZtXZYfoZPLC21IW4+JA78TJWY/OasS4/rdXK97bWoM6j2k8c+EH3CiY+i67okG+dTz1e7+vcID4wIOaOE/d13YVj9K3mY7UL15Rn7lgTsTCW2k650qfMxOWpD3lwqLXlWu5rj5yJk9jAW1/GOumoW9uet5yj1ZZrDXqrmLUJvhV3YuSefmVsr9ZIvamtaz0xilftF6uJZyveT77oI/aKhVjVltyrPjrgWmuLDTGvslPcjnd80Wds4o28UHdqKweIn/hWc+ps/JMf+8ABzuKrzrU6fsbPDiP0ay3ECB/ifwYbY3pmm4OPJx98PLP4P9U3D2A3Ej8Vg1fI20X0FWJ59xh8aE0PJjZQbvimzdS7Y5P87v3ZU3ALbuFAOBAOhAOP4ED2KN+TRxy6sJfnwOkRPPgKGzn4yMHHtyHrIyYEJ7hM0rzgPX+RzcHH19RAztdvmfpc8tuCzIuvqUnHP/fBPRwIB8KBcOAnciB7lO/Lew6s+OJs+lLtVbmcg48cfLzMwYcnvo/8NQaTsb7wcf1I+686se/ExUvvVx5GfKWvO3i8i451rfOg58ZpPQ8vTu/72Gffe+jC/P9sXz/FvjVnjv2UnJPnuc2z6+5POeT8aflmHpybB8Hp83E6+2z3efWqe5RwZeYK+0X2jt/p0INa5uAjBx8vszH+jIMPF1T+vo4/ceHljtPlLGT/vZCJ1Ve8LPnzOHx9t0XzO3KHhxNYM8cq/z0YZIy/73xGbmc3R8+I7bv6/Mq5/F0x+qlxM9f5wJGfgMFPy/cn1DQ5/vf+7RUxufJsf+U9yitim5juz4EcfOTg4603P7zYufFhEc5L9v3F4lELLS/e/mNI1IbDKP/hrEf5iJ3/rDMHTRx6uBFxTlAHDgTrYUiw+0/sgkfwCAfCgXAgHAgHPo8D2aN8Hrbh7X9im4OPHHy89cFHJvx/TvjgETzCgXAgHAgHwoFwIBwIB8KBcOCncSAHHzn4yMFHOBAOhAPhQDgQDoQD4UA4EA6EA+FAOPC2HMjBR8j9tuT+aaeYyTcn9+FAOBAOhAPhQDgQDoQD4UA4EA78Nwdy8JGDjxx8hAPhQDgQDoQD4UA4EA6EA+FAOBAOhANvy4EcfITcb0vunHT+90lnMAkm4UA4EA6EA+FAOBAOhAPhQDjw0ziQg48cfOTgIxwIB8KBcCAcCAfCgXAgHAgHwoFwIBx4Ww7k4CPkflty/7RTzOSbk/twIBwIB8KBcCAcCJUZlEoAACAASURBVAfCgXAgHAgH/psDOfjIwUcOPsKBcCAcCAfCgXAgHAgHwoFwIBwIB8KBt+VADj5C7rcld046//ukM5gEk3AgHAgHwoFwIBwIB8KBcCAc+GkcyMFHDj5y8BEOhAPhQDgQDoQD4UA4EA6EA+FAOBAOvC0HcvARcr8tuX/aKWbyzcl9OBAOhAPhQDgQDoQD4UA4EA6EA//NgRx85OAjBx/hQDgQDoQD4UA4EA6EA+FAOBAOhAPhwNtyIAcfIffbkjsnnf990hlMgkk4EA6EA+FAOBAOhAPhQDgQDvw0DuTgIwcfOfgIB8KBcCAcCAfCgXAgHAgHwoFwIBwIB96WAzn4CLnfltw/7RQz+ebkPhwIB8KBcCAcCAfCgXAgHAgHwoH/5kAOPnLwkYOPcCAcCAfCgXAgHAgHwoFwIBwIB8KBcOBtOZCDj5D7bcmdk87/PukMJsEkHAgHwoFwIBwIB8KBcCAcCAd+Ggdy8JGDjxx8hAPhwA/kwB//+Mdf/vWvf/3y73//+5e//vWvv/z2t7/99fOPf/zjl9/85jfhxA/kxE/bACXfbPrDgXAgHHhtDvzud7/75Z///Oeve5W///3vv/z+97//dY/yt7/97dfr1O+16/dq9cnBRza3T33BYeHixYtFjcXt1SZI4nnegsoLONzghTx1eGwdONgAXw87OPgAaw5COBAJ3vfxBlNwZE0LjvdxfFXs8sx6v5q+KtemuLK+hH8TL965rx52/PnPf/7fL2z+8pe/5Bmbd9jLHMjBR0hzmTSPXGB52fIl7E9/+tNTYzmTF5sOFmEPazh5PqMXmeubFQ7CeIHkpTz4XccvmD0PMw6PWCNyiPS8GnwW/7/bM+uzcIjd53E768vzsA/vg3048L05kIOPFz348MHGJovPq0w0f25GTJy8Xo2LQw5/Xu+hAS+43+Xn9eTMN37kARYcglzF4Kw8p9lidcYPnKn1OevnK+Tu8hk9MABv+ALvvP+KuH+CD7/BfuS3J+Hu//n1wM55y7oBd73/Cby6mqMH4HefLZM/ny3Y5OMzZ5Jd9T3rmfUZeKxyPNtf12C+BDird0aOuWGd7uwtzvh4lswjeNhj5wsB15Ofsr6Aoxy5M5c7hqv7q8+vlZ30P/YFmS9HqT/vC98FW+fmo2O+s6a88xp7hQ85+HjRgw+K6CaDid6LKoGfsUFY+d7Fa/zo8uLKIsBLOps7W2W+S0vcf/jDH/6rNo+M3wMDcDtjl82oG4Mz8l8ps+OHD4cpTzZ44CxvaHlZ/8rYP+Jrl9tZux5OWNujeV+xRmeFV40NuRWfq72zMf8U7q7WQ9Y2xsAUbJX7Dr9ss8bGfMQ35T/S+udWPBvY1H3EVtf1QBge97GjezBw7fFZZXuk+5Hxz8TjTlz+iQX1EY87dnY65vwVfNvF8Vljd3i4moPvsL5cwVn+sZbCkyu6d2SvPr/u+HhHHeYu6wN18rm3yxMeV3nWl+lQ1T2I82H3RY2+76z3u1ivjvVn/y7mq7aVv7qmvPsaKy67NgcfL3zwQeGcwL2ITv5nbBDwSVzdtwsTYz1e7l0Q2dR64PEZC8Hk+9F9xP0VD18xpd5nc1hx5qz+Z8qtYpNTqzzp54EIb/zWZ/WS/pnx37F9lNtZmz6wwJCH3U6vyq546kOZDR62kGMDMr10ysPV3J5iUWdV00lnxY9J9qv7VrGRH2N9PSQ+N3XWgEMPMJ42dl+dzxl/u9zO6J+V8Zs8DujA7KzeWTnzgJNndZB71jPrs/G4goGyrL91DYbHj35+u1ZOc8k4vnN7h4fqTJh89/XlbC3JE+6xzvq8Oqt7V+7O8+uur3fT89DIZ+bueVdlV/saD718jqqz4oJ+r673j6zDKuZH71tdH87m+u5r7Jka5uDjxQ4+nLBTC8EtKi8nEH23oCj70daJMsVEnxOOhxPX3ne/xF9fqrim7zM2ut33I+9d0B5pc2ULLMG41n4la7918v6ZrbFMbc0JTMm18sO4Ges84YHnQ1C5z2ivYj/FsMttkl/1MQ952fCEf8IKXeYTcSs3bZiR4yWzbxzAdPpFwtHcnmL+KdylDuRKnTsObHI6T7nvuHe9j96L/ar2Z+3vcjtr44wccX4kVnThPHlP/lg/duOTDn3o1XnGdV+LVrof6f8oHh/xPemCa897h8VRPSYf9KlHu5L5zv13eLibg89aXx5ZgzPPWJ4/fS4+MobJlmsofqfx9K3/jEXsPKya9hTih4x7lRXW6PfnKM/Q1S9Z8c/nme8Wq5h7HuJwZh4oW9ura8q7r7EVm9V1Dj5e7OCjF4rJwKf3P/M+E2e94D+6Lj5AVg+Eyd8rcsY4Xzk2Y7S9g726n9HWeQeOqwcoD1wOSKr8Z8RzZPMOfq/Mj1eOrdfi2bXv8Xz2/dHm72j8s+P7afbv4v3uvL2Ly7vy584z4quweOXYvgqDu37Ezvm8+iUHh3o8V9mz0DI/7vr8znridSf/q2uKNaH9zph9JPYcfOTg4zL5M3Fy8HF30fmOL493HkZ38dnpOe/4ZQE4crgxybPJ4Cfoyj/rAXfnYf7K/Hjl2DoP3Aw9q/Y9ns+851s95gL1gXOTL/FYjU866bv3nDtTjxW2z16zVnE9qj88/E9OWe9XecbWOt95flX9n3wtdrT+moNDjo4JX97wiw/lX5EHPebPuP/IPLi6puiL9jNy+Q42c/DxIgcfTHx+tuXmmo0ci4L3lUz+fIyxibzYQtcFBzkmx7TwVLv9mg0M9qsdfDvRqm9+dubmE3/dFvc9R+wSZ/052mQHPXNGp/5MnBj0i8ydHDtW+KAW/olCzb/mVeOaFmz0eQE1dnDB1pW/8cOH9dM3OdaYGCcHx7nnwz2y1guc+t9kY7/a0gbtUX5Vtl+je5bPxGTME47YpuYVR64r/5ABA+30seqD2Hq8/b7Ka9MW29Sw41axRhab1c4qt+57dY9f7YpF5xK5IQP3lO9YaN8aOX9oqVnHZ5qT2ti1xlLzfjfuWgcwn3Ce1lDwqHWjVvRhg0/Fn7E6j3Z4M9bltWmLbeK05tam8tm+o9x2sVBn4tYP/rFX1ynj7esv/usav/NDPjVO87RVV3yRpyZ1rSDO+gxShxb5ij9zHt2VfNWt1+BrDMbGPd90Vjnq9xE8sFXxoNbEyjpkLWq+dc1iHLkaj9fYwFa1zbX2lTtbD+V7iz3woWWM1rjxR7xdh3v40vnW61Rrjk19oN/jXuGg74oDdjrG1HaKVQ6c5WH3o39b61KfRfj4zPXFHKgTfquv+qwA4908rs9G54Rtr800JyZ8xaW2df5ql1bMaPs8RJ8aEQ/5cl/XSHR6bpVf+jGOmit27beljj1HfBA7a4JyvfWXEuJmrMj1ZwG2/u///b//sQ7VWLp893XlXuxozb3PKXKWI8rX+Ku/s+sinLCuYFLzq/bqdeUsOoyh59zrtaa2Z9akszGLjzWsbedRjdtr52PNtdskXucLNvGh7aN8PsJrY3y1NgcfL3DwwcSDiEw0JgskoZXQjHXi/H/svb2VLLeydevNdYNm0Aj6QAvOOBbQABpAkfIRKVKjSo0q1f3G5PfmHXHiBpCV1VVdP72EGsgE4ndhAYmMqt7bzVzyOu6idyN3Q8UGY8odtei58LWFjrHWhaMtFhb9U7zqsYiwjY6bNn60Qasd8kePuMnTnLHPImcce4yZ95kcwZgNAR03DVo3NfuMZ8qLhyH9xFJzcLOY8kXeea460zUxTPbtJ1bjVB95PhU746G/zic61+Snr6l1rs/wWS50HLFv7MZdOd0fpnKkrwvsyOeO15QDMsaEHvd+nDtxY5xreSP+2tXOlJsyl7TkhG1kxZh8qy5Y6Uf5CQv16xyRnznUwyz2zVX/1efqGnvIG49y9r8Ld1eccw+tecIdedgxFnvwESta7HRO1fF6jSz6rhla7v0wjrycZP3IBX3U+VrlVn3267onulb0V/njmlnh09d298M99slNTPFjrrTqkBO+GWe/xzYfMe/rCD1xAcOOG/60fdTiB9+02OHj/FSsb4GHsThvzAWx4o99oOZLfozRbzzESb92aIm34mufOhWLS+ej2q/X7llgVeP2+U78Vf4IM2Ks8vIA+7Wfa/hC/tN+2WW5X2FsrBUX9fV/hof66XE5L6v1c4/9hTzwK4+6D8adw7r+zL+2jLsvgBX3ftw3xBI5fcs7xqq93XVdg5VXzod7Q7VBLPQjg09acqs68K/qrOYKGfxiD7tVh1zBk3wcoxVj+6pOvRaPiW/MFT47VivbyqNTfZy9JmZzJT+u8VntsM/Qh0/lwbbKcH20xqe1vMqv2/YeH8SIf+ICL+ba+TQXxsGbMWTo79iejZncj9aBcU6tfOw8sZ94wVhd1+eleyx64oCudmxXvHb8GdsUPh5c+HDTcwOoJHHDYHHVfq4lbyeii7fL08+nb9RdznsfFN0+426005h+tENrjtMG4YLqhy3t4KvacjEzXnXqht03gKpfr7XV5c299htP1ecaGcawVce4n+ZUnz7Iq850vbIPLtif5tNY2ZDqhmdePVb8qtNjWPnvct4711PuOz6v/PgS1XmAP3wQN3b1v1oXjIs9vpTftauYqg7+4TVYa9f1odwldpTdteaGTOW7c2yf60L5vk53c4QuOU3zt+LIKuZV3u/G3RXOrjfnQ5w8ZPX9cMfPs9ivYjKGOjdwF07AH67r/nBkR3u22IA7E3+wTR7Keu+6sb/uE31Mmd7usEPWceKqe6b7S40LeddInyPGVs+sHhP3Fec67lqtWN8SD+et52s85Is/4jAu+VpjYsx+bCprCz7Y6mPifen8ac+4sVnXjXjRX22aT/dvP/lrm9b9jTms/Vz78lEx6TL13lg7xpW/XFcdcek6Kx6iq5+eo/NScUL+M/YXn3HTOQZs4VbNe3XtPHXOKc98T2P086lrWZ2pFUN0Ol6Oda4YGzr9/OFa7XOird5PTM49dmuMq37nt8tXXa6d7x4/Y3Kx57zyiY7Ydj9n7sXO2MWrFsroE1flp7lWV1vGYW7E28d2+anfW/M2Jse1xXjFcbUnoXc25l3+xrFqja9iIDY9F2zI0TP5qHOG16t4n6E/hY8HFz582E4EhSAuxk6WHRG7LPfT4pjk7GMTxXd/cDO+8z3Fa47TotFWz187/RCiPPkYq+2ZHH1YTAdb7dXWeGof12c3LOOfsOi2V/bZfPvBqeoaa5+7XazqVDsr/12m3jvXfT6VOevHl4y6qWvL+a4Pox2+yk+2tFnbHV7Kmc/O5iV2tLdrzU0ZMMa/+YN9Pfwo37l2NEeu/XpIwae56v+onfJ+R+6ucBbHCSexrGt0x0/lJ1tT3yomZZ0bYux7rDK0R3aqLNdH3FL+aP913XP4V2fX7rBDz3HXSrU1YWsefe2gJyarPa7aNo/Jb5W7NR7GOOFnvn3PkhNgVWOTx5WrjosTB337aMW7+6gy07VxT9ietWme3Y/5dN5zFpj8dn3vjXXC2IJQz98cJj6s4tUPrb5pzaP2ea2tOmf67jGho7z6R6187fOOP2xN+U02V5ybZGvfLpcq57UYTvO7eoE1tumMqL0+J6t+4phiFsfJh7Ff0vqi3Z/ZcHOyPcWin7NcUK+2YifX4AN2xd+8adFTnriqHeWmHJBzf+1rcJdftV+vzbvvC85pjw3dyc81Ma/yr/GtrnsMxA8fxLrrmc803m2pqw6tfbYrHcefsU3h48GFD0kzEQrCuBg7eXZE7LLc68eNaJKxz0WIb/tqu/M9xatvx6YWmepDmdrH9c63fi7J0QNb99v9eb+KR6wutbOLX1+17fbR58DjA6PKen1NrNfo6K+2zgFx1n6vz/pRftdWXzt8je0SfhBvx94camtcta9fX2Kn60z35uaY3xJ6+ORwUA8Ayld80BWH3q/d1fgluWqDtueNv3fk7oSzuYvZqkVOzMS99jmmvvdH7RRT1TE+fNb+fn1kp8t7EEWvj9V77a78H41XW1zvsDsan7DVnmNTu4q9xubL6TSnVe4o36Pxaotr5Wn7mLn0/okT9qHT5blfjYvfUd7d5i7uszZXeXLgZ4wzgP7dS2uhwLFVe02suxxW8U5+Ku7qTW3F/xrfq9zp53mDz3oWWb1or+yYB7GtZKb+XS6T/IRhlZvW6S62lb1VP76mmM+eQ2vM9Vo79WWWF2DyIqYqu4pFGXnk/TWt2Mm/Wlzimjg9t2Bf+c4D8ez9xrQan7BWZ9Wu8tbHpTgqfybmVf6rWGt/zZW1uCt6oGd8l+ZzrU6N8dmuU/h4w8IHD29IzYLw4eSidiPaEdFFiM4kt1s4+ql6dWHW/t31ZAf5ne8zfrSDzi4Ox1bxiNVkhw2eBxIvA2xG2qDFv7Z3rfarLtf1sNH1le392ppivUan2+feOVjld9bPSn7yTZ/zOvk3NnBY6df+HV7KXRLfJXa0t2vNrcq4vv1GpR7cle9YiEPv1+5q/JJctUFr3urZvht3J5zNHSwrJrtrcUe3y4ld71/dTzFV2UvjO7JTbXJtDituKa/dFT5H49qx1e+EXY1rGp+wPbKn36NW25PfqnuU79F4tcW18rR9zJh6/8QJ+9Dp8tyvxq/Fbxf3ziZx8NKNjC+xqzzZfxirL17o8Zyeclz1XRPrLodVvJMfccfeKr7ef43vbqPe+7Jtsd0Xbfqr3O76kjw+ep7F/4RhjWvCZhfbyt6qH1+TD+XPzGON22sLC3Cfa/qZh3qvLO0Ui+MrHjp+SSt2tMrXgiNx1V8FKd9xOMJnNb7Lz3h6u8pbH7RdZ/KjfM9F3Wl8lb86u9YYjJ92t5fp/9J88H2Nzi7mR4+l8PFmhQ8eQhCfTYbF5Cbo4qgb0Yp8LkLsTDK7ReDiq3r6nhZalavXkx3Gd771c0mO2kGn+l1dr+IRq26HTZ3NnX6+TfKFVL+XYtHte9jA9uoF8mys5HyNzoSVc7DK76wf5S+ZU+LZ4Wtsl9rq2E/5Gt80Zt8ldpTdteZWZVzvcq2OKd/nQhx6v7qr8Uty1QZtz/tduTvhbO5gVjHZXYs7ul3uLPZTTNWm8eGz9vfrIztd3hxW3FJeuyv/R+PasdXvhB0yu/EJW+WP8tD/qtX2Ki71jvI9GteOrfJT/MakrO3ECfvQUa62q3HxO8q72uJ6F/dkk/MN/ex/6FZ/qzzxY8GYZyjPZmSrbo9ruj8bKzamHLS9infys8JdW1N7je/Jjn3iBvb0eebxzKncrjUPYpvkfL595DyL3QnD6s8vpioHdrGt7K368TXhr/wq/xrj0bW/trOgAMexP+lNsSi34qHjl7RiV/H0V1XwhU/lifIdhyN8VuO7/Fbxr/LWx4Tl5Ef5not+p/FV/urs2hoDa1Ius2YmPf1fmg82rtGZfD9LXwofDy58uLFPFTo2hjOLkQ0P+YnwdXEcka/6nV6ujXlaOFO8yk9xrWKZ7CB7qwVYN+FVDLV/FY+Y103OAwEPnmrjKP4uy/20IYoBG1x9eKi/inWydaQz5afO1DrXZ/m8is1N3If55LP2ic3ETQ+7+Ko6q+tVTFV+hXWVucROlV9dm1sd99tL4ugYKd+x2M0Rtlc4XZJrjW3K25jeibvmVHGueyj7QcVldb3ao91PwH+l2/unmKrMNDd13OsjO8rZHnFLuaP9l2cF+VZM1Z3aFXbK7sYnXpvHmWeWvmrr/nX0Lfit8djN25QvMU+cqDyezgKr58MO74pPv97FPdmUJ33vw+4qT8YswjLP2MB2j+Xo/mys2Jty0M8q3slPnZdH7C/G7Ms2/N29aCvf24lzysitaQ3ucFS/thOGdVzsK5a72Fb2Vv34mp6rR+u+xnh0rS3mhOteXKj6K/yuedZUu16LHa19tMQE1n1Ole/r0JzQq3a8dv2Du320q/yqTL+WA71/N6eTn2tiXuXfY5nuewzsDeI87Ytn88HnTmfi9RTnM/Wl8PHgwoeLhEXXDxYuasY6aSYiTn3o1ZejvhF1u957YOsvsNhyUeFPedtp83BRTzmiN8U02UF2lSNjfQMwpqmtm8N0KGVeqp7x1H4eEi56fCtvvrWPMXwqP2Gnfm1XtuQG81TluTbW3r+yVXUuya/brffX8nkVm/MNbuBXfXGNXu1TvuNiP9h0napfr40Jvlff9XC0wnqy0/mg7qVcMIdqm2tyBZ/e78tbt29e+K95oe/YZM94u5/VvbZ63u/GXeel40zeYNb3UPAC977fK8+8iSlyvlxgy/6j1pgq9thyvldz0+1qp+fW5bzXLrH2/PDNOLJc+xype04fq2tNH1MrdjXOquu4/quNide7PNCd7FSbXovftH+BjzHeGg/9VjyMacrXnBirnKFf7CovteVYP2DbX/2bq7pTu4tbmxX7qQ+7FjbIZ/ID3ozBQT49/kmn952NFf1VvIyt5mXlR1uP2F/Ewuc9/Cb+S+ZYXVrX2fSMXeXNuhGryoVqt19rq58LkDMH8Kx6xtb7kdEebdWxv/uxn7hrzHXdX3IOrb6ma/dU/POcnWTokzt1TRPL6lmj/ITF5EPsaq7IeSbpPFnNQcXnzHPCeLv/KVb75JT3ts5dn2vGJz/XxCxe0zowjlU7xcAakQsdt7P54FedS3m9ivVZ+lP4eHDhAyJAJhYdRGVjgGT08TD2gdIPkZK9blzIa4drFhO2kPVloy+CFRHdiLCHPnawwbWHiv7AdfGiw+KvtvVPjlxjj9jNvW5QOztunMRR7VccLz3EiBfxkosxgXnfgHwgOEfEgZxYcG08bOrY5INN8sEXuXJPf5039abWGKt95ejDFnjaV32vHi7koLztmfzUWbXOqViR8xGfxQW5ahceaY98wQ1Zcua+z1M9FMlbWuRpwetSfhAH9tEhBvNw7nY8rTmscsMuH8ar/OqaHJDv87qSF7fKD2W1hYz2yId8+fT95tJctU/7Vbgrr+SFGNTDh/xhrllrYIyesrTuJcwx84MsHBfHM3Nf14F7Gz7d/1ecrPFwvcqty9V7uYU/86DtOZsX/fALG3BR3p5ZpxU75oEPduW2e2W3yf4Crnw656c8sGt8xlxz79er/cv9tq79W+Kxmreab4/fZz5Y1Twqj8GZMeyID22V5/poPrq89zub4m4M6CjPGPGTE318lCdW7dfWOej5Vpnd9QpjdOSb60079p/h4cpPnRdyhUt8PmN/MR9a1pl7Vu2/9Fp9c6BlndX1wDVzS37g4bx3fFc+0XOdwx85gU388+nrX/8TP4gPe2BdfWJDP8RZ43Ue+9zrR3voYB+/xGWs1c/q2riw5d43ydb1CZb4xF+NpeobO+1kr/dpp+fa5bw37glrbYGFe9bRc8I5uJQf2FWn421sU+7uMT3Pa2ImP2Lo60CMVi2YobeLoXLbtUPbbZpP3WORuYbX3fYz3afw8QSFDxYaJJT4LDAXuIsRcruIXYiOsWlJKjcwxtBxTLLjQzvqrFrkXAjoYYtYafXtxs/CcAHqu26c+GBhak8Z4qpyOzv4FSP09Y1tN2b6kembwCU5GhP49s2Pe/whw4e46asbJrmZS8dOeTdEbDg3q9iQrfliX1n81DGw/9e//rWcA+Kp8jVWbJ7NzzimFlvkq78jPvc8+wMGe2BV+UX89DHWY8CesrTyXY4Q1xH22qx8xJZ6tV/euGbVpd3lJpe0WfX6deVezanLeW+u+qhrRRliA0dlsNvXI7JTrvJcW73teb8rd3d7MZiAU10LYM3cgE/HjHvs1XUD9vTXOZLPk37tq3MA/urVfuOZ5vMot+qrX8Np+GTc+O+HKXRYM5Xb5M79tJa6j35f48WG2FWOY18cyLnGOK0rsKr6qzXSY6n3fT8EE+Izjip7CzwqDvhyfyHfnosx0Mo7dJCrcZ3lMbo1jjof1W69rvI1bmTqfkac5tSxJW5zcm5pJ34jh5/VWqyx9eszsRpPxf5SHu78ENPZecGe8wymrhFw4DOtgZ57vzfGCeMuO93X5wv+nVtk6z5Sx9hTibfiONm2DzvIk3Pn0vTMm/bIbkvM4LZjtOgSa8dTv5W/6sGRyg/0wXU636gztWCJX3KaxmvfGS4YO221MV2DtRybcu06zo14gkPn0pl9seJ4CT8q/5wz/ddcGKtzLSb046fvI2diBpMaR+V6x6ve91xrDK5LcSWXqU97PR/kHaO9htdV/5muU/h4gsLHMxEisfzPfy324BE8woFwIBwIB8KB9+IAB3leWM6+XIYH/80DXrIveSF+JG6+XPeXuUfGFN//zaPgETw+iwMpfKTwkRf9cCAcCAfCgXAgHAgHvgwHLv1W9bMO46/oh2/G+Ub5ml9ofWa+KXzkpfoz+RZfz823FD5e9KDjz5JSwX7uBZYNMPPjoevZvxULV8PVzoE8Z8KJyglecP3pdO1/hWu47E/Y+bOr/NrjPLf5OX79uT/Xr/Bc8xn8meflV1krYvMK8/gK+0yPMfie32c6hre+T+EjhY8v8w3PrRdP7D3fhvaMc5IHX3jyjLy8JKYUPsLdypNXeZmrMXtNwYYXdf9tA//tDcfTHnPd+QdD/sSF4pHFpGfGz3/boBZt7h2vWMG7e/v6iP2cT455H3zvi9FH8L1GN4WPFy18XDPZ0XmvxZv5zHyGA+FAOBAOhAPHHOAlnZdQ/sQlRY9jvCZO+Y9ngiNFUe4nuWfq88WemI37meJLLNdxMbgFt2s5kMJHCh9P/+C6ltzRy8YYDoQD4UA4EA6EA+FAOBAOhAPhQDiQwkcKHyl8hAPhQDgQDoQD4UA4EA6EA+FAOBAOhANvy4EUPkLutyV3Krup7IYD4UA4EA6EA+FAOBAOhAPhQDgQDqTwkcJHCh/hQDgQDoQD4UA4EA6EA+FAOBAOhAPhwNtyIIWPkPttyZ3Kbiq74UA4EA6EA+FAOBAOhAPhQDgQDoQDKXyk8JHCRzgQDoQD4UA4EA6EA+FAOBAOhAPhQDjwthxI4SPkHhDyWAAAIABJREFUfltyp7Kbym44EA6EA+FAOBAOhAPhQDgQDoQD4UAKHyl8pPARDoQD4UA4EA6EA+FAOBAOhAPhQDgQDrwtB1L4CLnfltyp7KayGw6EA+FAOBAOhAPhQDgQDoQD4UA4kMJHCh8pfIQD4UA4EA6EA+FAOBAOhAPhQDgQDoQDb8uBFD5C7rcldyq7qeyGA+FAOBAOhAPhQDgQDoQD4UA4EA6k8JHCRwof4UA4EA6EA+FAOBAOhAPhQDgQDoQD4cDbciCFj5D7bcmdym4qu+FAOBAOhAPhQDgQDoQD4UA4EA6EAyl8pPCRwkc4EA6EA+FAOBAOhAPhQDgQDoQD4UA48LYcSOEj5H5bcqeym8puOBAOhAPhQDgQDoQD4UA4EA6EA+FACh8pfKTwEQ6EA+FAOBAOhAPhQDgQDoQD4UA4EA68LQdS+Ai535bcqeymshsOhAPhQDgQDoQD4UA4EA6EA+FAOJDCx5sUPr7//vtvf/3117c///wzhYw3mdNs0Nmgw4FwIBwIB8KBcCAcCAfCgXAgHPg4B1L4eKOX5J9++unb33///Y02i+PjiyMYvgaGP/zww7fff//9H+5T+OM+c/cac5d5yjxdyoHvvvvu26+//vrPOqfI//PPP2edv9H55VIeRC57RjgQDoQD4cC1HEjh40kPDhYxKGTwuXSC//Of//zzEoj8L7/88o8uL4WX6n8VOV6OOTyD7Y8//vhwfJyrP/744+Gx3IIDv/322024RyHDNQBGU2zwmxciXoyQXclNuo/sg4PMt/ndmoe+JGb93+eA4Ly9UqGZYoFxP5L71/hmfbAfsM7dX66xE537rIfgGlzDgXAgHAgHnp0DKXw8aeED4nDQWx1S/Ya7v+RxKGTs3//+9z+6yr3Kt2PG2/O65UICI184OUBzf0v7Z231ueKF9ayNZ5L3hZvC0i1+fXEpJ5hH1sutCwj3xtbizpm4jzCxcHokd+/c7m3/kfnVIsIteH5vrNxnWCOvVKyZcKHA/+r75JRX+vLSEA6EA+FAOBAO3I8DKXw8ceED4p8tfKDDCyAvnRwOueeAzj3/DsizL6bPeJHx28J7Flcuxdl/m8W58oWVl5RLbTyTnPFTWLpVQYl5Yh0czRcYvuILnZy/VeHDXzN1Tp2x/0yc2sUidkfc2Nn4yBjrlL2Vz634/pF4VrpygjhfoUizyoN+ML/l/rLzlbH7HT6DbbANB8KBcCAc+GwOpPDxZIUPCx1TyyFfgnB45UVmKmZwMPSlR/l7vxQSyyUvp8azand5rXTO9lP4eJbCAkWpPle8vPc+c/RFz/vPai0+HL0872K/NFZ9TWuAvikGeMPL0KU+nknOOZ3yWsW5Wyd8E975w7y84zfkOxwm7MR6Gru2jxiw+4jCB5y5ZN/9SIz3wOxarNHLv+OTg/JH+BPd8CccCAfCga/LgRQ+nqzw0RejL3+9/9nufVl91Devz4bHveJ5FB98+Tnzcn4rDN6dW4/E9lZz9Cp2HrV+7oXPZ6yNd8PsXnMRu1/3IJ25z9yHA+FAOPAaHEjhI4WPm3xL7stbCh/3W/h+u8uLyGdusP7pFH5T+Lj9/Lp2HoHtZ/Lo0b4etX7umbfcude++46Y3XM+Yvv2+2MwDabhQDgQDoQDt+JACh9PUvjggOm/PcELJn+Lzc/Vp2/b/Ic5GZsOvLyo0u8/mogcB+T65x38iYyHZsbrSxdjNZYd2bqs8dpil1jIxziwRyzGRxz0HeW1igNbNRf99H/QVYyNhZY8a+4rH/xU3Hixj07NHVv1Twlqfuit/u0JbDDP1Ta5dHnujVtsbcWvx+6/7aIcuSpTY2ecMfoctyXPOi/aslUOzuGvzgPxTvxUp7cTb/GtzckW8U34MV/Vfs0BO/hivsSU/OlDxz8LIMc+r9VmvT7iB7aIUx9V1/zIhfG67mtc6vRc7LfFBjl2TtX1j2y3g94tMSF2eUJb56/zqq6da+fU/Kf2aP3A/YrHNBf0aVuMqw7Xcku5qcVOnRv06toDC3FjrPrVXl+/yttWHXJnLuQ6Misuap/2VpjJb/xyXX3UMflBiyz+lSXfvs7BpsqoR1sx1Cf7k7jT9vWgr+l5Iq62FV/10uZgHg6EA+FAOBAOPDcHUvh4gsIHhzcOVPUAzEGvHgr7QvKlwsOi4xzIscMh18MZtujDRz/seRhWttrxkGff1OIPXV/WaLn3wzh6HDqxx4HUfLXvwRS5VV6Tb/o84NLii4+xVLv6rBgTo/l3XFb+lPdFF7/GQD7kyT2+mZs6h8xDtYsN7PEhFsbqXGFHeWSRETPxpWVMud76MkDefYx77FWcugzx4EP+kF/1jfwRtox3u/2eeas+HNc2cXau+xJDTMjXuWdMG7Zyi7nGFzzBpnPKOP4Yo18e4fuSHPCjrc4P++ucGpccIQ/iRoaPOsSlrK25dEzEEV3mCfnKqc5z7dwLE+doyhufYAvO5qX82TntOGjP9tL1I+YVM2LkI55iTN8UJ/zR76rFlnax1+XgBLFMY8jSjw05Ssu9H8bJGRsrLlTcu3/ub4UZscizvtcw5rp3DuFKxfvSPNBHTzvMjffkim/GXG/gwjzX3N1vkHFMnmKLcTAm7qqX6+c+6GZ+Mj/hQDgQDoQDcCCFjwcXPjhceTjthynGOGzx6Qu2H/Ic99DYX9Q4PGKnvxB6COQwpw3blW/Ha7uKRxnsYw9/HHTJzUMvfcod2VGOttqs/djVF/07jD3oMgcd/2rTa/Eihypv3PjtLxT9YK8t+zv2dd772Jk5MXd0yE+/tnKivww7Xlvz7vEgY+59zP7pxb3a5lreotPHwJMc+hh9lTvqiRH52UdrPGBRx4hbnT6vxjX5qba9FqduR5719YeeOj2u+sKlfVtz6ZgY76XrXzvd960w8eVz4oCYwHfzunZOOw7a663z3Pu9dy5oLWoYp/wW48mnhZtpTB+2ylYuOsZ84Mf7Vev8Tf6cwz5mPz5Wdmv/LTDTJ7hW21zXHMCCuPi4v672Sfd54mOuLK6Ipz4Z7+tB7Hs/fpGvnCTG1R7Uc8l9DtbhQDgQDoQD4cDzciCFjwcXPnwx6C/LLprVobMeFpWl9eBW+7zWVj3UedDnkKicrfLe79pVPOp4CK0HWsdqe2SnynrQ7YfXKsP1EcZidqYA0GXND8y6/yknDufITi/C6Jtbf/k5MyfGoa0eM5xb+VfXdscTZXorJtPLTpd1Dio3lZnwc2xqV7Fqp2OKDXHt6+BMDtjRd8eavPTRY1Zn4vFKx1xoqz1xrH1ea6tirJ17YVJfTn2RNR5eaFf7njK2YtTnx/g7Dur1Vgx6v/f62dkT44qj+u415GbfqlW2Yw8PiHOy322dzV/9IxyUoz2SvQSz3ToyB/1gz+KF+ySY15i8dm9Dl72sriF9TnOxKmQYg/ZtjZHY7Ev7vAfbzE3mJhwIB8KBcGDiQAofDy58HB0ajw5i9YDuQU+dVVtfHvRf+ySK+t7vWg+GNZ4qb2xHB8cjO9WmLyBT7FXOHFexHY1PtrrPXX5TTvat8FiNn5kT4/ZFipcE+3whrS8Kjk2tGPW8J1n7dpgoQ6scudV+r8WC1r5du4p1Z2eFq7Gt5qnHsfKN3MrHNTpTLsaqn1WLnHFPdhxT33tb/VyKiS+nlWvaqLFof2pXGO3in+ysclJ25cdx48aOfbU9Gq+yFsP6S/2ZgtDZ/PV/hINytEeyR5hhQ1wmzuxysDg06WFX3Wn8Gp8+Uyy8iAPFKXDAn31pc6gOB8KBcCAcCAdeiwMpfLxh4WM6BK4WJrIc6DgkdpmjA2+V9wC6OhjuDqFn7FRZ45tir3LmuIrtaHyy1X3u8puwsW81V6txc64xXXLtgd5v3bHfX7h2dsSo5111eLHlm1RljXWVo7pih7x9tRUL2trPNS+P9OPDn6/rt8e6s6NOt29sRzmoZ+7dN+MrH9foTLmcjZWYJjvmsor3rB9+/YKtiiHFkHqvT9pbzWm16fUqJ8d3c4GMuWNHndoejVdZri0K+Qsh9fuLd9fzfjd/ymCTF3dycx84wkFd2iPZI8ywYV7TnO9ycGzSw+5u/Bqf2qP45C9usANufNw/Kz65fq1Db+Yr8xUOhAPhwNflQAofb1j4WB3Kp4W+O7QeHXirPQ+MtLXf690hVBnaIztV1viwXfv7tTmuYjsar/aU7T53+U052Ye9at/r1bg5K3dp60+7+QYVHYoEKzwmm6u8keUlDXv+1NyXth0m1YdyK96KRY/Xb2HJDRu+lKxiXdkhlhWuxraap5oH1yvfOx/X6Ey5GOsKxx4r95Md5W6FCfZ84eZlkg+2iVdftrecU23WdpWTMru5QOYI46Nx/dj2X2NZOHT8qN3NH+uBfMAeuYr3EQ7V75HsEWbYEhdkq22udzk4NulV3Wn8Wp8Uo2oRlWvmxUJIjz/3X/cAnbnP3IcD4UA48FocSOHjwYUPD/octvri4eC6OnR6IKRVr8pfekhbHVp9OcG/9nftFE+V3x1Cq9yRnSrLt3LE58t8HavXO4yR85BbXwyqfr1e4bXLb8rJb8F5Kan2vbZQUeeXsRUf1Fu1FCPQBTNets5+e7nKG3/i1zm3w6TGWXlr0aSOO38VC18YwanKcr2KdZoHdVe4XpqDdla+GV/5uEZnyqXi2OfC+Ho72VFmFe9ZTLDnHLJWuSZn/djeek61W9tVTsrs5gKZivHEVXOY8tNHby0KuUbBt8us7nfz5x5CTF3/CIcqfyR7hBm2dpzZ5XDtPnmtT7A6M3cVp1y/1uE385X5CgfCgXDg63EghY8HFz482HG47AdpD66M9cW5Oix6CF0VUroP5XkZ0QeHe3+CPflWrrbGUw+N2OGD3O7gO9nBXu2frvXJi7d+lCNPX/70TS5dzjFsqLtrxQu9Kqedmr/jxllzIg5fePyZu/J1zBwcIwc+1X+XUba3ForIdSoYdPl6b941B/0aU5XnWg5NmHRZY+u8ZR7FqfqeMMUm8sZTMWJspcOYOj2u3bx2We7Fqfve+bhGZ5WLtjqO+IdXff2v7OziPYsJtpwXuMd8Ti/jq1jU7bzH7kqHsenjPNf5kcfIi18d73aUqXumMo5N+SnTW4tCYHPpPqQN88evfcwzH2PpufjvZoCFOrv2FpjJmSk/+vBBLlMcrv+O6W6fxI4+KzbaF7fukzhYO9hWdtWK72R/pZP+eV0Gl+ASDoQD4UA48BkcSOFjcUD+DPD14UsfBzwOwRzG/GbeQ2F/YfHQ1Q/fyHlQxAa2+HCYo78f0uohmJdhZPHJIdMDb30xMObe1pcTfGEHf77Uc489Yuq69X6VV5XxmsOp2BGz2OG/H6QtIiFvPhyMiZFPx1cfvRUT83K8FrDss/XFphcbxBj/vpwQmzn1gz72zA0d5/UIU+Oocy0Gjh21VZd8+BADduQosZEHWDCP6lwSX8UPXXIDr2oH+8ZZseMav+gg71z3OWKM+SN27dDCI+fVeXDcuMjRvl2rne4bnBzrL1Xi1+e7xtX5ucrl7Ppf2am+P4qJeMnrFZa3nFN99vZo/ThHff6qnYoxHGcMvORdX+dVd7rGnn47Byb52ld1yY01wLokfuMBd+6ZR/r4OBedi9W217fADFvERZ5ixppwL6F/hVvlhVxE1xxWmIEFdpEzF1ux6XuBMToftYW32NSGa4fWvrQ5uIcD4UA4EA6EA8/LgRQ+nqDw4aHZQxcHKQ94Hrw4dHkY57BmP209jLHYOBRysNMeMthcHRCxpyxyHKaxo4/qe7eYsa8dD9vI135jIcZu6yivLs99xw77HNTFquoQh4dl5MgLnKZYqp7XVZc89UGLLfFCTpsevh3rB23m2RcLZLDLvfOvb1vyZY6UJf5LXl7QRw49dLR3pq3zQ4zyhLbm4BgYmDcxH/kCRzEGB7Aj5oohtrVDv7jTcs8Y+YmPc1RjZ0xZYtQn/dhRh1Y+M4acvqe22qn8wIdx6kN+nNExrlUuxoRtMKixT+t/ZeeWmBgTrYWw1T6EzC3mtPrs17v10+fCF/Rug/tLMZ50pz58w5Fp7Kiv7q/YkSfkWnlQx+QjrVxc+bkVZuwTYnzJ+q7xuE/KaVr2gtU+WTFhzdX9B47R58e9AH/o2b9q5YX7cLVdY8718x58MzeZm3AgHAgHviYHUvh4gsJHFt/XXHyfPe+84HCYX70sfHY88RfehwP/jwMUIOoLeHD5/LXB/sg81OKq82ARif0zhY7PnxvnIW2wDwfCgXAgHPgIB1L4SOHjqm8ZP0K66D5m0+Lb3xzaH4N9OB/cVxzw1wm8XK9k0n9//vhLMX/J1jGnYJzCx/3noeOe+2AeDoQD4UA4cCsOpPCRwsdTHbb9+fBX+/bTn1/fsjDBnzL4s3cO8/m1x9d6cNyDU7d68HxlOxQ63N8oduTXHs+xLn32rAof7KXsoc7dV+Zwcn8OzmYeMg/hQDgQDpzjQAofKXyk8PEEHLjHSyoHef6mHtu8XFEIyQZ5boN8ZbzuwalXxuNZYmde/DcuXKPPEttXjsPCRv23UMCD4pS/ymEsv8z5OnvoV14PyT08DwfCgXfkQAofT/DS+47ESk6P3zD5W3W+ofQlK3Py+DnJHGQO/EdeWZv8eUVepJ+HE/4jqhSKmR8/FKgofmT9Ps9cZS4yF+FAOBAOhANnOZDCRwofOcyFA+FAOBAOhAPhQDgQDoQD4UA4EA6EA2/LgRQ+Qu63JffZKmDkUzkOB8KBcCAcCAfCgXAgHAgHwoFw4P04kMJHCh8pfIQD4UA4EA6EA+FAOBAOhAPhQDgQDoQDb8uBFD5C7rcldyq171epzZxmTsOBcCAcCAfCgXAgHAgHwoFw4CwHUvhI4SOFj3AgHAgHwoFwIBwIB8KBcCAcCAfCgXDgbTmQwkfI/bbkPlsFjHwqx+FAOBAOhAPhQDgQDoQD4UA4EA68HwdS+EjhI4WPcCAcCAfCgXAgHAgHwoFwIBwIB8KBcOBtOZDCR8j9tuROpfb9KrWZ08xpOBAOhAPhQDgQDoQD4UA4EA6c5UAKHyl8pPARDoQD4UA4EA6EA+FAOBAOhAPhQDgQDrwtB1L4CLnfltxnq4CRT+U4HAgHwoFwIBwIB8KBcCAcCAfCgffjQAofKXyk8BEOhAPhQDgQDoQD4UA4EA6EA+FAOBAOvC0HUvgIud+W3KnUvl+lNnOaOQ0HwoFwIBwIB8KBcCAcCAfCgbMcSOEjhY8UPsKBcCAcCAfCgXAgHAgHwoFwIBwIB8KBt+VACh8h99uS+2wVMPKpHIcD4UA4EA6EA+FAOBAOhAPhQDjwfhxI4SOFjxQ+woFwIBwIB8KBcCAcCAfCgXAgHAgHwoG35UAKHyH325I7ldr3q9RmTjOn4UA4EA6EA+FAOBAOhAPhQDhwlgMpfLxh4eOHH3749ueff377+++/v/3+++/ffvzxx2/ffffdt99+++2f67MkiXw2lnAgHAgHwoFwIBwIB8KBcCAcCAfCgVflQAofb1j4qMWOX3755dtff/31TxHk119/za873nC+X3XzSdx5cIYD4UA4EA5cwoHvv//+n7MMX+pcIh+Z8CocCAfCgXCgcyCFj7wI5xARDoQD4UA4EA6EA+HAU3Pgp59++udLHNp+mM19XnDCgXAgHDjHAQrKfFnOXwhQVOYvBN4dwxQ+3vig8/PPP/9D5j/++OPpicxiY+Hx6xQW4i0WHr9w8dcuLOxb2PyojUfExJ8+iQPXH83hnvr//ve//5cH/HnWPX1NtitW8PErPATEgdzZK8j72tx9MeEB+oj5M5dVS0yuBbi2knuFfrD2TxqZr1eI+R1ivAeHbrH2nhHbe+T1n//855+DOvnyi1a4/yzPd+fgo2vTFxFy1eartB8945Dzo+f0ozns5spfLl37jN3Z/uyxe+K0y+Ue7ws7f6uxel689qz40b1iFdul/eyh/DMIPNc4TzzbXnppHmfkUvh4cOGj/inKJZt9PXQhz4vKVChwY/AByga1IgZ2HrkJ+yAgF15Kblmo8UXsmRbzZ8YEX8DTzyNfSI8OqT5E5MGj5qyusWsfZqu19gr9vkyfzd354yHKOqZ9tnzllu20dz5bzLt4iN/9eyeXsXPfgu3wkju2t+TQtWtvF+8zjF2Tl2cXnhs1B/ZnxiySK8cXPVXu0dcfWZvsvRZony2vS3C99oyjHrk/ujBtLGfOIZ672ZMnnDyPec6lpW+S/cw+15DPkkta47sGJ3WvaVlXFT/24WvsfFTHuQQrCwfX2vzIXnGtz0mPffrR626K69Z9KXw8uPDBhLpxuNnsDlJVFpJOhHBj8NsCdWgnef2efdGZbF3Tx8bFh43El6ddoeaMDx9EZx5exOGDAIzFjfYWcV0T05mcqywbsti6UT/qhXRX+DA2Y5UH/dBbc7vntfP/qDVxz9yObF+TO/PHWnHPcf6e6dDut1PEVvl2hMezj7t/P3uc7xDfvTl0zdp7BVyvyUud6RnA+uXlx/2GfYb73dnpETh9ZG2yT/E8xMarPYeuOeOQL7mSM9ePmK/q85oc1CGPastr+ApP6zMInjv+qNa1Vs+303nNd4manzl/Vh7wo58Ta9yfhSHnaHCY9qdrYsBWxfUaGx/RAUP304/YeQXdFD6eoPDhxuFDbveygAwvGCyQ1UaDficwG9bqhRf/fDhMfDZp8Use1TcPhd5nXG7G6Nm3a5HbYTXpsgG4mYGb87KKabKx83lNTJOPoz4OgT1mcKZvOiDSf8+NF5/kPh1qqDL7MDMveeD9PVtzJ//pc0/fz2ZbLC5dY8TP/PU95zPn7whDeA+/KvdcC7XvyM4zjsvXZ4ztnWI6yyH3eZ8ll2Bxzdq7xO6jZa7Ji3UJhtOzatpv2H94Xj861+r/o2sTznFuO7MXV//3vHZOJx9yH5lpfOpDh1zJeRr/7L5rciB29Pj0eOExZ/f6vEEejCaOd/173hMDsVUfnrX7HLLO4LWy1+Ck7tkWX8RTOQKeve+s3Une/Ke5RB6u3vLXER/dK6YcLu2DfxTkLpV/dbkUPp6o8OFC6xuQJGOBszgobND2DUm5d27JmdxXm1HP/TM3ZX0f+Twa185nt4/ceD871yN/Z3l2ZO+Vxr9y7q80T8aadXu7P2MR01u0Ps9pL7X3rmvvXfM6mtd3Xpu73J71jHM0X3X8HXKo+eyuWZ/9VxPuX4xVXV72mXv73hWnz96zdutJrNPe5ln/pQofEmtqH0koNw5af81Rq8LGRqWVby2V7xuScu/aUuWlKsn8gcEleT4Cq9UDw3gfEZO+V60xge1K5iv1f/ZD75mw/cq5P9M8XBqLz7NL5SN3m8PTEY6uoxQ+/uefL2nOPLePsH2V8Xddm0fnBcdf+Yz6Djl8ZJ0cnWO1/Y44XfOuIR7Xtu+6V1yLxz31Uvh48N9VMbluHLRUXVkAvfrqQuSnnMqvHir8bIkiiUUU7CHbfwZKcaXKYHdFtkkWP/zcC/sUJGrMVIW1Tdt964e82GD9cxJscU0fY8oRW5VBrn6U6+2EVc8FO+Dl3wlrl9y0V3NlnDH6HLd1/rRRWw/APaYjrPxpIba0Mfmb5g/cidWCETawV7FFpo7XmCeOkXedC3TrT/6qPca4r7hMNskHuWpXHpgr7WSHeatcq7FU3emaXMCj5g9e2quYVlz6PNQxdciT/soTcrSfMfziv8poq8YLZ/s8gg+6Vc7rPkfExJzXXNE3VvVoja/qGBMxVO6oRx/zoK65dZwqN5BBHz/OO3h0HX1MrTk5X9jkmjgrpuh27JHr2CP3EY4Ru7mIWW+nPNCTg2CIDDzWFmPENWGvfXTgiXOgTvUH1hWrPqY/Y6jjXBOT9vXLPXPfZblnHpSjrXNb550x8qt7cI+hcqfamfwezSF5ghW6csg4VxxH9hIOwbuet7ZpyXuKmT6xRebSuJA7WnvEpG1igAN1n6zYwhvupxjlBzaYA3yDdeWuuFZ9fV+aV/dTbXGNX/xXLuOj5tRzrrj3Oer26z02qx/G3I+d12m/Qc5xdcRhWpvV5yU8Q/6I532eqw/wqzgba22rvNeVK1WWa/JDDqzrfcWQmDq/uk19TS3Y1/nAV59P9nU40vXpY6zqf2YOxFr3BuLosU5YoOdcdfyYR9cfMtP66zhcco/dOocrnbNz/ZE93nUvFsTHNbFO803MrlUxUgfcp5wq1p0b3KNT/eNbO0dzRwxVXj1afXFNzJfuFdUG1xPH4Yx7FPlV/lf9mrtruY6zzthzav7YqvtulX/W6xQ+nqzwAbFYACyQShoXFKTuG02VY8Ggywc5xrApUSFtlecaWXwq38frvbL4gfDYqw9fNjXuWTQscBcv9omj2iIX40KPMRct8owpj25dlMhz70e53jKOrb6I7a84oUvM3Xe1Odmq49glNm0YH63565uY2HwnrMC32vVhOW2aYohddY54UDd9ZI2JuLn20+PQPrkgy2fa9OQEvFVHXPpcME482Jp4gC1t0GoHLCb8mFOxrnr9esII/hm7WKiHTR8YfR60VXWcF/XNkRY/9JsLMYs1NvioB77cg5t5qVfllK+tMSDveiV280Bfv+rhh/6qAyaufbioLC1zjDy+jA/+KF85gDz+kMcPY8TiXNLPZ+JU9ck1vvCBPv7oq37to/8Ie+PWh/gaF7FyLTb47Tr6ACvmlw865IM88dSY9GVb5xlb+tQudjr26IrZCkty0Qet+KNX+7muMfQx10XNz9iItct7L9fQs89Wf9ixT+wnm8YArsqvWu30OXRNMCdgwT12+dAHLjUe7Zsr7bR+5QNjzHOVd+5p1dVubeUXsYNbj6vP/5m1h1/zm9aXXCXGGlO/9lmEDbAjT3SdZ/q6ztm80NdPn2vywIdrClmwp4+567mZc88LO66dHm+/r7J1nVXOkD9yVVf7VUdeMNbXJrqO02pPLpOLPNOPY53nYj7p6IP48cHH+Rdi2/ZMAAAgAElEQVTXjpf+WDOMmRvXfhhDznFiwBct9o0JXWWrXW3at2udV+xMa4Xcqj45yhHmgzGwlGfERtzGdescXKvTvPY1QwxgQUyVO8bKGPExjj2wdf3R1ryvvZYP+NjZuAYnOTvZZt7ID//Vb50/1w19crljiK7PF/y4bvSNj2rfa+TISa4gz70f5ZyLHudq7owTv32Pwib9fOp8Vx1z1v/UEjvrAg4QLzK0rhX7jHHCoGJWfRgLLbgzVrEU36rzrNcpfLSXjEdMFGSEgJLSBVcXB30QjviUnzYNdbVlPpDShdXHsFP9qzO1yuJH8iPnJokd41TfmPoGsdrg0HMT7zr67znoq7crrIiRzcCHnHrixJh9tm4WdV4cq+3KpzKOn8FKfDse2Jww0UeXt3/KT34Y51Hrxj9tyODbH8D6Jt5q24228wYZN+y6qWqHeD3AaE/e9H7HaysvsVf7udZOH7t0HvBPfOZqjt5Xf64DfJob2CLDGgMDPnW9MWb81Va/lhvod647pi917e865kBeytKKyQqrbh8dudbnnHvGen/157Vxdr/iab9xI6+urf76mPNALJ1LcqP2uzcwpm1b5Y3H/t5Wnz3/OtbnUSz7niwOPTf8qrOKoevov/fDSWz1/mrXw9HEA9fJtL4nm3Kt72vVn9fG3OfQNUX/pRy/hkNnYjVmcj4Tlz7IVRu09nfM5fu0ZyMLh6qd6VrbHTufncRf5xMbZ/OqOeCvxiGv6/pjfLUG9d0xQodY+VT7q2tl+zqrfOq4rnTMoXP8Gp6teE4e7j0VqxVOVX7CquNibr2f+xpT38t8bvV5RW9ns/txXvt8uKf0vdh9qMdTeVt93DIHfLBeekz4Y92Rd52jikWP17y7jnsx/ZfMX811unadd4522WtwUmeyrd/OD9dM7yceeV7HXJfgznWNWw7Wvn4tzissV3FiRx73ueOesd5fdTqfzXvC6tKYtVFzMcZuYzU3+J+wFKe+93W7z3SfwseJB9+9Jk6iSUo3bheHDyoPvMr3haDctLkSuxssi6DmInH1X8f6tbI8oOuYMbGYaj/Xqw2CRYR8PySh40OKTaDa0/8lsaJnXBUr8MW3eFb7XItTz5H5WGFbbUw+p/HJ1gqrVT92z2Ky2vBW/TX2eu0hrc+RD+D+IF/hIt7TnJpbtaWd7pfYfLCAV421Xx+tFf32mC6ZB3CEX+TlA9ccp4eDsYh/1XMduBf0PI7uzaPip47zh1/7aHc6xljlV9fOE/a6jHbEx3HiZGzSUYZWzKY1VOW4FvsJA+3gs8Zi7JdyTPkpbvE84qQ2VjkRC3F2O2LZ91HtTTGp07Fa6eww7Db6vftBxxg5curcXsWA/G79db/ameZwNycTNrv8Vxw6E6uxG9fE1Sku9Xpr7n3ujbVj4svf5LfbNq9+jkAO7hIn/qveNXnph7ba8txQ+7wWo7oW9N1jQkd59XetstW28r5YdLxXOqv5uYZn2upzSmzT81D5HivyYtUxN8/amlvt81of0162mld0dza1bWus/Zwml7GlLO0lfolbnVvm4HN8wtW4+j4oFvW5VPPYzV/Nw3zOtsY1+am2rsFJncm2fjtWrvtp/YlvXQP2dVxr7Ltr+bXCchUnNldztzvfqNPz22FV43dvn9ZclfNaf97bXupP+R0Oyjxbm8LHExY++kGRhVsX9IqYEnDaTCDeavxogVfSrmRXMVW/+NeW8iw++2q7Gl/5r7r1WjtiQgy7oge6bk4cQrTlnFxyMOw+tWG7G3eOKlborfoZO4vJasNb9Rv31E4PIzHuD+xV3vrdtRWPlZ0jnGr84ikv6hjXK0zVq/Gou9JhXJyIXfnamnsf9yA8+av6q+tdTD4o8V31dzrGWeVX17t5WtnZ6VQ/HmqItfZP1/rq2Co7je/imDgglsyzdm3Zu/Gx8q/czicyKy4Yv3Zsd/bO6hzxV5+r1tjr/ml8HRf7p7mdsF/53Nk5y3Hx6rHqexo/E6t2zsalXm93uVucgLPq8eJ+6YF5l9cq/lU//sXOWGwnP+alzqqt83SNb2Oorb5qn9er/WilYx7Epg1a5Wv8R+MrW+hNGN5ir6qx1vi8PhuTeubv/a49O6/OUT3XYd+zHb6rv1vmYKzmN7UrLtSYuJ7mVBn9rPij3CWtfnpcXfcanM7qKN/nyFimcZ855KHcmfYIS/GZ7Du/3Z9xTpheo1Pty+/JdpXz+qP+tLPDQZlna1P4eMLCBySxUg+ZOXROB8ZOcAnY+yXdahx5FgGLUtlVu5LdLWj90mpXefzaV9vV+Mp/1a3X1Y4LnbYe+qq81x70fXkn9umlRvna6nM1D7vxCStsr/oZ22GCLw61yJiTONSYuV71d7l67zdddW7xU++VX+V91u/KDn52OBlHlVvN0QrTnf2VDv7MkdhrHF6vxrU54anurlX/yG+1sdMxzirvNXsU+5b6ynKvjK1j3tvu5lYZWudhsl3luNbXEQZ1fBeHvvucmDcYuG+cOYzsfNacu1/z63nv7J3VUb5i1P3t7v11UZ0vDqb1Xv1d3Cvs1a3tzo5zNeVjrtWWfZM8ctP4mVj1dTYu9c6sPTnJ3o0+XGXPpl97u3aX1yr+VT9+xK77nPzs5rTre3+Nb3Vru4oTmVVcK50j+TM8W9kirglD+sXk2r0KG6vcdnjsYjqyyXj9mMOE1RSbPGdMrtPnWRusqv1rcF3lsIu1+qzXUw6Mr+aUsWv8VJ/1Wj/YrP39+hqczuooDybdP/fTuFj0eZ30pz71sT2Ni89kfzV3xjlheo1Ojct4JttVzutr/LFeWDs8u/1CRzsTDvp6tvZLFT6eDXzjcTHUBeZBkQMJHwjX5TvBj4i/Gj9a4PqlXcmaQ48JHf3WhaE8i6ba93o1vvKvXm+1Y1we+sB0V/zwYegDkm/DavzdT73vPusY17vxCSt0Vv2MTZjAF/rJE118Gocblfe2q37Hp9Zvj/y2kAN456t6q7z1W2NUZ2pXdpDd4VRtKScv6hjXE6ZH9lc66B3luBrXJvH2GC+5V3/CFo7ot9ra6UzycID558P8u6528zTZIYadTo3xaP6qrL4mDJCbxndx6LvPCXiKgzY5HCBX9+8aW73e+URuKjLW+Kstrnf2jO9SHeVXGHY70z37Anb4Ka8/R5/s7eJeYT/529k5y/Gj/KfxM7Ea/9m4rll7Ys984He3ZxtXbXd5reJf9WNX7KoPric/zik6XX51f43vydYqTmQ9r+Gr6q50zGMlz3i147X26vjKFjoThvR/dK/ChrEYW22vienIZrXP9TXzynqB9+5F5IAd1kC3f8scjJX56H5W9yt8V3N6hMnKz6pfP52jXf4anM7qKA8m3T/30/g1mFfb6mO79nstPtOcrubOOCdMr9ExFlrjmWxXOa/P+vM5gX32O/8kR78TDvp6tjaFj1ZFfsQEuRj6AnNz5iW8xqV8J7gPXw80VYdrX+Y7QbHDIuj+uz73K9lVTOhMC6O+dPmiVP2xyIip57jyX3Xr9RSX8fBSsnohISb8I+OCX8lWf1xPPqvMbtzY+hyt+rHLy1afP+d6eqAjy6fGxPWqv8v1eyu/YOaLXpfhfpW3+lOsZ+wgu8Op2jpaK8ZEzFVvZ3/HTe1ZSKs2fRGZ5sSX3f7z3Kq/u97F5HzAn2pjpzNxRP75INSW9rFnn+1kh7Gdjrq0R/NXZa/BfhfHigOsOcaq7zPXO5/YcV76OrkGy5UOthnrc7bD8NIc5TJrgOvuQzs7HNzXLsF5Z0cskdGv7YTNLv/V+l3xRD9Tezaua9Yefv0ZOOsIG5fgaby7vFbxr/qxOeFN/+Snnhv6fmN8vV35Xs1b1/d+FSfjxgo/ladd6ay4eQ3PVrZqXH1+P7pX7XJj7JqYjmwyXj+reV3ZgTvgO635atfrW+bg3tf5oa+pXXFHrvU5xcYOk8nHrk8/2NzJXYPTTmfa4+u6v/R9QczvcXYCD/GZ5mE1d7u8r9Gp83LmTITeyt90BnCv7GfFIxxqfM90ncJH20wfMTkuBtrq34XbH/ASvG9IbA4WS5CptupYt3dms1zJmkOPiRhWG4S2yLPGyrVj/ZBvf91sej7V1iouN1cehFW+XnsIYbGfeWDpk7kAd20ap+NnsBLDHq/9bGLY1Zc41T7G/MUL8srauhFWHWNWZmq1KV4rnVXe5gDOFS991XjoW9lhTFu06k8tfsy3FyPc+Dum1X7nAzlrr8eLnhjtHhzdJnrmiu3+wCeHyVfNVx5Ma8z9pWOlzmTbHKuPqY9xX64mnq90zHfSqT7J3b2uzx9ydf+TE33tIOdYx34XhzoVN+VrX433kmttgE1fB/K17ynYvQZLdSpOcBh+MtbxN+dpjcLL1ZqveSOHbWyQR9/blV3hUPsvwVn5ngt+6CMWZPRrKzbe05r/GQ6pU/0zj31uq5+zcU2xYm+39hj3DOF8XzJ/xmle0xys4l/1Y3OVw8qPtqYXGrDt+6TydQ9ETozwb2671jjrmlHeZ1/nkzrK2a64ac5neLayhS/t1blSvvYZ15nW3GrO8kgfYN9tTjEpo03vd63zWv0rP9nR7ySvXm1vmYO2iKvzE59TTFMOyJrHNH8TJspjr+Z3dK3eNIdV19wmOW30WNUhprof1v6uY251HRuHY/WZUm11zPHJuPpTq80ah/xGfpUbY6u5M6YJq2t0atzkdOmZqMZY9zPy85lQY1zFjU/lK041rme8TuHjCQofvmjVRbsjiy8sEK7LaYsF4MKGzD6YJx8uuLoAul3vV7IepBhX1tZ4+8sFm1FfqCwk5LDT5bHnCyTj2OWDjboh6ZdWPCasXLCTn+5rZb/6qtfmBe5sCLTEehSTWPVDHViJPRsSNmmJnZaxOrdiiF/mBi7Qx0cugHWN2YMgsWOfe2SrzHSNHWPD/iRDHzaR6zbRNybmBAyQxRb3xFNjXdnBBzr4EOtVLPSLNfLomTPX2ukv1c4DMbm+aNGd5kH/NUdsm498Jn/71LE1FnxyLTbc41O5qTUmZOv63vl1XVQ+YZv4nOd6kFAevoAFfvBbfdTYkNFOz9n12jlS9b1WFlv4BhfmtHMGH/LrUuyxhd0pDuejckxemFdvsVPxN4faVlzw4Z6z278Z05fy2sQfY8y9fbZ1rZOHuDlnYKgsbcWQMeTBSDtcV/nVtfPQ7Xd5YiZ25LANHujil37uu06/382hcfS4K8crnjV/fHOPP/HCnn3GUTkhP/s6VNaWfMnvXmtPP7RifAmWVc89hbmo/Vwbf+e6/Zfmha2VH3A1dnBnDvmAMf3o1bicI3mDLPHU/aPOddWt1+jzwaf7H3MOftqu8teszWt4Rj7GVf1zbWx1riovzam25Nfnr9vl3rUP5uKPLmNiC85d1zWMfh2r+19fS1XOa2PusVbcq53KA3VrSzzOKz5unYNzAV5cgxlYgBlxkL+57bAQv85zdLVV15n8wIf2L2mNd5rDqn8NTui7hrFPjPgjfvPjvvqp6565ZGy3/hg3h4o5fdxP+FV/lS/ExAc994rV/rSbO7Fyneivclb7ju2e48rYap+5hs9yDIyJva6Hun7NDznzrvNe48MmOeKLPOQXNozj2dsUPh5c+IA0EBKi0nK/I40kQ54PxOsLBVJKau1yT3+3jb628N8fIlV+JYsOi0Q7NaYeb18cxO5GpD4bCouq+q7X2FCWvOrDqsphQ2yRJy7H8VvHiL/jyCaBXt+AtbFriUlMaJ3XHlPdfDtW5FZ9oFttOlduwJU/PhDMkdyVrzZqzuhUW+RdN8oaS7+Wb9VeldnljRx+yN/YnC/6agw7Ox0/7msM03X1iW/sI1dx6Hb6PFyiU3Os64hr7Nccj+IUGx/+k7x95sH8VL/kOvmtMnBHzjCvdW64dgyuO//ExjV96HDPhziIqa4L+rEjZ7AnX6uOuUwtOjVm7LE/dDwv5Rc+ruUY68V8Vy35T3nQ54GJHMCwYsF937/PYAlG4owv8Khz5lo3BuKfdJDrccmDVV6130OVa6aO1Wtyc17x5xqkFVvirzr1ejeHNe9qe+J4na8zHDKWGgf57LAyX/IjLmWnuBwjvpoP1/ShI06uPWOy9TlaeeHYqlVH284L8u41Pf5r8tr5wRcxdy7if8Ur7Mlb5JxX86j72Sp3ZfGLvPfk1/1iv8pwLc7MnbFgA33H8H2GZ5Vf2KpzXdcKY3WuyMH4V60YrfAgTuecfLBJ35mYXMM7vCb/ZzgltsRW9aa8yQN/98oBuzUGeAFuxojvHRbMYeWO+KHnXJAXMviiv/KA+0s+1Rb2Kn+r/jU4qU+eYkG88rPGW/NDD5zAq2JArOaq7dpir65FfF5ydsJG3YfcW3s/+Bj7bu76uidubJ3RIfbKlZqn1/gRV+eOPOC/MrTckxMyfFy/qzNAtQv+yoO9NsSh+nnG6xQ+LtwInnHyEtNlm/i1OLHBsKDZCK61Eb37zlHw3ePrASYc3uP0UR55qJkOVOwjHkR2BwMPHB6IPhpT9O8756+OLwfXcO1yjni4f/V5v8Ve9YoYsPcyh7xo9vjZe32ZzrPy8jXRccx9sHsFDqTwkcLH/3kIvAJxPyPGHAyziX8Gz+7pI4WPz+Ew3yhxcF7NpYfuFD4+Zz5W85D+/4d/ivrnefguhY9b7FWvto7ke/8FQc0jz8rza6Lil+vg9yocSOEjhY/lYf0zSey3nRwuPtNv9cXPwfg2hD6+FSCWd6n+v8uhrc7XK187H/fmVw5zn3MYYT53hQ9/Mrubb/fAz/4WXo7sijKPXGuftVbO5PiMMe3i53lWX/q4/mye7eJ7hTHn/BVi3cV4i71qZ/8Zx9xb6xrocfKrPPbw/icBXe4W93Jp9zy4hZ93teF8guO75pi87nd2S+EjhY+n2DieYSPjIMjDjxcAvhXhZeVdNh8ftO+Sz6vn4Xzc++Djn1hMf4Lx6hg+U/wWNjhY159S802jv/bgF2S7mCm6wotdAWWnf+1YCh/nD1iftX6vndOu5/MVnsJDOAY3u1zuZy7wMuyc1/X9injdYq96xbx9FrIfV+5bFGR+d/9WxC1zlkv3fv7fMuZnsuV+Bo7PFFdimffPZ8MlhY8UPrJx/P8c4KWFjZRD4bN++/lsG0jied6N3hdaD1nh9H3nikMzmLN/iDnX7CtHB1z/7l49Cq/1cJ51dt+5e3d8ebmTW3D01V/eP3O+WIesR/FjTfvL0M+M45a+PrJX3TKOz7RF8YpnYH8uMrcUA7PfZo/9TD7G1+P4lsJHCh8pfIQD4UA4EA6EA+FAOBAOhAPhQDgQDoQDb8uBFD5C7rcldyqqj6uoBvtgHw6EA+FAOBAOhAPhQDgQDoQDz8KBFD5S+EjhIxwIB8KBcCAcCAfCgXAgHAgHwoFwIBx4Ww6k8BFyvy25n6W6mDhS6Q4HwoFwIBwIB8KBcCAcCAfCgXDgcRxI4SOFjxQ+woFwIBwIB8KBcCAcCAfCgXAgHAgHwoG35UAKHyH325I7FdXHVVSDfbAPB8KBcCAcCAfCgXAgHAgHwoFn4UAKHyl8pPARDoQD4UA4EA6EA+FAOBAOhAPhQDgQDrwtB1L4CLnfltzPUl1MHKl0hwPhQDgQDoQD4UA4EA6EA+FAOPA4DqTwkcJHCh/hQDgQDoQD4UA4EA6EA+FAOBAOhAPhwNtyIIWPkPttyZ2K6uMqqsE+2IcD4UA4EA6EA+FAOBAOhAPhwLNwIIWPFD5S+AgHwoFwIBwIB8KBcCAcCAfCgXAgHAgH3pYDKXyE3G9L7mepLiaOVLrDgXAgHAgHwoFwIBwIB8KBcCAceBwHUvhI4SOFj3AgHAgHwoFwIBwIB8KBcCAcCAfCgXDgbTmQwkfI/bbkTkX1cRXVYB/sw4FwIBwIB8KBcCAcCAfCgXDgWTiQwkcKHyl8hAPhQDgQDoQD4UA4EA6EA+FAOBAOhANvy4EUPkLutyX3s1QXE0cq3eFAOBAOhAPhQDgQDoQD4UA4EA48jgMpfKTwkcJHOBAOhAPhQDgQDoQD4UA4EA6EA+FAOPC2HEjhI+R+W3Knovq4imqwD/bhQDjwww8/fPvzzz+//f33399+//33bz/++OO377777ttvv/32z3U4Eo6EA+FAOBAOhAPhwGdxIIWPFD5S+AgHHsYBXoB4KeIF6bM2vfjJA/aZOPDLL798++uvv/75/PTTT2+1DmqxwzxZ77/++utb5flMfEos2d/CgXDgVTnw/fff//MspGD+qjkk7udefyl85KU3m0s48DAO+JD7z3/+87AY8pB67ofUu88PxYF///vf/xQDKAS+e77JL+stHHgODqQY+RzzkPXw3/PAFwAUyN/ti4DM83/P86PwSOHjxV56+Wb8jz/++GdTYGPgp8NnyMODDj1s8JPjM7rPIMtLAvHzIZczMZGv2J3VPePnSPYjORzZ5gUKbPgG+VXm15gpgsDvV4u/z4kPbfLoYx+9t1CE7bNr/6O+L9GX27SXyF8iQ1GMfPnc0u4lvieZW8QjTu5D7k3v+sunn3/++Z/5Y/+dMP2MPjGHR+J+qV/WGnrsq684Rx/JXW5eg9ul+F4ix6+EwP8e+8Cz76sTPh89C8pp5hdswXXy81l9z8Iz82WPAJNb7ln35LBxP6LlzOOfNN6KRzxnfd47F97fI8d75PDROB8Vk2ecd/0iJoWPFyt8uJDcZM6+/PCA9+X/VUntojx7eFWP/B99eDWWMzkcbf7kxMGQ/Gjv+ZCQh7dqyc1N3vhfkZ/OAQ//M3N7CY4eDOsc03eJ7mfJkL970y3/nGHHfbDmc3Yv/AgmH4mn6hI3mMH1z4x/yp24fLEkrqP9A+5VedYtz5du2xcs7GF3xwvG+dwLi2v2XfIhV3Xh97Otu475dG/8zPM0vupT7xmemzwjLuFmzUX+oVf7vWYufebYvtL8ut9+ZM2wJlfr/Qg/cfxo+0w888uYS/ass3lfw+GzPh4hz97v/n3Gvzqdv6xB8O9zQRH9jP0zstfmcMbHWdnPjkl+uh7vifdZLG4ln8LHixY+3JD7ZnEJMdhQOGiz4Zw9BF1i/94yvjicid1vHMn7GQ411+SgznRAIScObXy49gX8DEb3nrcj+8xNj5+H3pHes4yDO4dQXgbvETcPImwzt873xIVH42Fs7C88RG8Rj4fvKd/VwekWflc2ro1HPXGR8ys/n93voUdMp0KGMVVZeG9/bdGHs3CXfnXMv8pyrd9rnmvd1nTvHnrtvqj+xMPJ3zP1GfuZ3J/tuen6OYO/OnBrmo9X2Ven2OkDC3K7ds3wPMEG+/bk4wi/Seds3zPxbLVn3eqZLp5nOHwWz0fJu3+f8a/OxF84WZ8f8IT73XPpjO9J1nimsamPGF2DPAd9ttHuivyTrVXf2ZhWdo762QvwVXPgnv4j3VcaT+HjCxY+JCgHoDOHIPXu3fpgWMVGP4txNT7Fh+wZ+cnGLfuuyYHNHmymTYiHskUD4/RA4/0zt+RG/PWBRq68GD5z3DU2H4DT/FS56Vo+TA9/5MGFh2q1rb+K2WT7UX28UPgAPRuDe4AP/N7WtYwsH/A46+dS+VvFw0GoYuIc1nm9NKZ7yJknaxHMOWiu/CADJ5FbHeLRt+ihHfJfret7z6XrrPLHuC5t2WtX8V9q4x5yzt0qt2tyR2dl7x45HNk0xxXfJn3WmLzq46+4r/YcfOkixz52yT1c3r3U7/C7xP4lMs/Es9We1fcx8xJ/74/aazh8ZPNZxn1On4nHtTk9v+Flx/0j54pL4jqbA89090iebT474cWU0xTDEYfOxjT5uKSvn0/QIaepgCOPzf0S+88ik8LHFy58PAsJexwsJBb6akEdjXd7z3j/Djk8I66vGpMPvmsPr6+a96Vx+5AFp0t17in3bPHcKlfzcn9a/ZKDQg17NC8JtM8yL0c4mBftkeyrjR/ldjT+CvnKz1fh22dgmmfHY//BxLMvpe/M4bNYfMb6OOvjETkc+TwaP5vjLeRf+XmSwkcKH093APRBvjqcvvKCc8N5hxzMJe3HDl58K8DPN3m4cSgKnv8Xz2c7LD5bPLfijHnR+muO6dcofOvGN1vKv8qL6Dvvu1/huflqfLvVutzZcd7BZieXsf/7XPkoJvKRZ/elttR5lT3z0ryQe8YX9DPxPyIH+bDj0DPi6r6zek87i/tnyqfw8cDCBz+z9GdREJsFwEsQh0pfhDxcdlJIuqrj4uCni6ufWCHPuPZpuae/+uDnTcq4IJExXsZWhOegXH0YV20nXfBAr8rVa2Psh1fujZX4+kGdn2lp5+hh81l53yOH+jM78gWLjvOEBd/a+pJT8ZOLYsfcrHhVucP1WQ5gl1jlV42/+6wy6DBOXnKgxkkcrhXGp5/s9di9xy5rUWyIiWvs9z8vAXv9KIdul9O2bV1T4lxb5WiRreuDWPBR8fkIf/XV9yVwqz+Frj4Y415dYuyYgUtfk8pPLfbqHIs5uNT1i806N+4P1Sa2wExuYKNjVuWn61vGA7b4Nx5a4qv4THmh59yjU3nM3IgDbZ2PKZ9dHxiCEa17RfWFLnwjBvwoX+el2jdf43MOe4xTztVOvxYL7LnH0eqHln2t6yHTdZyLuvd1vY/kUecO3yv+gUHnKvL1Y641vm6/ynPtujibu/OPjdX8Gsc0fz2uW+Td+XbEfXjm/JKH8dYWm5VPcKfHOtlBz30KncppsNbvjlfGAVbacs58/lQ7zqV6tMxN1+GeD3nV54N69LE+1EUWP51fU97a2LUTl8kPXKseedPnuiUOYqpYVvl6fcQ58ql71xFXtH1pTB0bMTcH7fX2LIfVR2/CChyUYU7lC3Ew/4719cgYfY7bHuGK3b4+1BUD7rEjv/pcOF7nfeI2PIWTVQ6b9TyCXh03FlrGXFfo1bHVdc1BGW04hr9bYH0ph/RLPEe4fgQP+MCaqfmSa8W788jYbKd5FMdnaVP4eGDhQxJIMtepyWQAACAASURBVBYSJIN4fbHXzQ09N5Sqg56bXt3w9MMig5z4c8ODpOpUcqODT+TxhS6xERebniSfdLCHrAsAO9yjQ4z069/YaNnkGNM+Lfd+fIATg7bIBbmKF/6rXa7ByVz6WL//jLxvnYOYkSf5gJV9YF5zFAvnkvnlWh6CHxhwj27lFTarreka3TMcIFZ9T/Ez1v3Ab+YT/jEuB/BLP+NwljHzpJ8P/d1ev4efPQd4qH2u1RFnWjkqxshPXFeXMWzV/Ln3o5xrd/LR8bmGv/qxJS7x6mscGTjRsXSNT3PImLZ37YQlWGh7OrxMcyIHGUMfn+QkzvjZxeHYreLBnjERg5wgNmKceGJe6JG/a9F5AWf6XL+0jmnfPC5tiQcbtHKAOKo+XKQPris/zYv5IoscNuocEHu1y7U5K9/H670cpAVT5oq1XnGQi+oxTn5dR371XNH7SB597syv564P4jB3dY2X/mlenYfKVWT9uCddk7v72DS/Ylpb8zN28uRj/0fzJifwIB7ype1zju8aE/fo8Kn9XN9iX/VZhH3iMzbikle03fd07/4E7uiAV7WDj54f/uivOhXzfhY052kfwg7jNbYdflXOa54X2CEu+SqP6FcOu/CCD7jRf7Q/qFtbuYU9MSN/fPHBN/cTV4xPe2diQlY+4odrP4xps7fqyJMprq4vj8gFe6xp13vnluuc+e2+uSdWfE5jtW+Fq/1gWuW1jX04RFzEYpzORdfRHrjUMXIkB8Ydq/yo5xLwwj6faoPrysc+Nt2v7NjvHKD7Uawv5ZC+L8X1GjycJ1qfGXXdulYYYz6qPPd+1J2wfZa+FD6eoPDBJgSxWeB9w3OsP7zs7zoucuxVkkFaZPl0YvognMZccJC82qukr/0eAvrDUx+XbLhuJrTVtteOE1v1Q17G60apDveMXeIfHe3cK+9b5uCc91jJgzklFzct+sSC/o6f8rSVi/pAR0xX7VkOeEiZ5tsHfh8Tvx5nzY2HZuW6fi7hgOur80gb9ovLZNM1Mo117Fb+kHPt9gMOYyusz/K3x1Nt1we9cuTW48HnlKuxVD5pp7Y7LHf7x4SdPOi8sR/eVN/T9S3jwT58BIu6Fun3cNHXr3l1Hst9bHUdffS8p/ymPvGR39oDC+Xp06/y07yrqy31yV9O9DFz7v3q1rbiUPcxZBzr82w//qvO7tnxkTzQrXuQPO5rZ7WOlZ/wrVjUnFdzf03uu/nt/rl3/u6Vt/Gc5b58qzHfcl817zO8qrF4rZ3+XKvYwhXla3/Xcf8ipiovD/oas7/bR3fCr9r0Gq4TB5/Ke8ZdR8p63+PY7Q/q1lbMOufMh9jdr9TTNzL20dp/JqZLsdHPNRzGB3lqw1bf9dkqfsyBcrbIoVP3c8d6u8LVPanvYegbT58Lz01TDvrpmKtT92l8mEP3r++eh3hPvrtszaGOmXOP5VZYr2I3BsfP4KqONmxXeIDPtG6dn34OdH31NaSfZ25T+HiiwkdfVBBn9fCSjJPORPjV4VpyQnj0+oaorf4QcyPom4lx9U3MxYY9fa7aowXleH+YYe/If493FcO9875lDh6aO+YVj8oT54JNtOcvftNmJiZdp99ro8ej384BucdDpNuStz1W8ePh2HWMc+X/iAOrB2v3w73YV3yV0w7x9PWjjO0KM8bFYJoTcehrQQy639W6NY7auvd07LGJ/Snnqu/1LjdlaHdYyp1p7i61ry+x8X7V3jIeuTDFb279IGdefU9Wnjx67PJh4kqXne61Tcu4fJFf5kHLuPI9L+V6TvoU275+zVn/yk+tuRpblZGjYFRt7XQm3x/No8+dB+U+d5Nv8hHfLl9z9drcVnPv+ITXkX/G9bNrtXOvvMVj4pX5TfmDX8fwlvuqviecxKTycIWhstPe6n7c89jpTHmvfIvtlMOldsR04lj1e+26qja8Nv/OOfPpeKHnfFWuXBvTpdgYr3Gd5bD6tTX3zi33144J8zL5rTa91na3sdrD0BOLfpYz54lb+uk5eC40ntpOfuyrclzvfHdZ7rsdeEEs05pE/hZYd589LsfP4KpOt3UWj2mtYHPV3/09430KH09U+OgLH8K4GUPiSqDVZoHMRHjl60Y/2evjky30VovHTYAHYLXvQ3va+Koc10cLajdunh3LVbzdt/f3zvuWORjrrq3zusNihR+4aF+MVu0ZDhgLtid7q/Edfqs4tXXEQQ9vR3IVE2xP8RvLalydHe6OaWtqe6zKaN/2UgyU9/BRH7hgT38vqqjTW+M/wsCYJ7ld3JfaNy79eL9qlbtFPPJVm6u2xrLKa4eFfmirrUuvtW3OtYDANQfnWghTvvPPOHq/cazGVzmrV1ttrHKVu+aC7k5n8q38LfNw7msuZ/bMqlevjXWFx258yh3bq/mtfuv1yg4yt8h7F88uv8m3sTo2tX3elak5c73zrZ/Kw67v/U72VmdBffV2h+0q725DHq84qLx4dXwvHVeOdoXZLh/91zjtOxvTpdgY89m41JvaVe4WrJkP9dzLVy/wytmubDO+ynnVv8t58qO89lYtcsarjPe22lrNq3K21Q7vLbuiBzq3wLr6NI7arsZ3uV2jU3167bqoa4WxVb96z9ym8PHkhQ/IMxF42iwk2k6+k1cd7fXxyRY6qwVnP5sF18jy0sRhGVv26XdqjxbUbtw8uh/jumbzqzGu7Nh/ad63zGE1RzXuem2sExYr/NC/1I/2L8FCWWzXGL1eje/wW8WprSlv/dFq+0gOWX1hu9rw+mhcuR3uuzH1e6vf3n8pBur5c1MwsY95rff207LWGSNmvlkyDtoVRuorO8nt4t7hgx45IEPc+qDV76pV9hbxyKkVblMMq7x2WFzjp/rWds2ZYgdYUBAEw3pwVp5Yqx3j6P3KrMZXOatXW23Q1n6vJ1s7nZ38LfOQV8ZJK46X7JlVr17vckNuNz7lXuNa5V/9c72yw9gt8hanKZ5dfpPvXaw9L+8nO4ztfJ/xcyQ7+d/pTPLmwjpmbauvLPfK2Drm/arVFnisZOgXr8nXJePVtj7rnsX4Wa5cG9Ol2Bjz2bjUO/ts9XnnFxTkR5/2jtoVruitcl7173Ke/OzkV3Ff43uypZ3a9i9yu95HsdZXt+v9anyH0zU6cIVcKZj5zqadvqZdL73fmJ+5TeHjyQsfVmkhXyXStFk4LlG9p1V+RdLV+GQLe7sFx8KpLz1sCiwkdGpMq+ujBbUbN4/uaxfvFMe9875lDsbac57yom+HxQo/9PSzslv7L+WAsWC76nu9Gt/ht4pTW+So/anV9pEcuvrC9mTraFydHe6OEZfyR61+u9ylGKjnt4z+PJbDMuvZw5RytBZJOEzjRxnjX2GkDWOe5HZxT/bxTT+xglu1qR/9rlrlqq6yZ+M5wyl9THkxtvOtnzNc0V+1XXP213pg2ed+FYtxkEO17/VqfJWzerXVxipXD241l53O5Fv5W+Yhr2ouXF+6Z3Y97411hcdufModu6v51WdvV3aQu0Xeu3h2+U2+jXWFV89tl8POt34qDyfb9O1kb3UWZE9nP+fDfs49vnfYTvhNORj/Eabihfxk52i86uiz47vLR/s1TvvOxnQpNsZ8Ni70rnm21oI1Npjvmq/xrNoVrsivcl7173Ke/CiPvVV8vf8a391Gz404eOZhuxb8u95HsV7Frp/VuDhNnD2r49kOWzzz/ZWv66JzZ9VvzM/cpvDx5IUPie2Lh2SaNgvHJsK7cdafvilPi3308Ff7J1uMG1dfcD5Ufempti69PlpQu/EVLqt4VzHdO+9b5uABf7cx1zx3WKzwQ3+FSbXN9RkO1MOcB7Bqj5zw23m2w28V5y7v6rO+6NX+6VrseWnp4zw4VrF02R3url0erl1vdb/yeykG1a45Mj9cg30d59p5mmLc5Vbt6GfC0jnpPEB/su9BZFoTK2xqLFzfMh7j7/t491nvp7wY383hbl1U26trbdNWGQ9/fX6V7/NivuhVO147P51Lq5zVq+1Rrs6zBzh0dzqT73vkYVw1lzN7ZtWr17vcrskdndX8Vr/1esLQ8VvkvYtnl//k+5b76s73DhOxsd3JmnvfQ3Y6U96e9eq6wL/2sWc8tpMdx2orpqtzprLXriv1a7vKf5fPNF/XxnQpNsZ8Nq5rn63sKcTGcwwbvWhtPKt2hSvyq5xX/bucJz/1XNh5uop35Vv8Jl5PtrodYwe/6YyKjY9i3X32uFbjxjblttKZ8PCs2vcW4pjWyq6/x/6M9yl8PFHhg4dGJ4kPEshXx6bNwvGJ8C4QxnpRwrGJ9JMt/KjTFxz32Ll0szLm2rrQqm1iNm7HOybYWOGyirf6rdf3zvuWOWgL3MWo5kLu/Z78Kr6Or/BjfIWJurbYOMMBfU78d4zNWvu05jxxYBXnpRwAQ1/0Vi/hxmIcHC7ss3Wsvyw6XlvzrPm4hoybvKYHb59f7H4UgxobGGDPQoBxVRlzrfEz7oEA/SnOasO9rvOY+dA3OFUdrsWu2p/6kDUX4ul2+v0t4zniFDj1tbvKQT5MWEzzYN8lOWu7YgkuYtHn3peFHkvNF5mKbR3r9lY5V32vzWtae6u41KHVju3ku8Z6qzyYhz4X+D6zZxpzbc2tzgXx80HO8UtzR0c+VJvVZ7+eMFTmFnnv4tnlN/nWFmMf3Vd3vneYiI2tstOz0DXY50+dvmaxOeU99SFLsYIx7BmP7UrHcdsdpvDQGK9dV/qp7Sp/Y5nymebr2pjExtyIre9rNd6zcU2xYu+SZ6vPTfaWS84hNc4VrsiYc5Xf9e9yXvmxfyqiMVd9zRpT3aeZB3JnbOJBj3+Vg8UCzoWruf0I1sa+4pDjPd4drupcgsfKDjiLX9935GXFFXk+Pc5nu0/h44kKHyyqSlIP6SyoTibJ2F8IkZPwfWPwWzbsuXghPH75dHkXA/a6fzcCbFVS+/A0htrigxi6rarPdd3QsccCq9iYx7SRu/n0F1YXaY+3++b+M/K+ZQ7gad7wggMS+eKDe7CrmO+w0A4yFRv0nUu5U8fr9VkOMN/EiH3nDX87jHwo9gNijZN5rHGxtvABJrV/upbfyMtBfHU88SdmxMs99nZrd/KnPP7wwwdMxFos6OOa+UFG3zXXa/g7xWRfxRTf9tdWvIiPa2IgRubJ2OveVnW9Jld5AM41R+eOceVtwYxPta9P8KGfeOjjI2bOlXZ6e8t4sC1GlVNiRB/XNYYpL8bFgvEqzzWcoJ88HcOutuxbtcZIu5Kp/fqb1pS2mDP5CabiP/kwzjqX1V+9rnmxfpxPfOGTT3+myYuKjzaNyz3I/lvmQf7maLz4ObtnGlttH/3cJBZz6/N3q7ydi4lvchEsKy7wwbgq5sjIB7jCNZy6Zl/Vd30JMAZ5NfFdGVufa8RTMfT5gK2eA1iQX7ePnHnXdaA8OIENfvBbfRgP7Q6/Kuf1hCl95FTxcS7pxwf6R/uDPmprjhUvxrl3rMpz7XwRVx27JibXLnnAH+6Zp2q3XuvjUg4rj32uwQo/YCnWPXf9OafgALb2X9KKXbe9Wsu1v/tyLsih+175qedC8CRn8cVO5RI26zwwv3zAWAwmvHssuxzEelqD2NHPNVjX2M1RDu1i2uFabR7hUX3gH47BNXEnJ2xUvI6eN1X22a5T+HiiwocbphsBCxUS9gcdZFSGDcCNCfKi4xjXjkk8yVxlWNDoKkMLqbstZbCJX23UDahuVo73ljyrr+maOPVBvubB4qv2wEd94nAMXceqLcZrvOrafkbe98gBjpBvnTM3rcqfHRZulGBU8Zt4BU5i1ttrOIAPeOicO0/E2+2v8MNGXRuV/52zyHW7/R6dbg/fFU90LsW+2+/3NS/momMMFj2evnav5W+Ppd/LDfeAPs595R/Yu/48MDC3ruNJnz7i1xccML96+AYD46h4VPvMSeUTcvp2jdBq597xaJ88an7EzD39ytCu8iIH4wefigV40+cHPmGr9lcf/Ro51x+t89flvK92eyzKXJov8quctdVb/bOf971f3lSdur6It+bX9esYNm6RB1yrc1f5d82eWXPzuu7vlfPX5F5tgdfuuYn/1fzdKu9dPHJB7rOmiGm3H1bMauzMS+fPzg6+XTf41zf2O6/IQb9Tqzw2ekz46c+eKkMM7nET5o71PRZf9KEjfs71Lu8pfvuItXKdOHkxdNz2zLpSp7ar/K/ZJ7V7NibmxHljDuBOnydtX8NhdCue4Mo9/fhizurc64uWOBhHrvYfXa9wnXhF344nzEVdH9hGhxhWfowPOWKv+mA9rSNyhcty2HlgPu2rvvVhO+VAn+NHsV6LNfbRnTg0xSR2O1y1eQYP7Jlj5TFYi5+8E5PKZ3Sx4dgztyl8PFHhgwX6zGS5JDYWLxszC7nL14poH3v1+6+a9zRvweJ//g/3J5zSF5zCges5wCGMA1k/jL0ipl91z/yqea84Ch5w+h3Ogqsc03/9nncWO16Sw6fPwTtYfw7OZ9fAJJ/CRwofN3tJszI4VfYln5VD79+h/ap5T3MXLF5n85/mL32Zv1fhwLsUPr7qnvlV896trxQ+sv/u+HF2jF89wKmzepE/z8NgfR6zR/EshY8UPm62KXoQXRU+/CnYu23Ez5R3/VnfIzaVZ8LiEfnH5+c//Cym5lvSz8f+kXx3r6F9ZBwf9W0eeW7+N38/+7zwDPtICh//zYGPrq2P6LsuX+m8yp+0+ecG/JlEfu1xPz69M9Zy/9Wfrav1n8LHExQ+/Luq1cFnNXnP1s9PvfjbMD58m1P/3MW/H2Os/t3cs+VwTTzPlPejCx/PhMU1cxmd+x0U7oXtM7yw3Cu32F3z0X+3gr9jfmWcvuqe+Wx5P8M+8i5nwVdej8buy98rFT6IFQ4RO39yzh5pPmnXz5JrsHlnrOV+Ch9PUCC4hpzPrsPi8YFL++pE4zDDT758gJubm3Ethjz73JyJ76vmPWEULG77gJ0wTl8w/soc8GDm8+WVXk6mefuqe+ZXzXviwLudBacc03ff55b/mCVfML76u8SzcyVY35fL95z//OIjBZ1UhMOBcCAcCAfCgXAgHAgHwoFwIBwIB8KBt+VACh8h99uS+54Vw9h+3Wpv5i5zFw6EA+FAOBAOhAPhQDgQDnwtDqTwkcJHCh/hQDgQDoQD4UA4EA6EA+FAOBAOhAPhwNtyIIWPkPttyZ0q7teq4ma+M9/hQDgQDoQD4UA4EA6EA+FAODBxIIWPFD5S+AgHwoFwIBwIB8KBcCAcCAfCgXAgHAgH3pYDKXyE3G9L7qnSl75UgMOBcCAcCAfCgXAgHAgHwoFwIBz4WhxI4SOFjxQ+woFwIBwIB8KBcCAcCAfCgXAgHAgHwoG35UAKHyH325I7VdyvVcXNfGe+w4FwIBwIB8KBcCAcCAfCgXBg4kAKHyl8pPARDoQD4UA4EA6EA+FAOBAOhAPhQDgQDrwtB1L4CLnfltxTpS99qQCHA+FAOBAOhAPhQDgQDoQD4UA48LU4kMJHCh8pfIQD4UA4EA6EA+FAOBAOhAPhQDgQDoQDb8uBFD5C7rcld6q4X6uKm/nOfIcD4UA4EA6EA+FAOBAOhAPhwMSBFD5S+EjhIxwIB8KBcCAcCAfCgXAgHAgHwoFwIBx4Ww6k8BFyvy25p0pf+lIBDgfCgXAgHAgHwoFwIBwIB8KBcOBrcSCFjxQ+UvgIB8KBcCAcCAfCgXAgHAgHwoFwIBwIB96WAyl8hNxvS+5Ucb9WFTfznfkOB8KBcCAcCAfCgXAgHAgHwoGJAyl8pPCRwkc4EA6EA+FAOBAOhAPhQDgQDoQD4UA48LYcSOEj5H5bck+VvvSlAhwOhAPhQDgQDoQD4UA4EA6EA+HA1+JACh8pfKTwEQ6EA+FAOBAOhAPhQDgQDoQD4UA4EA68LQdS+HhTcv/666/f/v7772+///7725I3VdqvVaXNfGe+w4FwIBwIB8KBcCAcCAfCgXDgGg6k8PGChQ8KGnx+/PHHsajx008//W/RA7lffvlllLuGMNHJRhMOhAPhQDgQDoQD4UA4EA6EA+FAOPBKHEjh480KHz/88MO3v/7669t//vOff4odFkFWRZJXImtizeYaDoQD4UA4EA6EA+FAOBAOhAPhQDhwlgMpfLxg4YMiBp/vvvvu//ySgz9xseghGSh+0O992mwU4UA4EA6EA+FAOBAOhAPhQDgQDoQDX4UDKXy8YOHjq5AzeWYjDgfCgXAgHAgHwoFwIBwIB8KBcCAc+CgHUvhI4SO/BAkHwoFwIBwIB8KBcCAcCAfCgXAgHAgH3pYDKXw8kNw///zzP/8Iqf9Yaf0fWL7//vtvv/322/+Oc/2vf/3r259//vm/fdO/28Gfv/CPmVY57P773//+XxLz74DUcex0f/y5zPSnNB+ttEU/1dpwIBwIB8KBcCAcCAfCgXAgHAgHwoHP5EAKHw8sfDDRFBgofPzxxx//W5iQABQeGKNIYR8t/3gp/b3wgTx2GHeMggZ9yNfiR7VjIYR/B4SP9vPvgmQzqrzLdfgQDoQD4UA4EA6EA+FAOBAOhAOvyIEUPh5c+KDoQFGCYkMnEEULxvjHSesYv+CYCh8UKiZ5ffQCinYojNRfd/g/wXT5GkOus+GFA+FAOBAOhAPhQDgQDoQD4UA4EA68AgdS+Hhw4QOSrH6RQSFjKj5YsPBXHRLNX2p4X1sKInwoptivnf5LEAsuyCubNhtaOBAOhAPhQDgQDoQD4UA4EA6EA+HAK3IghY8nKHz4b33U/4aWX2BQyODf6+jEsmBRCx9cW9zYtVVnsqMvbXifNhtcOBAOhAPhQDgQDoQD4UA4EA6EA+HAK3IghY8nKHz4b3lQ6PBPTiiG1PtKrqlgYeGDsSq7u57sKJ/CRzY0uZA2XAgHwoFwIBwIB8KBcCAcCAfCgVfmQAofT1D4gED+Dy7+ex78icv0aw9kp4KFhQ8KFpcScrKjbgof2djkQtpwIRwIB8KBcCAcCAfCgXAgHAgHXpkDKXw8SeGDf2eDYgMFEK5Xv/aAbFPBwl+NYKP+Ox47ck52lE/hIxubXEgbLoQD4UA4EA6EA+FAOBAOhAPhwCtzIIWPJyl8QCKKHRQc+MdO67/30Qm2KljYT/Gk61AY4X93qf3K13/3w/Gp8KE8rXJpswGGA+FAOBAOhAPhQDgQDoQD4UA4EA48MwdS+Hiiwof/He3RrzYsSvT/jYXCRi2e8KcyfCiE0N8LFis79X918d8cgcQpfGQze+bNLLGFn+FAOBAOhAPhQDgQDoQD4UA4MHEghY8nKnxQuKAYsfu1h//1LXIUM3rxg6IF+hZAkKNg4b8dIglWdtDn3xexKMK1fzqTwkc2EfmTNlwIB8KBcCAcCAfCgXAgHAgHwoFX4UAKH09U+HgV0iTObHDhQDgQDoQD4UA4EA6EA+FAOBAOhAOvwoEUPlL4yL/XEQ6EA+FAOBAOhAPhQDgQDoQD4UA4EA68LQdS+Ai535bcr1J9TJyplIcD4UA4EA6EA+FAOBAOhAPhQDhwPw6k8JHCRwof4UA4EA6EA+FAOBAOhAPhQDgQDoQD4cDbciCFj5D7bcmdiun9KqbBNtiGA+FAOBAOhAPhQDgQDoQD4cCrcCCFjxQ+UvgIB8KBcCAcCAfCgXAgHAgHwoFwIBwIB96WAyl8hNxvS+5XqT4mzlTKw4FwIBwIB8KBcCAcCAfCgXAgHLgfB1L4SOEjhY9wIBwIB8KBcCAcCAfCgXAgHAgHwoFw4G05kMJHyP225E7F9H4V02AbbMOBcCAcCAfCgXAgHAgHwoFw4FU4kMJHCh8pfIQD4UA4EA6EA+FAOBAOhAPhQDgQDoQDb8uBFD5C7rcl96tUHxNnKuXhQDgQDoQD4UA4EA6EA+FAOBAO3I8DKXyk8JHCRzgQDoQD4UA4EA6EA+FAOBAOhAPhQDjwthxI4SPkfltyp2J6v4ppsA224UA4EA6EA+FAOBAOhAPhQDjwKhxI4SOFjxQ+woFwIBwIB8KBcCAcCAfCgXAgHAgHwoG35UAKHyH325L7VaqPiTOV8nAgHAgHwoFwIBwIB8KBcCAcCAfux4EUPlL4SOEjHAgHwoFwIBwIB8KBcCAcCAfCgXAgHHhbDqTwEXK/LblTMb1fxTTYBttwIBwIB8KBcCAcCAfCgXAgHHgVDqTwkcJHCh/hQDgQDoQD4UA4EA6EA+FAOBAOhAPhwNtyIIWPkPttyf0q1cfEmUp5OBAOhAPhQDgQDoQD4UA4EA6EA/fjQAofKXyk8BEOhAPhQDgQDoQD4UA4EA6EA+FAOBAOvC0HUvgIud+W3KmY3q9iGmyDbTgQDoQD4UA4EA6EA+FAOBAOvAoHUvh4w8LHDz/88O3PP//89vfff3/7/fffv/3444/fvvvuu2+//fbbP9evQs7EmY00HAgHwoFwIBwIB8KBcCAceB8O/Prrr/+8o/z111/ffvnll3/eUXhX4Z0l8/w+8/yMc5nCxxsWPmqxgw2FjYUiCBvNM5LwWWNyY/7pp5+C2xuukxXvmG/WC2tnJZP+PJjDgcdxgCI+a5QCP4X+zMXnz8X333//z9mCOQj+n49/MA/mr8oBChzs4Xwha7Ej+3n4/Fl8TuHjC73QfRap3sUPm/Iff/zxz+H6XXJKHscPFw7yfJj/4HWMVzAKRp/NAQ7J7s8///xz1umDzjEWifPlQPaAz94D4m/NOYrBfAGaYsIao/Dn62KTwseDDgyfseg4ELLx8fL+Gf6e3Qcvs/9fO2ePJMFOdO2lsQwWwR5YAXFXwAJYACY2JiYeLh4uLl88RDwf+eZNqatq+m96jtEhlZTKn5NHKkndM+DB5+i3+bxA+MWMfy7kr2d4fvd439E/cH8nTpJf/CGvfvtA/da3yGz0K5+uYO03pti/F5/4lZIcfcVPRr9q38MsmDz6QEuOWRuxdc8cTFzAFt9w9b5ffvnlP3/9k+OP3gAAIABJREFU619/1d7lnvnsYRZM7mH3HjjDC3ntXFEvfSs/z/LxHvO6+kp+V769W3vN+5ncw1/XGtd3n98txq/6cw9+ZN3/9YHrmev+Vzng++LoHvKr9q6MZ/6x9oEr/r6rr/jnPuq7rJWucfc+V519V028QAf5vuf6i67vwPkJj1VbLj5efPHBJHJDd4SwdVOFPJOPF2lPMJtD9VEyIbqMz/TzcUNp+yeWTuL+IhAvcOhxs9lBnrHkCsy/0y8CVjH3OB/9zIsNfPVnx8lH+4J+X7rkk7xyMGUTT76P2HdTMXHm1njGateStlvjjvR7gAHnI/L3lvmKffA3F+DK4fbe/nV9brweuf7Jlb5WE++jL3h6vLtn8PZ91NfI3bgjfV/BeVp7j67BZ/lIjuDelXkNDs5ny57zI1i9Smb3HnTd7ryA2/T19f2deL3DcxfzNM65fIUfjJUXlrRNds62neX5Wf235L9i/xXr/q14Vv3E6Rr57od1ufrVd5t/Wui62NeAjlWdU4yZLv0ZU9d1MF2tldhDD/Ld1jOf+xp37z1s1X82rjr/wOpWjs7oZ37eW+cZ+/eWzcXHiy8+SKiEhVh8VpO/y7LxmwjBeBYRyFrHYGeS1+5XF8dJ91famLjEwYc6izixsWG4ullwAe2LQl2oJ5/1hYMBtsH+3oveZPcebasN6z10H9Wx4uQrNw68jOWSB76z/jh3juKgnBs9+YQf93qpy+V76dPno+VV+xyUmOtggi0wOnq4PerbJOf8ePT6x3oh3/DDeK+uZVMsX2lzXSMHZ+fBEbtXcf7q2nuFj1fnNTmWw+BJvvkcweddZFaxm7/+7sRvYiVu9xxye7eXeZd45QdxH/VphdGt8Vn3f/1rD7ny7HX/Vq52/e4XnOs72Vf2wbfVvv+sX+iS96uzhzqrLHXba7laK6f3IWsOtl+1p8HvZ+xhXYvOxikfxdoz5b32NOI/rf01p9+lnouPN7j4kOxskJjcvAhWBEKGRWe3CDDeCaAeJsLq1hX7fKYFx/HPLvEHf/GJBceFlNjPbMqdsC7YvcQOsWFHHKZYWYh8MdNPnbZHY7bL8+Tn1IavxPbKTeiKk52n+g+2xO7zvUuwYC5VTOTcGVvy6cwYbMLjyid4RMzVnzM6qyxx3IM3VeeZ+lX7fY5hE36cme9n/FRWruG3bY8q3eyZn8qBR9k8qlcOXvXJtXaF41WcOy/wj7aja+8VPl6Z1/jDmlLx+yqmR3P3FTljnUpwVjdxgeW0RjFH+1rO870OXfrQSznV2888kyPiWvF20iVWU9+qLev+ry89wKrPb9qese6v8nS0/d3nNvOV9ehoPLfkWN+56PH8Ude5OhZcmB/KTYdlZFZr5TQPmTu0r2xW+4+qP2MPS4xgV9fdI/Gwr+jrL2sv7UfG35Lx3T7l8tbYd+zPxccbXXxILhaMiSxMeiYFE/DK5Jh0/rQ2Mf4OE/jqIvgJOYXffN49lnf089W8ebX9s5zx8ITfZ8dG/n+HmVs43up/FJZX+PiO8/pR+HS93yn2V/n6Krs9V/X5Cs/r+K/WX23/q/5n/P/W8gmLuneG//2g7RjOJ1yQVHn7flJ5ZY141zn0abn8URcfEnEqXzkhJTult6TTzSYLDbekyp+9FXxljO9i+ztNYH39aXmW38zTd+HNyg/XklX/K9rF71W8ebX9s5i/6kB+1s93lucbPDa7zAfyP/n6Kpyv8PEd5/WE6SPavkvs5hV/H4HDTuc7YiQeWff3B/hdXtO3xs79KL++gP+s9xNenGH4pYHylJPcJ7c5F8+uTY571Rxe5eTTcpmLjzf4ZlmyU7JgMFn6T5TcWPLzJeVXk4OFiUsSL1HQh2z/2SmXK1UGvSvi005/lecSBluO0XfseUFj31Rinz9nccPMOPTXP8lBD+18ziyg4IV89xccui5wqT5MvhI7fukLesEYO8p7041Mz021cSSOiqU2LRnPT4trbPgAnsaHLG1n8at+qoPY1YPNyiN8ETtkpgs7/DjKyW7fmCk7puJeS/zRV8cyrv+5hPyostQZX3NadU91bdAnn22DL3V+1PFH+NSxYHzNBbjjb9WrTMWrcqXnr4+tz8+2T2zTutU5VXNmvpgv8pB89zE1rl53zmCf3ONDzeGKD+ZQu5TknPZug+ej8TlWPqkfn4gd/5TZlcZS1wnqEy/JtThgBznsrPhb7RJXzYnYWSqrfuT1TRl8uoWzsvq2kteeJfYYi33bwLbiQn/FVVvII6vv5KK/m9VJeRTHur7rF+8PfaLsa5Z2pjVOfy2V3ZXgAu6OIbbK/Tq25ndac8gF7fqPTuKqMcAlcaQf+9qgr/pi+6rsa5MxaBd91eeJc7R1PSt7vV17tDtPbZvml+M75uAF5pXLV7mBbuPHXtb99SG+cuPsOwTOkOO6Lvccmm/Ko2tCHTPV5Vm1Sxx13WIcPKCtz0XGT3qPtoET/EJe/Or81jYyzD/lKScbR3GZ5sOkzzbirLGDR11f+hp+dJ6gY8KVOLRNyXPNketCnZtVvtanOSzW+l3XCsceWX+RVRe+nOF9zyXPxojOr3LLOJ5V5uLjzS4+mFyQElJVEjiZIHifHFUOAjKWD3L0oVPCT5s2Cax81dfr2sbHaQKysUHf1Fd14acLAf7Rh259qbJuiFYLaJWljm3jZTNpPxhik0/XpT/0KW/puPpyQy+y2FGO0nY3s7XPBbzbrjLWwUJd2ODZj3jpM/3m3fhqHGfxUy8xEDsvEXxWD7rxhX4woc8XDaUxWOrbEU4ii27jMGZK+tQ5lfqHz/TDA/xDV8V84keV7TmdbNmmn9hkHDnueKBbecozfFrlwriwv9p8mB9KfKLU31tY6u+z7Msf52vNx8Qpc03s4N55eCaH4oJtbJFDPq5F2BIPS3OIHecjHHVMz8nZ+BhPrvBN/a4HtOvHqmQMvmAXv5Cr/tlGu1yilKvaQof2d7bQBxb4xlie/TjuKzhPvh3NMX6Ipb5Q2k6M1Gsf8nzIMxgyf8TJGKs8dfsnXyccxVjd4FPn6TRGG/CTXPFhDD4ZR4+l+8nzxF/ybI7Q18c557BX+/CBXGifPnTJhz4XkEN/9xM9tE+2qz3qrEvmT10886lrm7aqP9rQvmvcEbv6oQ5wJM57r/tXuCEe5BCedD7hc8XGWKZSTNCxmgM9r1fsn10X5SC2wZ044aN6aJvimdrO6gIT+LTiOb50O85XSvhNv7lFz621VX1H3wfigA3GYlMf6FPfldJ1hrGuH/3diC04g4zyfb2gT5+O4iJm6j7iv3OfvBG773XnLjppm+ZJz8ut3KNHn5B1LmCLuh/6lJtKx+ETOuEz+FE3no752fX3LO/x01zqE3mjTb7h2xTPu7bl4uPgi/aRCZTslNiB7EyY+mJxkadf+WkRcKy69JuJ7ITvfehxgiq/KyX7NImZAHURWOlx4eu+uKDWcU46ytq+qmOfeCZ57U594lP1ghsxTS8NFxB8dswuN2fj2OnSHj7jG3kXS2NU5qxdxokFutRDKVfor3HXTat+OO4KJ7Wvjlul/J7mBPjUfO/4Iber/M62fhKjGxvkqfuichNC+1k+MUYbPRfmubfLG8b1PnNxNL5n2cfXKXfG3tcaOQ3GtU8eMI46/t/6yOmuy80muqoOc4h8zTkyrl+970x8cqfrQL/5q/5MdWPqc1Hu226ME/bya+o7Y1NZfTqL89G1Vzu9dD70OIiv++JYedfntfh1XVdw1C9s1bUUH1yHajs8R3bCQ3nzahxTueNvnT99rHOurx1iUn1l7MpfeTD5Ku7d9ur5lry2KF2HnaPV/i093b7ynR/OXfq1x1gxn3K320egp+Nqrnt75VPW/dvrvnzua0CdA9TNvfh2/tuOHmUpr6wJdbx1OYX+/r7p7wP40tcm9MjX+q5U/9FSvJDHD3Xqk23yUvmO1xVcxHiKbeW/c7/PUf3C/6PzRJzxo9qrXOl94lPlb9WNc/Kt9tU8nl1/jf8o7/HZMfhlfmk357T3+G/F+sr+XHy84cUHxKrEdwMh2Z0AfRFQbnq5QjJfsEyUSjoXiKPE5YWOf12PfteXRbVT626q8cmFs/bXupOOsrav6kxo/Jv82OliDJ+q11gn2+qqi+cqN+hUftJVbVrf6VJGn3e5O2sX3ertuVFX5x5jJh5d5aT2jfNWuXsB9bE7fphvXnR93PSsn87NKuMLqWKl/okDYlv5hD5t9Fw436p+5OXNtA5oY7Jffa/1V9qfOIVvxtHXIPo8GOzmRI1PG/WFbr+x+0xpDnuelJFfbPBsW5Xarr7e0r/SZfutOaccpe+EKXb1gEHnXtVhfYrFPkr7J1s7nCeumv9VDqpd5wP2bceHvvGzj1J/+jtk0oX8FRzVNa01xIUPNXblaxz6LLZV3r5e3uKXsfdxYt5tyPcuz7O6Ko76Sjx9jPK9ffV8S15b3eeu75aelfyj1n1zfZQb+OeYrPu/5lXPH8/y+R7vkIk/V9aEyc9b83Ua09ucB9Oc67KrZ/Gy3zXK9Rw/WQvsV77PvSu4yG3iUP+t0pj7e1hd5KzrmHz2PTjNK8YbT+fRxIlurz/rW8WxyngBUzE9u/4aY/cXO6u9k2Om9604f4VbNcZn1HPxMRx2nwF8tSHZJQ6bTCcNdchWX4DK90VAcvZ2ba36zxLXQ2afnPg4TQzt1xIdTlhKJmHdHFVZ/aas7VNdbKZFDfmdLjGvesXGvqmseGu/tqlvZ1uZWu50Kac/Pk/lWbvoWOnd6RIr/NYP5Sc8kFn1r+yrdyrhkOOw5wu5yoopcrXd+q1+5Sy153Mt/WajzhMxctxUdqyUqbqp62uXX7UzRrwpu77V8yvtixcxVf92cazG1PG1vpOfYld+heGt/lu23Uit9NfxU92NMn5M/bXN+Dq+ytzqV47SuFe6dv3amfTZN5VHYuzzAVyZk9OhVfva8tmy67Jd+VXsU/9KFzonfrsBr+uJ9t0Qr+wrR2keVvzS1zqG+uSTMThmVVa/tF/btOV4n2+Vt+R3tqruW3qqLPWd/D3WfXGd+D3lAZ+ujOlx1edVjCs7q3Z0rnyu9mp9lbedntWYqrfW76lrwso2cKl2rd/qV+6r7wP0nMVG27UUL9vkuWcTDs31MK08pWMob8U99e+4VXXX+irmna7JZ9vQV/VbX/Ubh3JHyp1vjHePCyd4Vl5bqxI57esvpW2WK8yujFHnO5a5+HjDiw+I4m2qt6j1ECfZ+0SUnL1d4q36V2R33FS6GHubqk+7zWTXw0WHcTphee7fLuo3ZdfRn/UDfb2P550ufajjzmKj/SkHO9vVpvWdLmUmn+2zPGuXcSu9O10TVspPeGBn1b+yb0yrknnirTU6qMtRxogpfZOOW/19zM7PSdeEUdfZn1c21N+xXbWjV7wpu53V87Pssx7gF/HUHGKfmKp/uzjOYryTn2JXfoXhqv9ofKvxNf5dXWzQs5Ojz/g6vo671a8cpX6vdO36tXNGX5Xd1Z0P2rDcvauU6XrV1bFVfhX71L/ShU1z2DkmhvU9eeaiC93q6LqNVV99tpx82sXguF5qf8JqZbvr8PmW/M6WOihv6amyt+TFBJ2OO+qH8upgnG2WUx7ouzJGnVO5wmRlZ9WO7pXP9B1dF2/pOYvxzqedLuLkAIoMl5DiVPONr7Yjz3P/3OpXXl/w17ZdeQbPnZ7eJ1613fc0+y7iwbb9yne/b8U99e+4pb1eilvHf6dr8tk29HUbPK/6jWMas2rb+TbZuiU/2dFfyt6/wuzKmK77nZ5/1MXHOwFffZG8lLZ7m8rCyqdeBijfJ6Lk7O3qXPWvyO64qXSh8+aRjdjK7jS+thEbvvkS6Xr0m7KOm+piw6Iz9e90TQuV2ByxjT3t9xjo29mefN3pUn7y2T7Ls3YZt9K70yVW+N1tT3ggo77ev7Kv3lslPugPuvRJTGmbdNzq72N2fqqLzYHj9Im4bbtVrmyov2O3aseOeL+bfb/JYB3Bf9c78aKt4rSLYzWmjq/1nfyEvfIrDKf+M/FN46u/t+pig55bssbX8XXcrX7lKPV7pWvXr51J3wrnKrur4w/6xcOLAt43q8uPyR9sdF3aVX4V+9S/0oVOc9hjZ16wnnjgQC/fuCLnnNGnVWkeum7l9dVny8knY2CMcrdK7U9YrWyvdN6S39mqOm/pqbLUd/Ji8pV1Xx1yttqf8kD/lTFVb6+vYlzZWbWjd+XzmXVxp4e+o7k2zpVPK13ML2ywbjCWeNU1YWVblVOe8la/ssaFTdtW5Vk8V3qmdvGqfdoDk85V5bvft+Ke+nfcqv7Uurh1/He6Jp9t6/Fpa9VvHModKXe+MV5b7JN4Vh5bR/RXHejqY1aYaffMmK77nZ5z8THcxD47QZKXstr2IkCS26d8n4j1skTZWqKHCdLJuyJ7HTvV9c+f4Hb/pzG7Nm6Lp8ViN+m6Pl5O6pg2tS7UHQP0OK7qVL7noMrU+io3yKzwr+NrfadLucln+yzP4OeYld6drolHVzm5sq9/R8uO+S1+eKHX59bKnn5Ohw4PWF4OouMsnxijje7Dih+rdsbv8tf1+/xo+2I+zbGJU7fiWI0xnl7u5KfYzWHNa9XpoZQ80H42vlv6q62pfmvO1TH+iQRcre3UV+txl/N5hyMyu/4dzhMvtHmknOaD84D4p7k7+YOtSRftV3Bc6UKf/lHWGMGit9X+I/Udv+r62HVNPlX5+m1vH1ufVzw4yzd0rvKkvZUt+y1v6VHOUvmJO/dY969w48oY45lKY+x9KzurdsZP3Dm7Lq706N/RXCs/+WTfpMu9BH4rZzlhdWVNUF8td/O1yl3Bs46/VRevKufen/g7LspT1jFXcNlxq+qu9SmH9O90TT7fep/Kix7nxInq31TXNzCa+v2lve/rK+vvFKO2VphdGaPOdyxz8fHGFx8ueH1D4USEpJVUTAIvI5BZ9XV9K7LX8VNd//wGapJZtbEoOHmrjIeG2rabdFXOugtrP5iwSItPX6QYOy1ULkT0TRcp9GuXssrXTVFtn2xXHdYdg89VV83f5LPjLc/ix7iV3p2uiUdXOan9im+N29gs8QucfLZ0M1Ax10/4q5ylff0lbn8v9bPPN+QmXeaUcUf4hB5tdNvqwk7tW7Ujs8tf1VHrj7a/8qluqioPbsUh7n1MjanWd/JT7OJLX52X6LSvftt7Nj51oL9zBHu34qpzblpjK1f1bdpo2Xf04kEcGSe+dc7aP/l/C+eOg1hrZ1eKJ/arnBvWKfbJH23S13WJ1aTLvo7jyi/sOKZiqXxtq/Ecrbt/mPglJvR1fZNPyJjX/r6lDy723Clf11/k3NRPtrsvPiPLp3LqKOfUQame2rarK1/nkvLGV98h5o5xHQ/GVf99RrbzjL5VHrRxZow+T6Ux9r6VnVX7yudVHOCj7Y7Lagw2xL2P6f77fFbXSr8XXfisbkr1n1kT6njr4or+zp36PtAepWMpV3gaz8SXOt66+n22JL76vrPd80H3Rz1ncBGDo77ig/F1Pux06Vv1ub5P+3yvfXXdwf7E4S4jVpb6xlh02065smWcR9ffKUbtqKtjdmWMOt+xzMXHG1x8eDirL8odWVxQpsVGXRwCJS+TjUWGyTTZcIL2Sb3zgb66oE56d+OxiY/Vpi+QPoGdjHWjtNONTmNiLJOWDR31lY3dguNmEH+pow9fxFSc9Qk57JMfbSNr3tCh7K1SXYxHl3oYt/O56j2L306vMaCz2qAuHp0LVzjpJpj4iZtn9HebPiMD5mDry6Xyvm4YqIurB0NeKub5TH7kGb7Jg1u6tIMP1PF9xaddLsS142L7tD6Yvz7HxLGXz7Cvv+BBHZtgAsfEqq4T+LjjNHGTlz6mx+az8ti2jZI8mt/KH/r0C+zlG34TA58qfyU+9VeO0MbzNPeq39S1if/kWo4RKzqIzRiJATn02+46SZ9t3UZ/dgy64BkfbInPV3CuOKzmSvfHZ7HAvm2W+kTstuGvedd3+3y34I9tlGB0FkfXLMZVXdTNP7HaB6f0ayrRc5Tz+koc2MAX2sBKTCqH8WE155BDDz6hA1184B3tna+VJ8SJLDbNE3o67mLQS2wgjx1t4oNy4rTDZbfGqaeX6sUW4+mHA+at8smx9uGrca+4TCzYqLF0PZUb9InfxHNk0Zd1/3//a2PFZ7B0DlTemD9yQjt5p40PbeBb18ora4I57qW2K3doq/PL/NNGHf/gEXE6vsZj/H1+dts+q+Po3BQTxqmD8gouu/lQdde6c7TGTD/P9lV56s6T7nPF1vkODsZIf9d1a23q8jyjW98YL9Y7W2fXX/Pe1w/sT7yn3dx3XOgTA/fStL37JxcfL04SE5qFCrJT8rwjjQuAkwPSOTkcx+Rx0qmXZyescpSSVrm+SFTZqc746UU7ydY2Jp0TsMZCfPXl4UKkzC18tEEcxiau6K34gQnyLBxOeOxQ75iysKlPGRaBLqc+ZbVN+2Rbf1dl9Q2/jL+268+U37P4TXqNEdtyFZvih+81l8j0F8EZTqKPXKkTfWBdedHxUn/NI+NWvCcmdNZ4sNf97nb6Mziw4KOr2ib/O11H+LTLBfzuvuMbeqd2+ir/ev56XDw/0z6+iV/lObjiKzG5Nu04LWf6mCk+2pynXR5+6A991LWvriM5VPZMfNMYfMDXM5uLugYaA9j1eeS6WOPFFj53WX1blTU3zD04hOyzcO5+9fmAH8qQ4zpXiP8Pf/jDr/Lu+tfnHLrsQ+cZHLtf8Fa/+jzl2T7nA/lcfcTcMVOJr3X9w77vD/VWzte80l99Qj84VH3I7NZT9Ik9cvo82Z78t404GM849OGDnO2cm+bObo3TxlRi71Hr/hVunBlT39tTbDtM+hwAe3RctQ+PXHco5ZU8f9S6v+OzfJJTrvt9zsAv+2oMV9eEKRe1rWKFb9jvnK4yt/A0TnNYbfU6nMEmH/Qad5fzWd2O6ZwDy+qr8dDm/FXXjlvK9LLPff2lNFfaNF/Y1l9KOFL1usdUBm4Sl+tmlaVOHOLQ16Yu6zO6kCVmdFPX3s7W0fX3Cu/PjAFDY3nnMhcfL774eGdyHPGtLq5H5CPz/rehyVFyFA6EA+HAe3GATTsb4X7YIU9sfN3sf5fNZ/j1XvxKPpKPcCAc+AkcyMVHLj4u39B5E9tvaH/CxEmMeUGEA+FAOBAOPIsDfMnAxcfKnt9Y5uIjnFxxJO3hRjgQDvx0DuTiIxcfy41UnxxcdLip4rIjv/b4HguoP7czdz2vz3x2c37k55XP9OtVtvwZ4+rnkq/yK3YfN7edj8n54zD+RP6yVuwuPvxJcnh1jlfg5Tr8LN5oL7k6l6tn5Sd2kpcVB955D/vOvq3wfEV7Lj5y8XH44oNJxcaLks07P619BWlj89xLyYMWeXs1dlmY/2/usgH+v3i8mp/PsO98zKHn5+X+K/zyYoO/9fZ/YqCPP3NxXeV/I3zFxk8cm4uPzMOfyPvEfI33rrW8x98Nw3f27Z2wysVHLj4OT17+ttiDWv0nYu9E6PhybTEPbsEtHAgHwoH35gC/umTDzRcQvoup7/7xXXL63jlNfpKfcCAcCAeex4FcfOTi4/DFRybm8yZmsA7W4UA4EA6EA+FAOBAOhAPhQDgQDtyHA7n4yMVHLj7CgXAgHAgHwoFwIBwIB8KBcCAcCAfCgY/lQC4+Qu6PJXduR+9zOxocg2M4EA6EA+FAOBAOhAPhQDgQDnxnDuTiIxcfufgIB8KBcCAcCAfCgXAgHAgHwoFwIBwIBz6WA7n4CLk/ltzf+UYyvudGPRwIB8KBcCAcCAfCgXAgHAgHwoH7cCAXH7n4yMVHOBAOhAPhQDgQDoQD4UA4EA6EA+FAOPCxHMjFR8j9seTO7eh9bkeDY3AMB8KBcCAcCAfCgXAgHAgHwoHvzIFcfOTiIxcf4UA4EA6EA+FAOBAOhAPhQDgQDoQD4cDHciAXHyH3x5L7O99IxvfcqIcD4UA4EA6EA+FAOBAOhAPhQDhwHw7k4iMXH7n4CAfCgXAgHAgHwoFwIBwIB8KBcCAcCAc+lgO5+Ai5P5bcuR29z+1ocAyO4UA4EA6EA+FAOBAOhAPhQDjwnTmQi49cfOTiIxwIB8KBcCAcCAfCgXAgHAgHwoFwIBz4WA7k4iPk/lhyf+cbyfieG/VwIBwIB8KBcCAcCAfCgXAgHAgH7sOBXHzk4iMXH+FAOBAOhAPhQDgQDoQD4UA4EA6EA+HAx3IgFx8h98eSO7ej97kdDY7BMRwIB8KBcCAcCAfCgXAgHAgHvjMHcvGRi49cfIQD4UA4EA6EA+FAOBAOhAPhQDgQDoQDH8uBXHyE3B9L7u98Ixnfc6MeDoQD4UA4EA6EA+FAOBAOhAPhwH04kIuPXHzk4iMcCAfCgXAgHAgHwoFwIBwIB8KBcCAc+FgO5OIj5P5Ycn/a7ehf//rX//z73//+z+9///vkLPM2HAgHwoFwIBwIB8KBcCAcCAfCgYMcyMXHQaA+7RCdeO7zk6ln4fjb3/72v5cef/vb37K4Zc5+LAd+97vf/efvf//7f7n+z3/+8z88P2uOxc73WhOTr+QrHAgHwoFwIBwIB85wIBcf3/AQ5cGAb////Oc/nz4Y/PGPf/z/B4vf/OY3p8efIdhXZPHtH//4x399vRLnV2y/euyf/vSn/8ZNrvGF+MFily/yymERXvC5EsMvv/zy37H/+te/trbO6P7LX/7yH/Thk/GcGf8V2Xtg4i9t3unSiQsBMQXXd/sVEP45d8/4Bz/gCzxn3CPmvevns7l4hsfkk/jPYHdG/1dlvzqv6trOWvdVf14x/hFr5SviiM0cGsKBcCAcCAd+Cgdy8fENLz4gp4exswcDD0wc4jg4vdNhrk86Y+QA9ZO++SVWDjwe0DgYHMXAAyPjO563nuUGtuDGPQ+GXrbdU+eteOz31zJXMNFvufhOhzQX+qmpAAASdElEQVRy7eVHv/ioB2dxeEXpRVz374gv5IvD5RHZMzLwXL+4ZDkz9pmy+AYG5BgOP9P2EVtfmVfMJ98/xPhu6zvvVfxarVePXCuPYB+ZHFLCgXAgHAgHwoHzHMjFxze9+HBjdubig4MSG342nUwWN2/vdJhzEuMTG08uZvDb9leU9QAC3vgDdqtN8Vd87Dni4H324ANufM74gV0uPPgYH3bP8Gtnz4P4IzDb2bXvCibkmHHkAD1egtCu3leX4ImP/WJBvM/y4N7xrPy7ZYc16pHrknyv+b3l0yv65Zzz8hU+7GyC31mOkVfWFucRuea9RE52tp7Z5/t1Wq/kjjkhjnuulc+MM7bOb5qDWTALB8KBcOD7ciAXHz/o4oNvT730cNKyaZs2d/a/qmTjea9D91diqJhxmPQgx0bdjftX9Pex2Ov5AIczh8ArhxHsupHXp3tyw4N4j01bjy6vYMKFl5ce+sfzK38lIP+Mp5f6yeEMzPnY9opSf8/4Ae+YX8/wl/Ww5/gZds/YcB6+08WA/ss/n4+UcKKvneSBNejI+GfI8GsWONv9xPaj18pnxBcb33fTntwld+FAOBAOXOdALj5+0MVHJsr1ifKdsLtyGHl0fBwi8Os7XXw8GpN76L9ysXAPu0d1vLt/R+OI3Lx2vuNak1zNuQouwSUcCAfCgXDgp3MgFx+5+Hibb9l++mS8V/zveBjJxcdjXrbvfrHw7v7da879VD3vuNb81Fwk7sesscE1uIYD4UA48DkcyMXHiy8++PMCN4/8SQM/Z+an9PzNMO0cHKaf2yJLv38OQukYdE5j0M2fTHgYYfz0t8n89FtdyDDhObjq6zTm1qKAP/5DVXTyQV//0xt+YkwbP3VXDn+P/hxdHxk74Vn/Zwg+iQUxrf6EgdgnnyaMJxzAvY/HHrb7Py38avzYFzfq4m4b8Xeb+gzGFT/q8ksZMFIX/tMOp8wX5fST9X7xgUwdcyS/xOIYfEAnsRCTPoHz9CcB9ovJkbyjm3grJlN8VzER0yOlvKjzkrjFAyzUM81f+yiPrgN1zFSHGxUbOV19EWfanAfmos5F9Vd9nXvKWNa8o7PKY6/qqnObvj4f8fPIfP5Krjte4lBLYzuSIzghvujo3Kw8IDerOVbl0IMPFT/GVmz1kVLfqYOf/jCmYl7HHMGf2Gr+GCN/0I1d+mmvunudfuXFCN3K1Xyqr7YRj7K1BLPqH/WO0aTnyFpZ7aT+OZvt5DK5DAfCgXDg9RzIxceLLz6YBG7g/dthNuVsojzUsKnqk4V+NnJsrujvY9js1TFs1NwsuvGrm8K+KWYTizwbP/rwBZvYoZ3PdMCtNq0jpy5tswFUj3LYxG8+bmjrBphYld2VKzzdANPvxrXH1HEwB/iLTTff+E7fzg/lkeMzxWQbsveKX1yNEdwqn/CFOKrv5nWKs+Nu7sQOjlCvhx7zrA3ilAPY6mPoI37ld6V5RJ5Y8I+P7d1fdFVMGKPvthu3dsWDUqyMmzE9PvvU2+PDtz5GW7fKiRf4RJz6X3mEPsbYV/XDCdpZM/SHsWLX+V/H1jrj0aM8umwDA2XlBPhMuWIuKmvp/K167OslOvFjyrnrDjl0nPLm++x8Rs+VXMsn/MQmH+LDd7AnB+bwTI7QY+6m9Vgb6haHXsoX8oX9aY5M+vFfHkxjxFl7Z/GXU5U/xKQebOO7+qdSPJEFry6jDecD/eYYPLq8uTQ2dNrWeagefEbmnutC9yvPr99QJwfJQTgQDoQD782BXHy8wcWHm1M2sHUTx0bMjWXdlDGpHOOm04nGJswxdbOrfG2reqYDiHrYsKmf0k1eb68y1t2YE1vfdLrhVNbn7mPFofc5tpbG2vFkrDFhq/rjIbJvdJHvbdhST81X9cG6m258so3SmGo894pf33qM5oJ+N+34Mh0Q9dVDVeVfxZH4lKX0QNLb65jOG+PuGFW9tU4+iKHHJ9b4UOWprzBZ5R0bE2e1XfFDf42vx77CpPu4ehafyhVl1T31GbOylM6NLm/7tA7U8VVHz5c8qu3i1eeisvh4VH+X49mD5eS3fKjcxR4+dV1idWs+M+5srtGJ/omXU/7MxdEcuR53TuIruMCfHu/0LAZ9fqq/t6PDMX0uruYV8mfwX/EH2/ZNue/xuY5N+SUHPTZz3H2Vt10ee9qofFMPcd97Xegx5vm9N9vJT/ITDoQD4cDrOZCLjze6+OjfFjFBpo0x7W6Opw2YG8K+cZ4mnBuzvsFD1k1tvSCg3QPFNKbb8GAy+Vlld4cD5Njc4s+EUdVDXWwmWWPq2Oxw6Pp5PoqxWJHHuiHuOu8ZvzFOm/zpQCK2HZMaZ920i9V0oCLP2K+HX/Q4Bhx67Oarj+lyPos9hxDbKMHX2Gs7ddt7DvTrCJfRs/JVPWcw6T5Oz7d4IRbY7+ONubdPz/p/BIfpgDfppE3/Kn+UXfm3wthxtWRtUk9fp8jFrXVHXfo54aiMpVgdzbXyE7baPcL9lR450v1xPkzYG0stVzi6hk3+O+ar80ocOv62TzF4CYEPNY6p7rrX3wnqOOr/M9bKyf+0vX6znBwkB+FAOBAOfH8O5OLjjS4+ps2vG7++IdwdDlZjpgm72kwj66a2j9uN6bJuFKfYqqzx4Httt36rXzlKZSeb94gJG2cw5kCiXQ5iPZfV53vEr62KiXU3+hxebVN+V1Ysd/lfYX9ljP71coe9MfQxq/adX10Hz8+Ir9rV3ooXV7Co+q0fxcFDNng6dlde8c+YKXe67XONqYdj46FUblfu/Ozj1D3lZPJdzOqcU6drwxE/d3a9IMeWujnkTxeN9vfyyhy5Mqbb5XmF/6qdMeJ6hIvKdjzQP+VxhbXx7srK25Ue/J+4MmGTtu+/0U4Ok8NwIBwIB96DA7n4+GEXHxwOOHy7oXQDN23+7OuTdbeZ67LaqZvBLsOzm8DJjyP9Vae6JptXYuLbQHThmwcM9YBFtT3V+Saa8X5Tzlh01UOKPt8jfn2bfDF3yNi/k1emluqYfDUOyq+OqeNrHbv4PGG/imXVvouFvPGLJQ7WHlDV88j4aqziOWGN3BUsGHdmHaj+iBc41PZV/Yp/xtwxXtnwMq9iRM7qcx371fksBpP+le/iwNrrL1P8NdykB3/P5Ehd/qIBG6w3tNfYd3W53WV28V4ZcwZ/ccOH7hfPK/uTrHNYXV6G+FzHrGI+Yw99Kz30rbhS/Uj9PTbKyUPyEA6EA+HAZ3AgFx8/5OKDTR6Hdj5sqD107zZmq03ebkxfGNy43jrEuAlcHQJu9Ve7yk42z8bkT6T9pYaHFuMCi2r7Vh3svTzhYKI+fb5H/KsY8c3c4YO+Kn80FnVMvhpHx/7KGP3r5Q57Y+ljVu0rv8gT+cEWB2t/Cv+M+Krv2puwRu4sFlfWgeqPeIFnbV/Vz/qHHmPuHFrZoN1LRfLEB//wtY+5x3wWgyknK9+Z566/cpGDOPKuAfp6JUfGDA7okb9dtzamUr963y7es2PO4r/jD7Gt7PcYePZyiLWcZ78AmGRXMWtv4tYZPciuuDLpSdtnbLiTx+QxHAgHwoHXciAXHz/k4sPDtgc4J95qg0e/mzxlLXdjlLF0o8s3sLZNpd/aunHvMmxS8efIYWi3oTwTE4cH5N0oV592G/Iqt6qbDzfQ94zfGKdDj5v/mg+/CSXelb+1fZf/FfZXxlSbtb7D3tirPPVV++SXh8h6OaS+Z8SnLcpbvDB38qiOnWKWd2fWgaqzHja9PK39vX4lVyuMu+767DoDv6ljt/ZTv9d8njijrZXvrCH0Kbcrr+aIOU3O4Qw6jtrTl4kv9O3iPTPmCv47/ujXNE+NqZZyl3eM9Wne7GJ2vj1yraw+p/7aDXLwD/7hQDgQDnwWB3Lx8UMuPlYbVDfL00FhNcYN5zSmLxDKoqsflNh8uvGk7re2bNyrntrXD2xVzvrq8EH/mZhWeohDPfqv7V6CUb1ksN+LHMfXGL8av751Pdj2IFE37sbJAQI/9NFSH+szNqb8q4tSeUp0nB1Tx9e6MXS/kDH2Kr9rn/ya2tABNh5Kvxpf5VD3tT5j05j6ny14kKT/KBbqqjao79aBLiv+E68755Q96h+2VhzqftRn8SQ/rCOV38qt9Dp2haPjLVf8oH+yoXznjPp6eTVHYM9YOXpkray2V3b1f5rvZ8ZM2GB/h7/84TKr+krdy66juDJGnnOBAU5dp8+rmI2BsY9YK9UPrvqS8rM23cln8hkOhAPhwOs4kIuPN7j42G3u3MT2A4UH5+nXCH4rVQ9K6mHjx6YOfdj1FwCMqRPRjR8bsL7B88DVx9Txta6vHEios7mj5LluptVLO/bRwebdeKbDTLVjfYVnPUSq3zH10GBb9Yc6Y/Ad/cbU8+JYS30BZ3FEDzH2zXO1p39X4vcwAm7qwbY+U+ofJX1ijE8cKMwRz/iq78i7OZ/yr41+UDE29FXb1D3ATAfpLsuz8XXswcq+6m9tp151mnditL3KEysY4j/xGnuPz/YzmOirdlel+CAPvtgCK+riXec6evBZ/RUL8Kf96Dow+cRBFbzQIyb4RJ02OcdY7YFf1YVP+oe+2uec6RhXmamu/YljyMtBfKeOn/h9Zj6j52yu68HemGuJ35XLYnYlR+YFXkwYrdpWfKm44WcdX+fJkXl1BX+5QFwVo/reqvyu/k115zv4d05W+VWOsVV5BkeRBW/yhp/Vn5UebDl3K8+Vx7/qT+qv2yQH+2AfDoQD4cDncCAXHy+++KiHGjY7bHycYG76aK8bvzNj1Mfmm400uvhQp61uXrGHbdrdfCNL3Y0tG0c31/Q5Rp9XJX5UnWwe+2GNsWzAq5/Y8gCw0l3bV9jgvxtWY3Ij3WOqG/zqN/6Lp5vWmpfqh3U212BUMUMP48VUWcqvxo8O4gNbN+M88yGu1WafzXqNVXna6kae8TWWmn9ktUUpVmfGkOuKR6/XHFbswbLyizptZ7iMbnMCJ7SFHbAEB2IxxivxOQY76EF3j3F6ZpzxUZpH8FePuncx01fnF3Xa9AddNaeTL7R1PWJEu2PET/+cb9gyFvqo27eav+rclR6GxWaS7TiK2Zn5TKz43bFCl+2U6sYP9df+Xhe7ju2ZHImfPJ4w6G3Y6/lwfF8b5caZMXVencVffoNB5RP+oquuTT2u1TP5Y/yqf7deMeaRa2Xl0Mq/tH/OBjy5TC7DgXAgHHguB3Lx8eKLjxD+uYQP3sH7HTjAgZKDLwfVd/AnPjxuXnh5MF30csHggb5elFzNBxcsXk5c1fFO47z44EL4nfyKL4+bL8E22IYD4UA4EA48igO5+MjFRzaU4UA48GQOcKDjwHvlG+tHvQyi9zEbDX5dsPtlj9/yf/Xig0sULtM+6ZIgFx+P4WTmenANB8KBcCAc+IkcyMXHkw88P5Fkifn7LK4cmvwJfvL2mLyBMQe6R156JI+Pyd2VOcF82l18+OcpZy8s/JMYfeLPQeCVz+9eHrnUOCLzqjgzx95njr2KA7EbDoQD4UA48L04kIuPXHx8m41yFpfHLy7ZzD8e42fwOHl8nzx6seH/6jD//ELDX3vwJyq2Hy3NMfoZz+WK/5vjqI5Xyh251PDPgKY/E3ql79gWfy62Xu1L7L/PfE8ukotwIBwIB96XA7n4yMVHNm3hQDgQDoQDD+QA/zCTgz6XE/6iijqXIRygr2yS+MWHutDN8xU97zrGixFj/OqfAr1rnPHrfTfIyU1yEw6EA+HAZ3EgFx8P3OxmsnzWZEk+k89wIBwIB8KBcCAcCAfCgXAgHAgHvh8HcvGRi4+P+pYwi9D3W4SSs+QsHAgHwoFwIBwIB8KBcCAcCAceyYFcfOTiIxcf4UA4EA6EA+FAOBAOhAPhQDgQDoQD4cDHciAXHyH3x5L7kTeG0Z0b6XAgHAgHwoFwIBwIB8KBcCAcCAe+Bwdy8ZGLj1x8hAPhQDgQDoQD4UA4EA6EA+FAOBAOhAMfy4FcfITcH0vu3L5+j9vX5Cl5CgfCgXAgHAgHwoFwIBwIB8KBR3IgFx+5+MjFRzgQDoQD4UA4EA6EA+FAOBAOhAPhQDjwsRzIxUfI/bHkfuSNYXTnRjocCAfCgXAgHAgHwoFwIBwIB8KB78GBXHzk4iMXH+FAOBAOhAPhQDgQDoQD4UA4EA6EA+HAx3IgFx8h98eSO7ev3+P2NXlKnsKBcCAcCAfCgXAgHAgHwoFw4JEcyMVHLj5y8REOhAPhQDgQDoQD4UA4EA6EA+FAOBAOfCwHcvERcn8suR95YxjduZEOB8KBcCAcCAfCgXAgHAgHwoFw4Htw4P8BPosLXg0KLrAAAAAASUVORK5CYII=;" vertex="1" parent="1">
          <mxGeometry x="490" width="476" height="287.53" as="geometry" />
        </mxCell>
        <mxCell id="Uyzg28V6n4aqCo-Vc_xZ-2" value="EMPLOYEE" style="whiteSpace=wrap;html=1;align=center;" vertex="1" parent="1">
          <mxGeometry x="230" y="257.53" width="100" height="40" as="geometry" />
        </mxCell>
        <mxCell id="Uyzg28V6n4aqCo-Vc_xZ-3" value="EMP-ID" style="ellipse;whiteSpace=wrap;html=1;align=center;fontStyle=4;" vertex="1" parent="1">
          <mxGeometry x="90" y="187.53" width="100" height="40" as="geometry" />
        </mxCell>
        <mxCell id="Uyzg28V6n4aqCo-Vc_xZ-4" value="" style="endArrow=none;html=1;rounded=0;entryX=0.5;entryY=0;entryDx=0;entryDy=0;exitX=1;exitY=1;exitDx=0;exitDy=0;" edge="1" parent="1" source="Uyzg28V6n4aqCo-Vc_xZ-3" target="Uyzg28V6n4aqCo-Vc_xZ-2">
          <mxGeometry relative="1" as="geometry">
            <mxPoint x="160" y="287.53" as="sourcePoint" />
            <mxPoint x="320" y="287.53" as="targetPoint" />
          </mxGeometry>
        </mxCell>
        <mxCell id="Uyzg28V6n4aqCo-Vc_xZ-5" value="Name" style="ellipse;whiteSpace=wrap;html=1;align=center;" vertex="1" parent="1">
          <mxGeometry x="140" y="147.53" width="100" height="40" as="geometry" />
        </mxCell>
        <mxCell id="Uyzg28V6n4aqCo-Vc_xZ-6" value="Address" style="ellipse;whiteSpace=wrap;html=1;align=center;" vertex="1" parent="1">
          <mxGeometry x="230" y="117.53" width="100" height="40" as="geometry" />
        </mxCell>
        <mxCell id="Uyzg28V6n4aqCo-Vc_xZ-7" value="BirthDate" style="ellipse;whiteSpace=wrap;html=1;align=center;" vertex="1" parent="1">
          <mxGeometry x="335" y="147.53" width="100" height="40" as="geometry" />
        </mxCell>
        <mxCell id="Uyzg28V6n4aqCo-Vc_xZ-8" value="Phone_Number" style="ellipse;whiteSpace=wrap;html=1;align=center;" vertex="1" parent="1">
          <mxGeometry x="370" y="191.29" width="100" height="40" as="geometry" />
        </mxCell>
        <mxCell id="Uyzg28V6n4aqCo-Vc_xZ-9" value="" style="endArrow=none;html=1;rounded=0;entryX=0.5;entryY=0;entryDx=0;entryDy=0;exitX=1;exitY=1;exitDx=0;exitDy=0;" edge="1" parent="1" source="Uyzg28V6n4aqCo-Vc_xZ-5" target="Uyzg28V6n4aqCo-Vc_xZ-2">
          <mxGeometry relative="1" as="geometry">
            <mxPoint x="185.23279132484868" y="231.72098539473055" as="sourcePoint" />
            <mxPoint x="240" y="267.53" as="targetPoint" />
          </mxGeometry>
        </mxCell>
        <mxCell id="Uyzg28V6n4aqCo-Vc_xZ-10" value="" style="endArrow=none;html=1;rounded=0;entryX=0.5;entryY=0;entryDx=0;entryDy=0;exitX=0.5;exitY=1;exitDx=0;exitDy=0;" edge="1" parent="1" source="Uyzg28V6n4aqCo-Vc_xZ-6" target="Uyzg28V6n4aqCo-Vc_xZ-2">
          <mxGeometry relative="1" as="geometry">
            <mxPoint x="195.23279132484868" y="241.72098539473055" as="sourcePoint" />
            <mxPoint x="250" y="277.53" as="targetPoint" />
          </mxGeometry>
        </mxCell>
        <mxCell id="Uyzg28V6n4aqCo-Vc_xZ-11" value="" style="endArrow=none;html=1;rounded=0;entryX=0.5;entryY=0;entryDx=0;entryDy=0;exitX=0;exitY=1;exitDx=0;exitDy=0;" edge="1" parent="1" source="Uyzg28V6n4aqCo-Vc_xZ-7" target="Uyzg28V6n4aqCo-Vc_xZ-2">
          <mxGeometry relative="1" as="geometry">
            <mxPoint x="205.23279132484868" y="251.72098539473055" as="sourcePoint" />
            <mxPoint x="260" y="287.53" as="targetPoint" />
          </mxGeometry>
        </mxCell>
        <mxCell id="Uyzg28V6n4aqCo-Vc_xZ-12" value="" style="endArrow=none;html=1;rounded=0;entryX=0.5;entryY=0;entryDx=0;entryDy=0;exitX=0;exitY=0.5;exitDx=0;exitDy=0;" edge="1" parent="1" source="Uyzg28V6n4aqCo-Vc_xZ-8" target="Uyzg28V6n4aqCo-Vc_xZ-2">
          <mxGeometry relative="1" as="geometry">
            <mxPoint x="359.76720867514655" y="191.72098539473282" as="sourcePoint" />
            <mxPoint x="290" y="267.53" as="targetPoint" />
          </mxGeometry>
        </mxCell>
        <mxCell id="Uyzg28V6n4aqCo-Vc_xZ-13" value="PHYSICIAN" style="whiteSpace=wrap;html=1;align=center;" vertex="1" parent="1">
          <mxGeometry x="-140" y="620" width="100" height="40" as="geometry" />
        </mxCell>
        <mxCell id="Uyzg28V6n4aqCo-Vc_xZ-14" value="NURSE" style="whiteSpace=wrap;html=1;align=center;" vertex="1" parent="1">
          <mxGeometry x="100" y="620" width="100" height="40" as="geometry" />
        </mxCell>
        <mxCell id="Uyzg28V6n4aqCo-Vc_xZ-15" value="OFFICER" style="whiteSpace=wrap;html=1;align=center;" vertex="1" parent="1">
          <mxGeometry x="375" y="620" width="100" height="40" as="geometry" />
        </mxCell>
        <mxCell id="Uyzg28V6n4aqCo-Vc_xZ-16" value="TECHNICIAN" style="whiteSpace=wrap;html=1;align=center;" vertex="1" parent="1">
          <mxGeometry x="610" y="620" width="100" height="40" as="geometry" />
        </mxCell>
        <mxCell id="Uyzg28V6n4aqCo-Vc_xZ-17" value="Major" style="ellipse;whiteSpace=wrap;html=1;align=center;" vertex="1" parent="1">
          <mxGeometry x="-220" y="550" width="100" height="40" as="geometry" />
        </mxCell>
        <mxCell id="Uyzg28V6n4aqCo-Vc_xZ-18" value="Degree-ID" style="ellipse;whiteSpace=wrap;html=1;align=center;" vertex="1" parent="1">
          <mxGeometry x="10" y="550" width="100" height="40" as="geometry" />
        </mxCell>
        <mxCell id="Uyzg28V6n4aqCo-Vc_xZ-19" value="Job" style="ellipse;whiteSpace=wrap;html=1;align=center;" vertex="1" parent="1">
          <mxGeometry x="450" y="550" width="100" height="40" as="geometry" />
        </mxCell>
        <mxCell id="Uyzg28V6n4aqCo-Vc_xZ-20" value="Skill" style="ellipse;whiteSpace=wrap;html=1;align=center;" vertex="1" parent="1">
          <mxGeometry x="740" y="550" width="100" height="40" as="geometry" />
        </mxCell>
        <mxCell id="Uyzg28V6n4aqCo-Vc_xZ-21" value="TREATMENT_AREA" style="whiteSpace=wrap;html=1;align=center;" vertex="1" parent="1">
          <mxGeometry x="85" y="800" width="130" height="40" as="geometry" />
        </mxCell>
        <mxCell id="Uyzg28V6n4aqCo-Vc_xZ-22" value="Name" style="ellipse;whiteSpace=wrap;html=1;align=center;" vertex="1" parent="1">
          <mxGeometry y="880" width="100" height="40" as="geometry" />
        </mxCell>
        <mxCell id="Uyzg28V6n4aqCo-Vc_xZ-23" value="Location" style="ellipse;whiteSpace=wrap;html=1;align=center;" vertex="1" parent="1">
          <mxGeometry x="180" y="880" width="100" height="40" as="geometry" />
        </mxCell>
        <mxCell id="Uyzg28V6n4aqCo-Vc_xZ-24" value="BE_ASIGNED_TO" style="shape=rhombus;perimeter=rhombusPerimeter;whiteSpace=wrap;html=1;align=center;" vertex="1" parent="1">
          <mxGeometry x="10" y="700" width="130" height="60" as="geometry" />
        </mxCell>
        <mxCell id="Uyzg28V6n4aqCo-Vc_xZ-25" value="BE_HEAD_OF" style="shape=rhombus;perimeter=rhombusPerimeter;whiteSpace=wrap;html=1;align=center;" vertex="1" parent="1">
          <mxGeometry x="160" y="700" width="130" height="60" as="geometry" />
        </mxCell>
        <mxCell id="Uyzg28V6n4aqCo-Vc_xZ-26" value="" style="shape=link;html=1;rounded=0;exitX=0.5;exitY=0;exitDx=0;exitDy=0;entryX=0.5;entryY=1;entryDx=0;entryDy=0;" edge="1" parent="1" source="Uyzg28V6n4aqCo-Vc_xZ-21" target="Uyzg28V6n4aqCo-Vc_xZ-24">
          <mxGeometry relative="1" as="geometry">
            <mxPoint x="-220" y="690" as="sourcePoint" />
            <mxPoint x="-60" y="690" as="targetPoint" />
          </mxGeometry>
        </mxCell>
        <mxCell id="Uyzg28V6n4aqCo-Vc_xZ-27" value="1" style="resizable=0;html=1;align=right;verticalAlign=bottom;" connectable="0" vertex="1" parent="Uyzg28V6n4aqCo-Vc_xZ-26">
          <mxGeometry x="1" relative="1" as="geometry">
            <mxPoint y="20" as="offset" />
          </mxGeometry>
        </mxCell>
      </root>
    </mxGraphModel>
  </diagram>
</mxfile>
